<svg id="Capa_1" enable-background="new 0 0 512 512" height="512" viewBox="0 0 512 512" width="512" xmlns="http://www.w3.org/2000/svg"><g><g><g><path d="m456.969 407.139c27.744-39.712 44.031-88.02 44.031-140.139 0-135.31-109.69-245-245-245s-245 109.69-245 245c0 52.119 16.287 100.427 44.031 140.139z" fill="#8ac8f0"/></g></g><g><g><circle cx="256" cy="267" fill="#b1e4f9" r="200"/></g></g><g><g><path d="m361.143 117.143c0-1.632-.045-3.253-.119-4.866h-105.024v34.942h105.143z" fill="#aa3c31"/></g></g><g><g><path d="m150.974 112.277c-.068 1.486-.106 2.979-.112 4.479-.001.128-.005.259-.005.387v30.076h105.143v-34.942z" fill="#962e29"/></g></g><g><g><path d="m429.558 352.438c-23.413-20.673-123.588-37.434-126.172-37.863h-94.772c-2.584.428-102.759 17.19-126.172 37.863-8.351 7.373-18.17 29.339-27.391 54.702 44.284 63.387 117.758 104.86 200.949 104.86s156.665-41.473 200.949-104.861c-9.221-25.363-19.04-47.328-27.391-54.701z" fill="#fe6d68"/></g></g><g><g><path d="m144.849 328.024c-25.754 6.589-51.864 15.104-62.407 24.413-8.351 7.373-18.17 29.339-27.391 54.702 44.284 63.388 117.758 104.861 200.949 104.861-102.521-58.7-110.931-180.502-111.151-183.976z" fill="#fe5653"/></g></g><g><g><path d="m354.253 413.972-.082-.181c-3.23-7.176-10.368-11.791-18.238-11.791h-159.867c-7.869 0-15.007 4.615-18.238 11.791l-.082.181c-9.553 21.223-24.807 39.38-44.064 52.45 40.112 28.69 89.236 45.578 142.318 45.578s102.206-16.888 142.317-45.578c-19.257-13.07-34.511-31.227-44.064-52.45z" fill="#bd5a40"/></g></g><g><g><path d="m256 512c53.082 0 102.206-16.888 142.317-45.578h-32.649c-48.633 0-91.241-25.782-114.912-64.422h-74.69c-7.869 0-15.007 4.615-18.238 11.791l-.082.181c-9.553 21.223-24.807 39.38-44.064 52.45 40.112 28.69 89.236 45.578 142.318 45.578z" fill="#aa3c31"/></g></g><g><g><path d="m278.5 466.422h-45c-4.142 0-7.5-3.358-7.5-7.5 0-4.142 3.358-7.5 7.5-7.5h45c4.142 0 7.5 3.358 7.5 7.5 0 4.142-3.358 7.5-7.5 7.5z" fill="#962e29"/></g></g><g><g><path d="m192.34 434.575c8.988 0 16.274-7.286 16.274-16.274v-113.726c-.786.13-10.591 1.77-24.518 4.571-4.668.939-8.03 5.043-8.03 9.805v99.351c0 8.987 7.286 16.273 16.274 16.273z" fill="#aa3c31"/></g></g><g><g><path d="m192.34 374.575c-8.988 0-16.274-7.286-16.274-16.274v60c0 8.988 7.286 16.274 16.274 16.274 8.988 0 16.274-7.286 16.274-16.274v-60c0 8.988-7.286 16.274-16.274 16.274z" fill="#962e29"/></g></g><g><g><path d="m319.66 434.575c-8.988 0-16.274-7.286-16.274-16.274v-113.726c.786.13 10.591 1.77 24.518 4.571 4.668.939 8.03 5.043 8.03 9.805v99.351c0 8.987-7.286 16.273-16.274 16.273z" fill="#aa3c31"/></g></g><g><g><path d="m319.66 374.575c-8.988 0-16.274-7.286-16.274-16.274v60c0 8.988 7.286 16.274 16.274 16.274 8.988 0 16.274-7.286 16.274-16.274v-60c0 8.988-7.286 16.274-16.274 16.274z" fill="#962e29"/></g></g><g><g><path d="m91.07 426.843v21.327c7.157 6.519 14.704 12.617 22.599 18.262l-12.035-41.103c-1.75-5.98-10.564-4.716-10.564 1.514z" fill="#fe3f3d"/></g></g><g><g><path d="m420.93 426.843v21.327c-7.157 6.519-14.704 12.617-22.599 18.262l12.035-41.103c1.75-5.98 10.564-4.716 10.564 1.514z" fill="#fe5653"/></g></g><g><g><path d="m208.891 193.75v120.825c0 18.367 21.091 33.256 47.109 33.256s47.109-14.889 47.109-33.256v-120.825z" fill="#ed844a"/></g></g><g><g><g><path d="m208.891 299.609 47.109 48.222s-18.328 33.146-30.188 33.146c-7.014 0-17.048-22.255-24.076-40.44-5.38-13.919-2.636-29.666 7.155-40.928z" fill="#fe5653"/></g></g><g><g><path d="m303.109 299.609-47.109 48.222s18.328 33.146 30.188 33.146c7.014 0 17.048-22.255 24.076-40.44 5.38-13.919 2.636-29.666-7.155-40.928z" fill="#fe5653"/></g></g></g><g><g><path d="m336.058 159.567s10.385-25.285 28.897-19.415-.448 60.664-36.573 64.116z" fill="#fa9a5e"/></g></g><g><g><path d="m175.942 159.567s-10.385-25.285-28.897-19.415.448 60.664 36.573 64.116z" fill="#ed844a"/></g></g><g><g><path d="m343.597 146.754c0 64.505-39.219 140.155-87.597 140.155s-87.597-75.651-87.597-140.155 39.218-110.884 87.597-110.884 87.597 46.38 87.597 110.884z" fill="#fcaa70"/></g></g><g><g><path d="m208.403 146.754c0-55.33 28.856-97.321 67.597-108.148-6.424-1.795-13.119-2.737-20-2.737-48.379 0-87.597 46.38-87.597 110.885s39.219 140.155 87.597 140.155c6.881 0 13.576-1.535 20-4.346-38.741-16.952-67.597-80.479-67.597-135.809z" fill="#fa9a5e"/></g></g><g><g><path d="m348.768 114.364h-7.141c-26.533 57.446-32.533 105.754-32.533 105.754s-19.641-31.718-53.094-31.718-53.094 31.718-53.094 31.718-6-48.308-32.533-105.754h-7.141c-16.496 117.67 23.343 207.274 92.768 207.274s109.264-89.604 92.768-207.274z" fill="#aa3c31"/></g></g><g><g><path d="m289.042 314.008c-72.383 0-97.404-73.562-86.136-93.89 0 0-6-48.308-32.533-105.754h-7.141c-16.496 117.67 23.343 207.274 92.768 207.274 11.934 0 22.993-2.647 33.042-7.63z" fill="#962e29"/></g></g><g><g><g><path d="m242.013 192.447 8.436-13.441c2.569-4.093 8.533-4.093 11.102 0l8.436 13.441c2.739 4.365-.398 10.038-5.551 10.038h-16.871c-5.154-.001-8.291-5.674-5.552-10.038z" fill="#fa9a5e"/></g></g></g><g><g><g><path d="m235.384 240.87h41.233c4.111-3.622 7.258-8.309 9.01-13.631 1.584-4.811-2.069-9.754-7.134-9.754h-44.985c-5.065 0-8.718 4.943-7.134 9.754 1.752 5.322 4.899 10.009 9.01 13.631z" fill="#463c39"/></g></g><g><g><path d="m276.616 240.87c-5.493 4.849-12.714 7.798-20.616 7.798s-15.124-2.948-20.616-7.798c5.5-4.849 12.714-7.798 20.616-7.798s15.116 2.949 20.616 7.798z" fill="#fe5653"/></g></g></g><g><g><path d="m310.999 162.085c.043-3.495-1.371-7.004-4.242-9.539-4.675-4.128-11.84-4.128-16.515 0-2.871 2.535-4.284 6.044-4.242 9.539.055 4.538 5.629 6.716 8.838 3.507 2.022-2.022 5.3-2.022 7.322 0 3.21 3.21 8.784 1.032 8.839-3.507z" fill="#463c39"/></g></g><g><g><path d="m201.001 162.085c-.043-3.495 1.371-7.004 4.242-9.539 4.675-4.128 11.84-4.128 16.515 0 2.871 2.535 4.284 6.044 4.242 9.539-.055 4.538-5.629 6.716-8.838 3.507-2.022-2.022-5.3-2.022-7.322 0-3.21 3.21-8.784 1.032-8.839-3.507z" fill="#463c39"/></g></g><g><g><path d="m349.164 112.277-22.01-86.73c-3.813-15.026-17.337-25.547-32.839-25.547-5.553 0-11.02 1.365-15.922 3.974l-5.097 2.714c-5.325 2.835-11.264 4.317-17.297 4.317s-11.972-1.483-17.297-4.317l-5.097-2.714c-4.9-2.609-10.367-3.974-15.92-3.974-15.502 0-29.026 10.521-32.839 25.546l-22.01 86.73h186.328z" fill="#d0794e"/></g></g><g><g><path d="m233.342 77.403c-14.467-13.937-16.682-56.531 22.658-66.398-6.032 0-11.972-1.483-17.297-4.317l-5.097-2.714c-4.901-2.609-10.368-3.974-15.921-3.974-15.502 0-29.026 10.521-32.839 25.546l-22.01 86.73h70.506z" fill="#bd5a40"/></g></g><g><g><path d="m353.23 65.645c-1.401-5.52-7.119-8.739-12.578-7.118-25.812 7.669-39.668 20.12-84.652 20.12s-58.841-12.451-84.652-20.12c-5.459-1.622-11.177 1.598-12.578 7.118l-9.717 38.293 106.947 24.71 106.948-24.708z" fill="#aa3c31"/></g></g><g><g><g><path d="m226.852 121.913 2.374-9.81c-9.518-1.697-15.858-10.789-14.161-20.307 1.576-8.838 9.528-14.924 18.276-14.393-28.047-3.339-41.111-12.671-61.994-18.875-5.459-1.622-11.177 1.598-12.578 7.118l-9.717 38.293z" fill="#962e29"/></g></g></g><g><g><g><path d="m256 143.648c-46.484 0-70.019-8.825-92.779-17.361-20.957-7.859-40.753-15.282-81.317-15.282-9.014 0-16.322-7.308-16.322-16.322s7.308-16.322 16.322-16.322c46.484 0 70.019 8.825 92.779 17.361 20.957 7.859 40.753 15.282 81.317 15.282s60.36-7.423 81.317-15.282c22.76-8.535 46.295-17.361 92.779-17.361 9.014 0 16.322 7.308 16.322 16.322s-7.307 16.322-16.322 16.322c-40.564 0-60.36 7.423-81.317 15.282-22.76 8.536-46.295 17.361-92.779 17.361z" fill="#d0794e"/></g></g></g><g><g><path d="m239.678 127.326c0-9.014 7.307-16.322 16.322-16.322-40.564 0-60.36-7.423-81.317-15.282-22.76-8.535-46.295-17.361-92.779-17.361-9.014 0-16.322 7.308-16.322 16.322s7.308 16.322 16.322 16.322c40.564 0 60.36 7.423 81.317 15.282 22.76 8.535 46.295 17.361 92.779 17.361-9.014 0-16.322-7.307-16.322-16.322z" fill="#bd5a40"/></g></g></g></svg>