<svg id="Capa_1" enable-background="new 0 0 512.001 512.001" height="512" viewBox="0 0 512.001 512.001" width="512" xmlns="http://www.w3.org/2000/svg"><g><g><g><path d="m32.485 367.466 445.153 4.045c14.975-31.702 23.362-67.124 23.362-104.51 0-135.31-109.69-245-245-245s-245 109.69-245 245c0 35.801 7.684 69.807 21.485 100.465z" fill="#aad963"/></g></g><g><g><circle cx="236" cy="252.001" fill="#c8ea73" r="200"/></g></g><g><g><path d="m461.94 265.721c-17.17-36.64-24.81-76.88-24.02-117.33.02-.97.03-1.95.03-2.92 0-18.67-3.52-36.51-9.93-52.91-21.2-54.29-74.08-92.71-135.91-92.56-31.17.08-60 9.91-83.61 26.6-37.23 26.33-61.48 69.72-61.48 118.87 0 1.18.01 2.35.04 3.52.97 40.7-7.59 80.96-24.6 117.95-8.071 17.554-13.494 36.575-15.779 56.549l185.804 185.804.002.005c82.115-12.26 150.911-65.262 185.174-137.788 1.19-8.48 1.82-17.14 1.85-25.95.089-28.54-6.221-55.61-17.571-79.84z" fill="#bd5a40"/></g></g><g><g><path d="m245.15 212.941c-23.09-12.9-37.5-37.02-38.08-63.47 0-.16-.01-.32-.01-.48-.03-1.17-.04-2.34-.04-3.52 0-51.69 26.82-97 67.34-122.79 14.48-9.22 30.7-15.95 48.08-19.58-9.79-2.05-19.93-3.13-30.33-3.1-31.17.08-60 9.91-83.61 26.6-37.23 26.33-61.48 69.72-61.48 118.87 0 .99.01 1.97.03 2.95.8 40.57-7.03 80.86-24.18 117.63-8.292 17.801-13.863 37.129-16.188 57.44l185.801 185.801c13.738-2.051 27.106-5.233 39.997-9.471v-138.37c0-63.76-35.27-119.42-87.33-148.51z" fill="#aa3c31"/></g></g><g><g><path d="m162.485 231.449c-71.797 0-130 58.203-130 130v6.017c38.359 85.209 124.007 144.535 223.515 144.535 12.399 0 24.58-.93 36.484-2.707v-147.845c.001-71.797-58.202-130-129.999-130z" fill="#d0794e"/></g></g><g><g><path d="m162.485 231.449c-71.797 0-130 58.203-130 130v6.017c14.135 31.398 34.696 59.273 60 81.968v-87.985c0-61.471 42.667-112.97 100-126.515-9.631-2.275-19.674-3.485-30-3.485z" fill="#bd5a40"/></g></g><g><g><path d="m303.543 104.038h-105c-4.142 0-7.5-3.358-7.5-7.5 0-4.142 3.358-7.5 7.5-7.5h105c4.142 0 7.5 3.358 7.5 7.5 0 4.142-3.358 7.5-7.5 7.5z" fill="#aa3c31"/></g></g><g><g><path d="m423.543 409.501h-105c-4.142 0-7.5-3.358-7.5-7.5 0-4.142 3.358-7.5 7.5-7.5h105c4.142 0 7.5 3.358 7.5 7.5 0 4.142-3.358 7.5-7.5 7.5z" fill="#aa3c31"/></g></g><g><g><path d="m184.985 384.576h-105c-4.142 0-7.5-3.358-7.5-7.5 0-4.142 3.358-7.5 7.5-7.5h105c4.142 0 7.5 3.358 7.5 7.5 0 4.142-3.358 7.5-7.5 7.5z" fill="#bd5a40"/></g></g><g><g><path d="m393.543 151.149h-75c-4.142 0-7.5-3.358-7.5-7.5 0-4.142 3.358-7.5 7.5-7.5h75c4.142 0 7.5 3.358 7.5 7.5 0 4.142-3.358 7.5-7.5 7.5z" fill="#aa3c31"/></g></g><g><g><path d="m229.985 322.076h-75c-4.142 0-7.5-3.358-7.5-7.5 0-4.142 3.358-7.5 7.5-7.5h75c4.142 0 7.5 3.358 7.5 7.5 0 4.142-3.358 7.5-7.5 7.5z" fill="#bd5a40"/></g></g><g><g><path d="m372.607 296.68h-75c-4.142 0-7.5-3.358-7.5-7.5 0-4.142 3.358-7.5 7.5-7.5h75c4.142 0 7.5 3.358 7.5 7.5 0 4.143-3.358 7.5-7.5 7.5z" fill="#aa3c31"/></g></g><g><g><path d="m432.671 351.829h-45c-4.142 0-7.5-3.358-7.5-7.5 0-4.142 3.358-7.5 7.5-7.5h45c4.142 0 7.5 3.358 7.5 7.5 0 4.143-3.358 7.5-7.5 7.5z" fill="#aa3c31"/></g></g><g><g><path d="m233.522 442.076h-45c-4.142 0-7.5-3.358-7.5-7.5 0-4.142 3.358-7.5 7.5-7.5h45c4.142 0 7.5 3.358 7.5 7.5 0 4.142-3.358 7.5-7.5 7.5z" fill="#bd5a40"/></g></g><g><g><circle cx="251.043" cy="162.219" fill="#aa3c31" r="15"/></g></g><g><g><circle cx="371.043" cy="81.538" fill="#aa3c31" r="15"/></g></g><g><g><circle cx="341.426" cy="447.491" fill="#aa3c31" r="15"/></g></g><g><g><circle cx="132.485" cy="442.076" fill="#bd5a40" r="15"/></g></g><g><g><circle cx="287.809" cy="192.859" fill="#aa3c31" r="10"/></g></g><g><g><circle cx="424.862" cy="291.68" fill="#aa3c31" r="10"/></g></g><g><g><circle cx="211.022" cy="276.91" fill="#bd5a40" r="10"/></g></g><g><g><circle cx="251.043" cy="390.978" fill="#bd5a40" r="10"/></g></g></g></svg>