<svg id="Capa_1" enable-background="new 0 0 512 512" height="512" viewBox="0 0 512 512" width="512" xmlns="http://www.w3.org/2000/svg"><g><g><g><path d="m96.263 452.761h319.385l.03.051c52.236-44.931 85.322-111.505 85.322-185.812 0-135.31-109.69-245-245-245s-245 109.69-245 245c0 74.279 33.06 140.831 85.263 185.761z" fill="#3b6945"/></g></g><g><g><circle cx="256" cy="252" fill="#477d73" r="200"/></g></g><g><g><path d="m256 157.481c5.531-21.586 5.734-45.089-.528-68.459-5.479-20.448-15.296-38.51-28.103-53.376-2.351-2.729-6.82-1.532-7.492 2.007-3.658 19.278-3.129 39.829 2.35 60.277 6.263 23.37 18.191 43.623 33.773 59.551z" fill="#aad963"/></g></g><g><g><path d="m256 157.481c-5.531-21.586-5.734-45.089.528-68.459 5.479-20.448 15.296-38.51 28.103-53.376 2.351-2.729 6.82-1.532 7.492 2.007 3.658 19.278 3.129 39.829-2.35 60.277-6.263 23.37-18.191 43.623-33.773 59.551z" fill="#aad963"/></g></g><g><g><path d="m256 157.481c13.496-23.98 21.25-51.95 21.25-81.827 0-26.142-5.937-50.823-16.462-72.649-1.932-4.007-7.645-4.007-9.577 0-10.525 21.826-16.462 46.508-16.462 72.649.001 29.877 7.755 57.847 21.251 81.827z" fill="#c8ea73"/></g></g><g><g><path d="m96.263 452.761c42.892 36.917 98.706 59.239 159.737 59.239s116.845-22.322 159.737-59.239c22.264-26.414 35.342-58.596 35.342-93.327 0-66.059-47.284-122.911-115.186-148.343-28.876-10.816-49.142-37.053-52.584-67.696-.739-6.579-6.303-11.553-12.924-11.553h-28.77c-6.621 0-12.185 4.974-12.924 11.553-3.443 30.642-23.708 56.88-52.584 67.696-67.902 25.432-115.186 82.284-115.186 148.343 0 34.731 13.078 66.913 35.342 93.327z" fill="#e0e7e3"/></g></g><g><g><path d="m415.737 452.761c-194.195 0-364.942-151.797-288.624-215.351-40.584 29.788-66.192 73.412-66.192 122.024 0 34.731 13.078 66.913 35.342 93.327 42.892 36.917 98.706 59.239 159.737 59.239s116.845-22.322 159.737-59.239z" fill="#d1dad5"/></g></g><g><g><path d="m302.353 216.212c-19.073-17.05-30.84-40.786-32.281-66.328l-1.017-18.041h-26.11l-1.017 18.041c-1.44 25.542-13.207 49.278-32.281 66.328-30.696 27.44-51.56 81.284-51.56 143.223 0 67.13 24.509 124.751 59.479 149.557 12.523 1.972 25.357 3.008 38.434 3.008s25.911-1.036 38.434-3.009c34.97-24.806 59.479-82.427 59.479-149.557 0-61.939-20.864-115.782-51.56-143.222z" fill="#f2f7f4"/></g></g><g><g><path d="m158.093 358.866c0 .19-.006.378-.006.569 0 67.13 24.509 124.751 59.479 149.557 12.523 1.972 25.357 3.008 38.434 3.008s25.911-1.036 38.434-3.009c18.591-13.187 34.224-35.649 44.791-63.882-73.841-14.652-139.045-48.582-181.132-86.243z" fill="#e0e7e3"/></g></g></g></svg>