<svg id="Capa_1" enable-background="new 0 0 512 512" height="512" viewBox="0 0 512 512" width="512" xmlns="http://www.w3.org/2000/svg"><g><g><g><path d="m256 22c-135.31 0-245 109.69-245 245 0 111.929 75.059 206.323 177.588 235.604h134.825c102.528-29.281 177.587-123.675 177.587-235.604 0-135.31-109.69-245-245-245z" fill="#ffcd53"/></g></g><g><g><circle cx="256" cy="282" fill="#ffe47d" r="200"/></g></g><g><g><path d="m488.928 154.766c0-40.243-28.915-73.726-67.102-80.821-6.595-1.225-12.06-5.656-14.715-11.816-10.174-23.603-33.638-40.129-60.973-40.129-5.476 0-10.797.664-15.887 1.916-6.082 1.495-12.549.225-17.407-3.728-15.508-12.62-35.291-20.188-56.844-20.188s-41.336 7.568-56.845 20.188c-4.858 3.953-11.325 5.223-17.407 3.728-5.089-1.252-10.41-1.916-15.886-1.916-27.335 0-50.799 16.526-60.972 40.129-2.655 6.16-8.12 10.59-14.715 11.816-38.187 7.095-67.102 40.579-67.102 80.821 0 24.758 10.945 46.956 28.259 62.028 5.866 5.107 8.262 13.074 6.074 20.538-1.736 5.921-2.669 12.185-2.669 18.668 0 33.62 24.998 61.384 57.418 65.763-.002.207-.016.412-.016.62 0 29.671 24.053 53.723 53.723 53.723 11.113 0 21.437-3.376 30.004-9.157 6.195-4.18 14.287-4.504 20.847-.924 11.671 6.371 25.053 9.998 39.287 9.998s27.616-3.627 39.287-9.998c6.559-3.58 14.652-3.256 20.847.924 8.567 5.781 18.891 9.157 30.004 9.157 29.671 0 53.723-24.053 53.723-53.723 0-.208-.013-.412-.016-.62 32.419-4.38 57.418-32.144 57.418-65.763 0-6.483-.933-12.747-2.669-18.668-2.188-7.464.207-15.431 6.074-20.538 17.314-15.072 28.26-37.27 28.26-62.028z" fill="#477d73"/></g></g><g><g><path d="m181.749 23.916c-5.09-1.252-10.411-1.916-15.887-1.916-27.335 0-50.799 16.526-60.972 40.129-2.655 6.16-8.12 10.59-14.715 11.816-38.187 7.095-67.102 40.579-67.102 80.821 0 24.758 10.945 46.956 28.259 62.028 5.866 5.107 8.262 13.074 6.074 20.538-1.736 5.921-2.669 12.185-2.669 18.668 0 33.62 24.998 61.384 57.418 65.763-.002.207-.016.412-.016.62 0 29.671 24.053 53.723 53.723 53.723 11.113 0 21.437-3.376 30.004-9.157 6.195-4.18 14.287-4.505 20.847-.924 11.671 6.371 25.053 9.998 39.287 9.998s27.616-3.627 39.287-9.998c6.56-3.581 14.652-3.256 20.847.924 8.567 5.781 18.891 9.157 30.004 9.157 29.871 0 54.049-24.38 53.72-54.327-.005-.006-.008-.01-.012-.017-27.688-8.32-40.086-25.162-45.476-36.525-3.198-6.741-9.808-11.227-17.263-11.525-48.653-1.942-68.512-24.957-76.326-39.966-3.637-6.986-11.144-11.101-19.001-10.564-21.59 1.476-40.789-6.754-49.517-24.524-6.861-13.968-5.524-27.23-3.336-35.644 1.524-5.861.21-12.094-3.441-16.924-27.32-36.138-19.067-93.165 13.67-125.903-4.858 3.954-11.326 5.224-17.407 3.729z" fill="#3b6945"/></g></g><g><g><path d="m256.063 211.594c-6.92 0-12.663 5.347-13.157 12.249l-11.389 159.171 24.744 23.986 24.744-23.986-11.788-159.204c-.51-6.888-6.247-12.216-13.154-12.216z" fill="#aad963"/></g></g><g><g><path d="m387.459 228.53c-4.743-4.193-11.938-4.038-16.45.403-37.076 36.487-66.537 74.527-86.356 102.78-13.94 19.872-43.364 19.872-57.304 0-19.819-28.253-49.28-66.294-86.356-102.78-4.512-4.441-11.707-4.596-16.45-.403-4.986 4.408-5.473 12.006-1.093 17.016 26.682 30.521 107.338 136.214 65.175 257.068 21.405 6.111 44.007 9.386 67.375 9.386s45.97-3.275 67.377-9.385c-42.163-120.854 38.493-226.547 65.175-257.068 4.38-5.011 3.892-12.609-1.093-17.017z" fill="#c8ea73"/></g></g><g><g><path d="m256 460.426c-26.172 0-48.322-17.203-55.769-40.918 1.524 26.296-1.544 54.27-11.604 83.108 21.405 6.109 44.006 9.384 67.373 9.384s45.968-3.275 67.373-9.384c-10.06-28.838-13.128-56.812-11.605-83.108-7.446 23.714-29.596 40.918-55.768 40.918z" fill="#aad963"/></g></g><g><g><circle cx="273.345" cy="83.18" fill="#3b6945" r="25"/></g></g><g><g><circle cx="91.07" cy="163.053" fill="#33603b" r="25"/></g></g><g><g><circle cx="326.697" cy="118.414" fill="#3b6945" r="15"/></g></g><g><g><circle cx="432.404" cy="178.053" fill="#3b6945" r="15"/></g></g></g></svg>