<svg id="Capa_1" enable-background="new 0 0 512.003 512.003" height="512" viewBox="0 0 512.003 512.003" width="512" xmlns="http://www.w3.org/2000/svg"><g><g><g><path d="m477.421 342.002 19.437-29.983c2.712-14.593 4.143-29.637 4.143-45.017 0-15.374-1.43-30.411-4.139-45l-19.452-30v-30c-39.323-82.77-123.677-140-221.409-140s-182.086 57.23-221.409 140v30l-19.452 30c-2.709 14.589-4.139 29.626-4.139 45 0 15.38 1.431 30.423 4.143 45.017l19.437 29.983v29.954c8.488 17.869 19.063 34.555 31.429 49.726h49.99l49.989 73.254c12.842 5.075 26.217 9.092 40.016 11.953l49.995-21.76 49.995 21.76c13.799-2.861 27.174-6.878 40.016-11.953l49.989-73.254h49.99c12.367-15.171 22.942-31.857 31.429-49.726v-29.954z" fill="#8ac8f0"/></g></g><g><g><path d="m15.14 222.002h481.722c-3.912-21.071-10.518-41.195-19.452-60h-442.818c-8.934 18.806-15.539 38.929-19.452 60z" fill="#d1dad5"/></g></g><g><g><path d="m34.581 372.002h442.829c8.934-18.805 15.54-38.929 19.452-60h-481.729c3.912 21.071 10.515 41.196 19.448 60z" fill="#d1dad5"/></g></g><g><g><path d="m306.001 43.002v463.89c-16.14 3.35-32.87 5.11-50 5.11s-33.86-1.76-50-5.11v-463.89c0-4.56 2.07-8.87 5.63-11.71l8.31-6.65 26.69-21.35c5.48-4.39 13.26-4.39 18.74 0l26.69 21.35 8.31 6.65c3.56 2.84 5.63 7.15 5.63 11.71z" fill="#f2f7f4"/></g></g><g><g><path d="m274.686 470.964c-12.321-27.951-18.685-58.163-18.685-88.709v-382.255c-3.315 0-6.63 1.097-9.37 3.292l-26.69 21.35-8.31 6.65c-3.56 2.84-5.63 7.15-5.63 11.71v463.89c16.14 3.35 32.87 5.11 50 5.11 12.101 0 23.997-.896 35.633-2.593z" fill="#e0e7e3"/></g></g><g><g><path d="m243.145 266.002h-8.572v-29.714c0-3.945-3.198-7.143-7.143-7.143-3.945 0-7.143 3.198-7.143 7.143v273.115c4.719.689 9.483 1.24 14.286 1.656v-223.628c0-3.945 3.198-7.143 7.143-7.143 3.945 0 7.143 3.198 7.143 7.143v57.274h14.286v-58.702c0-11.046-8.955-20.001-20-20.001z" fill="#e0e7e3"/></g></g><g><g><path d="m234.573 287.431c0-3.945 3.198-7.143 7.143-7.143 3.945 0 7.143 3.198 7.143 7.143v57.274h7.143v-74.013c-3.477-2.923-7.959-4.689-12.857-4.689h-8.572v-29.714c0-3.945-3.198-7.143-7.143-7.143-3.945 0-7.143 3.198-7.143 7.143v273.115c4.719.689 9.483 1.24 14.286 1.656z" fill="#d1dad5"/></g></g><g><g><path d="m234.573 170.574v-157.638l-14.286 11.428v146.209c0 7.89-6.396 14.286-14.286 14.286v14.286c15.78 0 28.572-12.791 28.572-28.571z" fill="#d1dad5"/></g></g><g><g><path d="m306.001 334.862v14.28c-7.89 0-14.29 6.4-14.29 14.29v145.98c-4.72.7-9.48 1.25-14.28 1.66v-498.14l14.28 11.43v296.21c0 7.89 6.4 14.29 14.29 14.29z" fill="#e0e7e3"/></g></g><g><g><path d="m256.001 236.002c3.945 0 7.143-3.198 7.143-7.143v-227.044c-4.449-2.412-9.837-2.412-14.286 0v227.045c.001 3.944 3.199 7.142 7.143 7.142z" fill="#e0e7e3"/></g></g><g><g><path d="m256.001 236.002v-235.996c-2.459 0-4.918.603-7.143 1.809v227.045c.001 3.944 3.198 7.142 7.143 7.142z" fill="#d1dad5"/></g></g><g><g><path d="m256.001 374.705c-3.945 0-7.143 3.198-7.143 7.143v130.044c2.373.068 4.753.111 7.143.111s4.77-.043 7.143-.111v-130.045c0-3.944-3.198-7.142-7.143-7.142z" fill="#e0e7e3"/></g></g><g><g><path d="m263.144 511.891v-74.08c-4.724-18.094-7.143-36.761-7.143-55.557v-7.55c-3.945 0-7.143 3.198-7.143 7.143v130.044c2.373.068 4.753.111 7.143.111 2.39.001 4.77-.043 7.143-.111z" fill="#d1dad5"/></g></g><g><g><path d="m446.001 43.002v378.68c-26.3 32.27-60.66 57.71-100 73.27v-451.95c0-1.28.16-2.54.48-3.75.8-3.11 2.59-5.92 5.15-7.96l35-28c5.48-4.39 13.26-4.39 18.74 0l35 28c3.56 2.84 5.63 7.15 5.63 11.71z" fill="#f2f7f4"/></g></g><g><g><path d="m396.001 382.254v-382.254c-3.315 0-6.63 1.097-9.37 3.292l-35 28c-2.56 2.04-4.35 4.85-5.15 7.96-.32 1.21-.48 2.47-.48 3.75v451.95c23.078-9.128 44.439-21.66 63.468-36.973-8.885-24.223-13.468-49.851-13.468-75.725z" fill="#e0e7e3"/></g></g><g><g><path d="m383.145 266.002c-4.734 0-8.572-3.838-8.572-8.572v-21.142c0-3.945-3.198-7.143-7.143-7.143-3.945 0-7.143 3.198-7.143 7.143v252.457c4.851-2.286 9.615-4.725 14.286-7.313v-194.001c0-3.945 3.198-7.143 7.143-7.143 3.945 0 7.143 3.198 7.143 7.143v57.274h14.286v-58.702c0-11.046-8.955-20.001-20-20.001z" fill="#e0e7e3"/></g></g><g><g><path d="m374.573 287.431c0-3.945 3.198-7.143 7.143-7.143 3.945 0 7.143 3.198 7.143 7.143v57.274h7.143v-74.013c-3.477-2.923-7.959-4.689-12.857-4.689-4.734 0-8.572-3.838-8.572-8.572v-21.142c0-3.945-3.198-7.143-7.143-7.143-3.945 0-7.143 3.198-7.143 7.143v252.457c4.851-2.286 9.615-4.725 14.286-7.313z" fill="#d1dad5"/></g></g><g><g><path d="m374.573 170.574v-157.638l-14.286 11.428v146.209c0 7.89-6.396 14.286-14.286 14.286v14.286c15.78 0 28.572-12.791 28.572-28.571z" fill="#d1dad5"/></g></g><g><g><path d="m446.001 334.862v14.28c-7.89 0-14.29 6.4-14.29 14.29v74.3c-4.57 4.71-9.34 9.24-14.28 13.56v-438.36l14.28 11.43v296.21c0 7.89 6.4 14.29 14.29 14.29z" fill="#e0e7e3"/></g></g><g><g><path d="m396.001 236.002c3.945 0 7.143-3.198 7.143-7.143v-227.044c-4.449-2.412-9.837-2.412-14.286 0v227.045c.001 3.944 3.199 7.142 7.143 7.142z" fill="#e0e7e3"/></g></g><g><g><path d="m396.001 236.002v-235.996c-2.459 0-4.918.603-7.143 1.809v227.045c.001 3.944 3.198 7.142 7.143 7.142z" fill="#d1dad5"/></g></g><g><g><path d="m396.001 374.705c-3.945 0-7.143 3.198-7.143 7.143v91.028c4.884-3.158 9.649-6.483 14.286-9.971v-81.056c0-3.946-3.198-7.144-7.143-7.144z" fill="#e0e7e3"/></g></g><g><g><path d="m403.144 437.812c-4.724-18.094-7.143-36.761-7.143-55.557v-7.55c-3.945 0-7.143 3.198-7.143 7.143v91.028c4.884-3.158 9.649-6.483 14.286-9.971z" fill="#d1dad5"/></g></g><g><g><path d="m166.001 43.002v451.95c-39.34-15.56-73.7-41-100-73.27v-378.68c0-4.56 2.07-8.87 5.63-11.71l35-28c5.48-4.39 13.26-4.39 18.74 0l35 28c2.56 2.04 4.35 4.85 5.15 7.96.32 1.21.48 2.47.48 3.75z" fill="#f2f7f4"/></g></g><g><g><path d="m134.686 470.964c-12.321-27.951-18.685-58.163-18.685-88.709v-382.255c-3.315 0-6.63 1.097-9.37 3.292l-35 28c-3.56 2.84-5.63 7.15-5.63 11.71v378.68c20.302 24.91 45.41 45.745 73.9 61.113z" fill="#e0e7e3"/></g></g><g><g><path d="m103.144 266.002h-8.572v-29.714c0-3.945-3.198-7.143-7.143-7.143-3.945 0-7.143 3.198-7.143 7.143v201.423c4.579 4.713 9.343 9.244 14.286 13.577v-163.857c0-3.945 3.198-7.143 7.143-7.143 3.945 0 7.143 3.198 7.143 7.143v57.274h14.286v-58.702c0-11.046-8.954-20.001-20-20.001z" fill="#e0e7e3"/></g></g><g><g><path d="m94.573 451.288v-163.857c0-3.945 3.198-7.143 7.143-7.143 3.945 0 7.143 3.198 7.143 7.143v57.274h7.143v-74.013c-3.477-2.923-7.959-4.69-12.857-4.69h-8.572v-29.714c0-3.945-3.198-7.143-7.143-7.143-3.945 0-7.143 3.198-7.143 7.143v201.423c4.579 4.712 9.343 9.243 14.286 13.577z" fill="#d1dad5"/></g></g><g><g><path d="m94.573 170.574v-157.638l-14.286 11.429v146.209c0 7.89-6.396 14.286-14.286 14.286v14.286c15.78-.001 28.572-12.792 28.572-28.572z" fill="#d1dad5"/></g></g><g><g><path d="m166.001 334.862v14.28c-7.89 0-14.29 6.4-14.29 14.29v125.33c-4.85-2.29-9.61-4.72-14.28-7.32v-468.51l14.28 11.43v296.21c0 7.89 6.4 14.29 14.29 14.29z" fill="#e0e7e3"/></g></g><g><g><path d="m116.001 236.002c3.945 0 7.143-3.198 7.143-7.143v-227.044c-4.449-2.412-9.837-2.412-14.286 0v227.045c0 3.944 3.198 7.142 7.143 7.142z" fill="#e0e7e3"/></g></g><g><g><path d="m116.001 236.002v-235.997c-2.459 0-4.918.603-7.143 1.809v227.045c0 3.945 3.198 7.143 7.143 7.143z" fill="#d1dad5"/></g></g><g><g><path d="m116.001 374.705c-3.945 0-7.143 3.198-7.143 7.143v81.056c4.637 3.488 9.402 6.813 14.286 9.972v-91.028c0-3.945-3.198-7.143-7.143-7.143z" fill="#e0e7e3"/></g></g><g><g><path d="m123.144 437.811c-4.724-18.094-7.143-36.76-7.143-55.556v-7.55c-3.945 0-7.143 3.198-7.143 7.143v81.056c4.637 3.488 9.402 6.813 14.286 9.972z" fill="#d1dad5"/></g></g><g><g><circle cx="256.001" cy="192.002" fill="#d1dad5" r="15"/></g></g><g><g><circle cx="396.001" cy="192.002" fill="#d1dad5" r="15"/></g></g><g><g><circle cx="256.001" cy="342.002" fill="#d1dad5" r="15"/></g></g><g><g><circle cx="116.001" cy="192.002" fill="#d1dad5" r="15"/></g></g><g><g><path d="m116.001 207.002v-30c-8.284 0-15 6.716-15 15s6.716 15 15 15z" fill="#c0c9c3"/></g></g><g><g><circle cx="116.001" cy="342.002" fill="#d1dad5" r="15"/></g></g><g><g><path d="m116.001 357.002v-30c-8.284 0-15 6.716-15 15s6.716 15 15 15z" fill="#c0c9c3"/></g></g><g><g><circle cx="396.001" cy="342.002" fill="#d1dad5" r="15"/></g></g><g><g><path d="m256.001 207.002v-30c-8.284 0-15 6.716-15 15s6.716 15 15 15z" fill="#c0c9c3"/></g></g><g><g><path d="m256.001 357.002v-30c-8.284 0-15 6.716-15 15s6.716 15 15 15z" fill="#c0c9c3"/></g></g><g><g><path d="m396.001 207.002v-30c-8.284 0-15 6.716-15 15s6.716 15 15 15z" fill="#c0c9c3"/></g></g><g><g><path d="m396.001 357.002v-30c-8.284 0-15 6.716-15 15s6.716 15 15 15z" fill="#c0c9c3"/></g></g></g></svg>