<svg id="Capa_1" enable-background="new 0 0 512 512" height="512" viewBox="0 0 512 512" width="512" xmlns="http://www.w3.org/2000/svg"><g><g><g><path d="m86.014 443.42h339.971c46.241-44.565 75.015-107.129 75.015-176.42 0-135.31-109.69-245-245-245s-245 109.69-245 245c0 69.291 28.774 131.855 75.014 176.42z" fill="#ffcd53"/></g></g><g><g><circle cx="256" cy="292" fill="#ffe47d" r="200"/></g></g><g><g><path d="m212.667 332h106.667v73.333h-106.667z" fill="#d1dad5"/></g></g><g><g><path d="m232.667 352v-20h-20v73.333h106.667v-20h-53.334c-18.41 0-33.333-14.924-33.333-33.333z" fill="#c0c9c3"/></g></g><g><g><path d="m256 237-55 15 15.319 80h79.362l15.319-80z" fill="#477d73"/></g></g><g><g><path d="m201 252 15.319 80h40l-17.304-90.368z" fill="#3b6945"/></g></g><g><g><path d="m248.5 95.583h15v141.417h-15z" fill="#e0e7e3"/></g></g><g><g><path d="m56 75.583h400v40h-400z" fill="#bd5a40"/></g></g><g><g><path d="m303.38 95.583c0-11.046 8.954-20 20-20h-267.38v40h267.38c-11.046 0-20-8.954-20-20z" fill="#aa3c31"/></g></g><g><g><g><path d="m269.629 125.757c-3.587 2.071-8.174.842-10.245-2.745l-27.342-47.359c-2.071-3.587-.842-8.174 2.745-10.245 3.587-2.071 8.174-.842 10.245 2.745l27.342 47.359c2.071 3.587.842 8.174-2.745 10.245z" fill="#fff"/></g></g><g><g><path d="m237.284 125.757c-3.587 2.071-8.174.842-10.245-2.745l-27.342-47.359c-2.071-3.587-.842-8.174 2.745-10.245 3.587-2.071 8.174-.842 10.245 2.745l27.342 47.359c2.071 3.587.842 8.174-2.745 10.245z" fill="#fff"/></g></g><g><g><path d="m204.939 125.757c-3.587 2.071-8.174.842-10.245-2.745l-27.342-47.359c-2.071-3.587-.842-8.174 2.745-10.245 3.587-2.071 8.174-.842 10.245 2.745l27.342 47.359c2.071 3.587.842 8.174-2.745 10.245z" fill="#fff"/></g></g><g><g><path d="m172.594 125.757c-3.587 2.071-8.174.842-10.245-2.745l-27.342-47.359c-2.071-3.587-.842-8.174 2.745-10.245 3.587-2.071 8.174-.842 10.245 2.745l27.342 47.359c2.071 3.587.842 8.174-2.745 10.245z" fill="#fff"/></g></g></g><g><g><path d="m21 195.583h35v20h-35c-5.523 0-10-4.477-10-10 0-5.523 4.477-10 10-10z" fill="#bd5a40"/></g></g><g><g><path d="m46 215.583v-140c0-5.523 4.477-10 10-10 5.523 0 10 4.477 10 10v140c0 5.523-4.477 10-10 10-5.523 0-10-4.477-10-10z" fill="#d0794e"/></g></g><g><g><path d="m466 115.583v-40c0-5.523-4.477-10-10-10-5.523 0-10 4.477-10 10v40c0 5.523 4.477 10 10 10 5.523 0 10-4.477 10-10z" fill="#d0794e"/></g></g><g><g><path d="m212.667 508.179c14.065 2.51 28.546 3.821 43.333 3.821s29.268-1.311 43.333-3.821v-49.512h-86.667v49.512z" fill="#d1dad5"/></g></g><g><g><path d="m299.333 492h-33.333c-18.409 0-33.333-14.924-33.333-33.333h-20v49.513c14.065 2.509 28.546 3.82 43.333 3.82s29.268-1.311 43.333-3.821z" fill="#c0c9c3"/></g></g><g><g><path d="m342.667 405.333h63.333v53.333h-63.333z" fill="#d1dad5"/></g></g><g><g><path d="m106 405.333h63.333v53.333h-63.333z" fill="#d1dad5"/></g></g><g><g><path d="m362.667 405.334h-20v33.333h-236.667v20h300v-20h-10c-18.409 0-33.333-14.924-33.333-33.333z" fill="#c0c9c3"/></g></g><g><g><path d="m106 332h106.667v73.333h-106.667z" fill="#f2f7f4"/></g></g><g><g><path d="m146 352v-20h-40v73.333h106.667v-20h-33.333c-18.41 0-33.334-14.924-33.334-33.333z" fill="#e0e7e3"/></g></g><g><g><path d="m299.333 332h106.667v73.333h-106.667z" fill="#f2f7f4"/></g></g><g><g><path d="m319.333 352v-20h-20v73.333h106.667v-20h-53.333c-18.41 0-33.334-14.924-33.334-33.333z" fill="#e0e7e3"/></g></g><g><g><path d="m125.895 474.595c26.041 16.359 55.36 27.978 86.772 33.584v-49.512h-102.7z" fill="#f2f7f4"/></g></g><g><g><path d="m146 458.667h-20v15.992c26.015 16.325 55.297 27.922 86.667 33.52v-16.179h-33.333c-18.41 0-33.334-14.924-33.334-33.333z" fill="#e0e7e3"/></g></g><g><g><path d="m402.033 458.667h-102.7v49.512c31.412-5.606 60.731-17.225 86.772-33.584z" fill="#f2f7f4"/></g></g><g><g><path d="m299.333 458.667v49.512c18.74-3.344 36.734-8.833 53.739-16.179h-.405c-18.409 0-33.333-14.924-33.333-33.333z" fill="#e0e7e3"/></g></g><g><g><path d="m106 312h300v40h-300z" fill="#fff"/></g></g><g><g><path d="m192.667 332c0-11.046 8.954-20 20-20h-106.667v40h106.667c-11.046 0-20-8.954-20-20z" fill="#f2f7f4"/></g></g><g><g><path d="m426 20v423.42c-12.19 11.75-25.59 22.25-40 31.28v-454.7c0-11.05 8.95-20 20-20 5.52 0 10.52 2.24 14.14 5.86s5.86 8.62 5.86 14.14z" fill="#d0794e"/></g></g><g><g><path d="m126 20v454.7c-14.41-9.03-27.81-19.53-40-31.28v-423.42c0-11.05 8.95-20 20-20 5.52 0 10.52 2.24 14.14 5.86s5.86 8.62 5.86 14.14z" fill="#d0794e"/></g></g><g><g><path d="m169.333 405.333h86.667v53.333h-86.667z" fill="#f2f7f4"/></g></g><g><g><path d="m189.333 405.334h-20v53.333h86.667v-20h-33.333c-18.41 0-33.334-14.924-33.334-33.333z" fill="#e0e7e3"/></g></g><g><g><path d="m256 405.333h86.667v53.333h-86.667z" fill="#f2f7f4"/></g></g><g><g><path d="m276 405.333h-20v53.333h86.667v-20h-33.333c-18.41.001-33.334-14.923-33.334-33.333z" fill="#e0e7e3"/></g></g><g><g><path d="m311 252h-110c-8.284 0-15-6.716-15-15 0-8.284 6.716-15 15-15h110c8.284 0 15 6.716 15 15 0 8.284-6.716 15-15 15z" fill="#69b76b"/></g></g><g><g><path d="m226 237c0-8.284 6.716-15 15-15h-40c-8.284 0-15 6.716-15 15s6.716 15 15 15h40c-8.284 0-15-6.716-15-15z" fill="#477d73"/></g></g><g><g><path d="m106 372c-11.046 0-20-8.954-20-20v91.42c12.19 11.75 25.59 22.25 40 31.28v-122.7c0 11.046-8.954 20-20 20z" fill="#bd5a40"/></g></g><g><g><path d="m406 371.871c-11.046 0-20-8.954-20-20v122.829c14.41-9.03 27.81-19.53 40-31.28v-91.549c0 11.045-8.954 20-20 20z" fill="#bd5a40"/></g></g></g></svg>