<svg id="Capa_1" enable-background="new 0 0 512 512" height="512" viewBox="0 0 512 512" width="512" xmlns="http://www.w3.org/2000/svg"><g><g><g><path d="m245 11c-108.521 0-200.547 70.563-232.739 168.305v62.328l-10.444 44.248c14.741 121.214 117.99 215.119 243.183 215.119 135.31 0 245-109.69 245-245s-109.69-245-245-245z" fill="#3b6945"/></g></g><g><g><path d="m205.585 436.873v-109.434l284.528 21.887v65.66z" fill="#63ace8"/></g></g><g><g><path d="m414.831 343.535-209.246-16.096v109.434l209.246-16.096c-17.813-3.831-31.167-19.663-31.167-38.621s13.354-34.79 31.167-38.621z" fill="#3c90df"/></g></g><g><g><path d="m468.226 420.458v-76.604c0-12.088 9.799-21.887 21.887-21.887 12.088 0 21.887 9.799 21.887 21.887v76.604c0 12.088-9.799 21.887-21.887 21.887-12.088 0-21.887-9.799-21.887-21.887z" fill="#b1e4f9"/></g></g><g><g><path d="m490.113 398.571c-12.088 0-21.887-9.799-21.887-21.887v43.774c0 12.088 9.799 21.887 21.887 21.887s21.887-9.799 21.887-21.887v-43.774c0 12.088-9.799 21.887-21.887 21.887z" fill="#8ac8f0"/></g></g><g><g><path d="m238.212 429.418-191.14-191.14h-46.416c-.424 5.854-.656 11.76-.656 17.722 0 10.117.626 20.086 1.817 29.881l189.966 189.966c12.821 12.821 33.608 12.821 46.429 0 12.821-12.821 12.821-33.607 0-46.429z" fill="#63ace8"/></g></g><g><g><path d="m.656 238.278c-.424 5.854-.656 11.76-.656 17.722 0 10.117.626 20.086 1.817 29.881l42.941 42.941c-12.821-12.821-12.821-33.608 0-46.429s33.608-12.821 46.429 0l-44.116-44.116h-46.415z" fill="#3c90df"/></g></g><g><g><path d="m178.67 63.363-55.869 55.869c-29.666 29.666-67.16 50.278-108.103 59.428-.822.184-1.634.401-2.436.644-6.179 18.76-10.156 38.517-11.619 58.973l237.787 237.788c13.246 13.246 34.722 13.246 47.968 0 4.552-4.552 7.714-10.304 9.118-16.586 9.151-40.943 29.763-78.438 59.428-108.103l55.869-55.869-100.595-131.548z" fill="#8ac8f0"/></g></g><g><g><path d="m122.801 119.232c-29.666 29.666-67.16 50.277-108.103 59.428-.822.184-1.634.401-2.436.644-6.179 18.76-10.156 38.517-11.619 58.973l43.898 43.898c-13.246-13.246-13.246-34.722 0-47.968 4.552-4.552 10.304-7.714 16.586-9.118 40.943-9.151 78.438-29.763 108.103-59.428l62.06-62.06-52.62-40.238z" fill="#63ace8"/></g></g><g><g><path d="m410.814 295.507-232.144-232.144c-8.547-8.547-8.547-22.405 0-30.953 8.547-8.547 22.405-8.547 30.953 0l232.144 232.144c8.547 8.547 8.547 22.405 0 30.953-8.548 8.548-22.406 8.548-30.953 0z" fill="#b1e4f9"/></g></g><g><g><path d="m225.098 78.839c8.547-8.547 22.405-8.547 30.953 0l-46.429-46.429c-8.547-8.547-22.405-8.547-30.953 0-8.547 8.547-8.547 22.405 0 30.953l46.429 46.429c-8.547-8.547-8.547-22.405 0-30.953z" fill="#8ac8f0"/></g></g><g><g><path d="m364.385 341.936-232.144-232.144c-8.547-8.547-8.547-22.405 0-30.953 8.547-8.547 22.405-8.547 30.953 0l232.144 232.144c8.547 8.547 8.547 22.405 0 30.953-8.548 8.548-22.406 8.548-30.953 0z" fill="#b1e4f9"/></g></g><g><g><path d="m178.67 125.268c8.547-8.547 22.405-8.547 30.953 0l-46.429-46.429c-8.547-8.547-22.405-8.547-30.953 0-8.547 8.547-8.547 22.405 0 30.953l46.429 46.429c-8.548-8.548-8.548-22.406 0-30.953z" fill="#8ac8f0"/></g></g><g><g><path d="m419.013 148.022-123.81 123.81c-8.547 8.547-22.405 8.547-30.953 0-8.547-8.547-8.547-22.405 0-30.953l123.81-123.81c8.547-8.547 8.547-22.405 0-30.953-8.547-8.547-22.405-8.547-30.953 0l-46.89 46.89-30.953-30.953 46.89-46.89c25.642-25.642 67.216-25.642 92.858 0 25.643 25.643 25.643 67.217.001 92.859z" fill="#63ace8"/></g></g><g><g><path d="m388.06 55.164c8.547-8.547 22.405-8.547 30.953 0-25.642-25.642-67.216-25.642-92.858 0l-46.89 46.89 30.953 30.953 46.89-46.89c8.547-8.547 22.405-8.547 30.953 0-8.548-8.548-8.548-22.406-.001-30.953z" fill="#3c90df"/></g></g></g></svg>