<svg id="Capa_1" enable-background="new 0 0 512 512" height="512" viewBox="0 0 512 512" width="512" xmlns="http://www.w3.org/2000/svg"><g><g><g><path d="m446 421.668c34.377-42.179 55-96.012 55-154.668 0-135.31-109.69-245-245-245s-245 109.69-245 245c0 58.656 20.623 112.489 55 154.668z" fill="#fe5653"/></g></g><g><g><circle cx="256" cy="257" fill="#fe6d68" r="200"/></g></g><g><g><path d="m205.245 51.628v-21.628l-42.772-15-42.773 15v21.628c0 21.303-6.213 42.143-17.878 59.968-11.665 17.825-17.878 38.665-17.878 59.968v125.436h157.056v-125.436c0-21.303-6.213-42.143-17.878-59.968-11.664-17.825-17.877-38.666-17.877-59.968z" fill="#b1e4f9"/></g></g><g><g><path d="m141.823 111.596c11.664-17.825 17.877-38.666 17.877-59.968v-35.656l-40 14.028v21.628c0 21.303-6.213 42.143-17.878 59.968s-17.878 38.665-17.878 59.968v125.436h40v-125.436c.001-21.303 6.214-42.143 17.879-59.968z" fill="#8ac8f0"/></g></g><g><g><path d="m210.57 119.809c10.095 15.425 15.43 33.321 15.43 51.754v110.437h-127.055v-110.436c0-18.434 5.335-36.33 15.429-51.755z" fill="#f2f7f4"/></g></g><g><g><path d="m123.945 171.564c0-18.111 4.506-35.881 13.02-51.755h-22.591c-10.094 15.425-15.429 33.321-15.429 51.755v110.436h25z" fill="#e0e7e3"/></g></g><g><g><path d="m207.472 30h-90c-8.284 0-15-6.716-15-15 0-8.284 6.716-15 15-15h90c8.284 0 15 6.716 15 15 0 8.284-6.715 15-15 15z" fill="#8ac8f0"/></g></g><g><g><path d="m142.472 15c0-8.284 6.716-15 15-15h-40c-8.284 0-15 6.716-15 15s6.716 15 15 15h40c-8.284 0-15-6.716-15-15z" fill="#63ace8"/></g></g><g><g><path d="m204.972 60h-85c-4.142 0-7.5-3.358-7.5-7.5 0-4.142 3.358-7.5 7.5-7.5h85c4.142 0 7.5 3.358 7.5 7.5 0 4.142-3.357 7.5-7.5 7.5z" fill="#8ac8f0"/></g></g><g><g><path d="m119.972 45c-4.142 0-7.5 3.358-7.5 7.5s3.358 7.5 7.5 7.5h39.401c.213-2.779.327-5.571.327-8.372v-6.628z" fill="#63ace8"/></g></g><g><g><path d="m392.3 51.628v-21.628l-42.772-15-42.772 15v21.628c0 21.303-6.213 42.143-17.878 59.968-11.665 17.825-17.878 38.665-17.878 59.968v125.436h157.055v-125.436c0-21.303-6.213-42.143-17.878-59.968-11.664-17.825-17.877-38.666-17.877-59.968z" fill="#b1e4f9"/></g></g><g><g><path d="m328.878 111.596c11.665-17.825 17.878-38.665 17.878-59.968v-35.656l-40 14.028v21.628c0 21.303-6.213 42.143-17.878 59.968s-17.878 38.665-17.878 59.968v125.436h40v-125.436c0-21.303 6.213-42.143 17.878-59.968z" fill="#8ac8f0"/></g></g><g><g><path d="m397.625 119.809c10.095 15.425 15.43 33.321 15.43 51.754v110.437h-127.055v-110.436c0-18.434 5.335-36.33 15.429-51.755z" fill="#f2f7f4"/></g></g><g><g><path d="m311 171.564c0-18.111 4.506-35.881 13.02-51.755h-22.591c-10.094 15.425-15.429 33.321-15.429 51.755v110.436h25z" fill="#e0e7e3"/></g></g><g><g><path d="m394.528 30h-90c-8.284 0-15-6.716-15-15 0-8.284 6.716-15 15-15h90c8.284 0 15 6.716 15 15 0 8.284-6.716 15-15 15z" fill="#8ac8f0"/></g></g><g><g><path d="m329.528 15c0-8.284 6.716-15 15-15h-40c-8.284 0-15 6.716-15 15s6.716 15 15 15h40c-8.285 0-15-6.716-15-15z" fill="#63ace8"/></g></g><g><g><path d="m392.028 60h-85c-4.142 0-7.5-3.358-7.5-7.5 0-4.142 3.358-7.5 7.5-7.5h85c4.142 0 7.5 3.358 7.5 7.5 0 4.142-3.358 7.5-7.5 7.5z" fill="#8ac8f0"/></g></g><g><g><path d="m307.028 45c-4.142 0-7.5 3.358-7.5 7.5s3.358 7.5 7.5 7.5h39.401c.213-2.779.327-5.571.327-8.372v-6.628z" fill="#63ace8"/></g></g><g><g><path d="m66 297v124.668c20.801 25.522 46.646 46.763 76.006 62.229h37.994l37.966 25.143c12.397 1.934 25.094 2.96 38.034 2.96s25.637-1.026 38.034-2.959l37.966-25.144h37.994c29.36-15.466 55.205-36.708 76.006-62.229v-124.668z" fill="#bd5a40"/></g></g><g><g><path d="m66 297v118c0-20.987 17.013-38 38-38s38 17.013 38 38h76c0-20.987 17.013-38 38-38s38 17.013 38 38h76c0-20.987 17.013-38 38-38s38 17.013 38 38v-118z" fill="#aa3c31"/></g></g><g><g><path d="m142 483.897c23.361 12.304 48.944 20.952 76 25.166v-212.063h-76z" fill="#aa3c31"/></g></g><g><g><path d="m294 509.063c27.056-4.213 52.639-12.862 76-25.166v-186.897h-76z" fill="#aa3c31"/></g></g><g><g><path d="m142 297v118c0-20.987 17.013-38 38-38 20.987 0 38 17.013 38 38v-118z" fill="#962e29"/></g></g><g><g><path d="m294 297v118c0-20.987 17.013-38 38-38 20.987 0 38 17.013 38 38v-118z" fill="#962e29"/></g></g><g><g><path d="m446 337h-380c-11.046 0-20-8.954-20-20v-40c0-11.046 8.954-20 20-20h380c11.046 0 20 8.954 20 20v40c0 11.046-8.954 20-20 20z" fill="#d0794e"/></g></g><g><g><path d="m122 317v-40c0-11.046 8.954-20 20-20h-76c-11.046 0-20 8.954-20 20v40c0 11.046 8.954 20 20 20h76c-11.046 0-20-8.954-20-20z" fill="#bd5a40"/></g></g><g><g><path d="m217.853 281c0 4.418 3.582 8 8 8h240.147v-12c0-1.37-.139-2.707-.402-4h-239.745c-4.418 0-8 3.582-8 8z" fill="#bd5a40"/></g></g><g><g><path d="m196 305c-4.418 0-8-3.582-8-8 0-13.255-10.745-24-24-24h-117.598c-.262 1.293-.402 2.63-.402 4v12h118c4.418 0 8 3.582 8 8s-3.582 8-8 8h-118v12c0 1.37.139 2.707.402 4h419.197c.262-1.293.402-2.63.402-4v-12z" fill="#bd5a40"/></g></g><g><g><g><path d="m46.399 320.981c.001.006.002.012.003.019h76c-.262-1.293-.402-2.63-.402-4v-12h-76v12c0 .685.035 1.362.103 2.03.066.66.166 1.311.296 1.951z" fill="#aa3c31"/></g></g><g><g><path d="m122 277c0-1.37.139-2.707.402-4h-76c-.001.006-.002.012-.003.019-.129.64-.229 1.291-.296 1.952-.068.667-.103 1.344-.103 2.029v12h76z" fill="#aa3c31"/></g></g></g><g><g><circle cx="86" cy="297" fill="#962e29" r="12.5"/></g></g><g><g><circle cx="426" cy="297" fill="#aa3c31" r="12.5"/></g></g></g></svg>