<svg id="Capa_1" enable-background="new 0 0 512 512" height="512" viewBox="0 0 512 512" width="512" xmlns="http://www.w3.org/2000/svg"><g><g><g><path d="m256 22c-135.31 0-245 109.69-245 245 0 119.109 85.001 218.349 197.649 240.41l47.351-16.07 47.351 16.07c112.648-22.061 197.649-121.301 197.649-240.41 0-135.31-109.69-245-245-245z" fill="#aad963"/></g></g><g><g><circle cx="256" cy="252" fill="#c8ea73" r="200"/></g></g><g><g><g><path d="m256 0c-57.25 0-142.054 91.297-142.054 203.189v114.487c0 26.151 21.2 47.351 47.351 47.351 30.173 0 57.784 16.963 71.422 43.878l11.443 22.584h23.676l11.443-22.584c13.638-26.915 41.248-43.878 71.422-43.878 26.151 0 47.351-21.2 47.351-47.351v-114.487c0-111.892-84.804-203.189-142.054-203.189z" fill="#f2f7f4"/></g></g><g><g><path d="m256 0c-57.25 0-142.054 91.297-142.054 203.189v114.487c0 26.151 21.2 47.351 47.351 47.351 30.173 0 57.784 16.963 71.422 43.878l11.443 22.584h11.838v-96.462h-51.553c-9.941 0-18-8.059-18-18v-113.472c0-101.148 69.553-173.555 69.553-173.555-8.284 0-15-6.716-15-15s6.716-15 15-15z" fill="#e0e7e3"/></g></g><g><g><path d="m161.297 335.027c-9.568 0-17.352-7.784-17.352-17.352v-114.486c0-43.855 15.791-89.505 43.324-125.246 25.377-32.94 53.417-47.943 68.731-47.943s43.354 15.003 68.729 47.943c27.533 35.741 43.324 81.391 43.324 125.246v114.486c0 9.568-7.783 17.352-17.351 17.352-39.28 0-150.124 0-189.405 0z" fill="#e0e7e3"/></g></g><g><g><path d="m256 30c-15.314 0-43.354 15.003-68.73 47.943-27.533 35.741-43.324 81.391-43.324 125.246v114.486c0 9.568 7.784 17.352 17.352 17.352h64.651c-41.218-72.064-44.107-207.696 30.051-305.027z" fill="#d1dad5"/></g></g><g><g><path d="m256 243.351c-9.804 0-17.081 14.67-22.404 33.822-13.228 47.591-7.743 98.446 14.583 142.508l5.983 11.808h3.676l5.983-11.809c22.326-44.062 27.811-94.916 14.583-142.507-5.323-19.152-12.6-33.822-22.404-33.822z" fill="#c0c9c3"/></g></g><g><g><path d="m291.514 455.165h-71.027v-29.595c0-9.807 7.95-17.757 17.757-17.757h35.513c9.807 0 17.757 7.95 17.757 17.757z" fill="#d0794e"/></g></g><g><g><path d="m268.243 407.813h-30c-9.807 0-17.757 7.95-17.757 17.757v29.595h30v-29.595c.001-9.807 7.95-17.757 17.757-17.757z" fill="#bd5a40"/></g></g><g><g><path d="m291.514 443.327h-71.027c-6.538 0-11.838 5.3-11.838 11.838v52.246c15.322 3.001 31.15 4.59 47.351 4.59s32.029-1.589 47.351-4.59v-52.246c0-6.538-5.3-11.838-11.837-11.838z" fill="#bd5a40"/></g></g><g><g><path d="m208.649 455.165v52.246c9.804 1.92 19.815 3.257 30 3.97v-56.216c0-6.538 5.3-11.838 11.838-11.838h-30c-6.538 0-11.838 5.3-11.838 11.838z" fill="#aa3c31"/></g></g></g></g></svg>