<svg id="Capa_1" enable-background="new 0 0 512 512" height="512" viewBox="0 0 512 512" width="512" xmlns="http://www.w3.org/2000/svg"><g><g><g><path d="m256 22c-135.31 0-245 109.69-245 245 0 126.87 96.434 231.216 220 243.74l25-16.846 25 16.846c123.567-12.524 220-116.87 220-243.74 0-135.31-109.69-245-245-245z" fill="#ffcd53"/></g></g><g><g><circle cx="256" cy="282" fill="#ffe47d" r="200"/></g></g><g><g><path d="m231 510.74c8.22.833 16.56 1.26 25 1.26s16.78-.427 25-1.26v-170.74h-50z" fill="#bd5a40"/></g></g><g><g><path d="m231 340v105c0-13.807 11.193-25 25-25 13.807 0 25 11.193 25 25v-105z" fill="#aa3c31"/></g></g><g><g><path d="m296 260h-80v85c0 8.284 6.716 15 15 15h50c8.284 0 15-6.716 15-15z" fill="#d0794e"/></g></g><g><g><path d="m256 345v-85h-40v85c0 8.284 6.716 15 15 15h40c-8.284 0-15-6.716-15-15z" fill="#bd5a40"/></g></g><g><g><path d="m69.25 0c7.318 0 13.25 5.932 13.25 13.25v176.75l-26.5-30v-146.75c0-7.318 5.932-13.25 13.25-13.25z" fill="#e0e7e3"/></g></g><g><g><path d="m69.25 107.314c-7.318 0-13.25-5.932-13.25-13.25v65.936l26.5 30v-95.936c0 7.318-5.932 13.25-13.25 13.25z" fill="#d1dad5"/></g></g><g><g><path d="m110.75 0c7.318 0 13.25 5.932 13.25 13.25v176.75h-26.5v-176.75c0-7.318 5.932-13.25 13.25-13.25z" fill="#e0e7e3"/></g></g><g><g><path d="m152.25 0c7.318 0 13.25 5.932 13.25 13.25v176.75h-26.5v-176.75c0-7.318 5.932-13.25 13.25-13.25z" fill="#e0e7e3"/></g></g><g><g><path d="m193.75 0c7.318 0 13.25 5.932 13.25 13.25v176.75h-26.5v-176.75c0-7.318 5.932-13.25 13.25-13.25z" fill="#e0e7e3"/></g></g><g><g><path d="m235.25 0c7.318 0 13.25 5.932 13.25 13.25v176.75h-26.5v-176.75c0-7.318 5.932-13.25 13.25-13.25z" fill="#e0e7e3"/></g></g><g><g><path d="m276.75 0c7.318 0 13.25 5.932 13.25 13.25v176.75h-26.5v-176.75c0-7.318 5.932-13.25 13.25-13.25z" fill="#e0e7e3"/></g></g><g><g><path d="m318.25 0c7.318 0 13.25 5.932 13.25 13.25v176.75h-26.5v-176.75c0-7.318 5.932-13.25 13.25-13.25z" fill="#e0e7e3"/></g></g><g><g><path d="m359.75 0c7.318 0 13.25 5.932 13.25 13.25v176.75h-26.5v-176.75c0-7.318 5.932-13.25 13.25-13.25z" fill="#e0e7e3"/></g></g><g><g><path d="m359.75 107.314c-7.318 0-13.25-5.932-13.25-13.25v95.936h26.5v-95.936c0 7.318-5.932 13.25-13.25 13.25z" fill="#d1dad5"/></g></g><g><g><path d="m401.25 0c7.318 0 13.25 5.932 13.25 13.25v176.75h-26.5v-176.75c0-7.318 5.932-13.25 13.25-13.25z" fill="#e0e7e3"/></g></g><g><g><path d="m401.25 107.314c-7.318 0-13.25-5.932-13.25-13.25v95.936h26.5v-95.936c0 7.318-5.932 13.25-13.25 13.25z" fill="#d1dad5"/></g></g><g><g><path d="m442.75 0c7.318 0 13.25 5.932 13.25 13.25v146.75l-26.5 30v-176.75c0-7.318 5.932-13.25 13.25-13.25z" fill="#e0e7e3"/></g></g><g><g><path d="m442.75 107.314c7.318 0 13.25-5.932 13.25-13.25v65.936l-26.5 30v-95.936c0 7.318 5.932 13.25 13.25 13.25z" fill="#d1dad5"/></g></g><g><g><path d="m318.25 107.314c-7.318 0-13.25-5.932-13.25-13.25v95.936h26.5v-95.936c0 7.318-5.932 13.25-13.25 13.25z" fill="#d1dad5"/></g></g><g><g><path d="m276.75 107.314c-7.318 0-13.25-5.932-13.25-13.25v95.936h26.5v-95.936c0 7.318-5.932 13.25-13.25 13.25z" fill="#d1dad5"/></g></g><g><g><path d="m235.25 107.314c-7.318 0-13.25-5.932-13.25-13.25v95.936h26.5v-95.936c0 7.318-5.932 13.25-13.25 13.25z" fill="#d1dad5"/></g></g><g><g><path d="m193.75 107.314c-7.318 0-13.25-5.932-13.25-13.25v95.936h26.5v-95.936c0 7.318-5.932 13.25-13.25 13.25z" fill="#d1dad5"/></g></g><g><g><path d="m152.25 107.314c-7.318 0-13.25-5.932-13.25-13.25v95.936h26.5v-95.936c0 7.318-5.932 13.25-13.25 13.25z" fill="#d1dad5"/></g></g><g><g><path d="m110.75 107.314c-7.318 0-13.25-5.932-13.25-13.25v95.936h26.5v-95.936c0 7.318-5.932 13.25-13.25 13.25z" fill="#d1dad5"/></g></g><g><g><path d="m56 160v12.919c0 16.356 9.958 31.065 25.144 37.139l74.856 29.942 100 20 100-20 74.856-29.942c15.186-6.075 25.144-20.783 25.144-37.139v-12.919z" fill="#f2f7f4"/></g></g><g><g><path d="m239 240-74.856-29.942c-15.186-6.075-25.144-20.783-25.144-37.139v-12.919h-83v12.919c0 16.356 9.958 31.065 25.144 37.139l74.856 29.942 83 16.6z" fill="#e0e7e3"/></g></g><g><g><path d="m336 280h-160c-11.046 0-20-8.954-20-20v-20h200v20c0 11.046-8.954 20-20 20z" fill="#e0e7e3"/></g></g><g><g><path d="m239 260v-20h-83v20c0 11.046 8.954 20 20 20h83c-11.046 0-20-8.954-20-20z" fill="#d1dad5"/></g></g></g></svg>