<svg id="Capa_1" enable-background="new 0 0 512.5 512.5" height="512" viewBox="0 0 512.5 512.5" width="512" xmlns="http://www.w3.org/2000/svg"><g><g><g><path d="m463.459 398.26c23.929-37.839 37.791-82.678 37.791-130.76 0-135.31-109.69-245-245-245s-245 109.69-245 245c0 48.082 13.862 92.921 37.791 130.76z" fill="#aad963"/></g></g><g><g><path d="m126.224 475.184h260.051c31.129-19.532 57.556-45.868 77.194-76.924l-20.93-289.89-.31-4.28-34.15-48.17-50.32-11.47-96.05-21.89-5.46-1.24-5.46 1.24-96.05 21.89-50.32 11.47-34.15 48.17-.31 4.28-20.929 289.89c19.638 31.056 46.065 57.392 77.194 76.924z" fill="#fe6d68"/></g></g><g><g><path d="m451.101 226.938-8.561-118.568-.31-4.28-34.15-48.17-50.32-11.47-96.05-21.89-5.46-1.24-5.46 1.24-10.884 2.48-19.775 4.506-65.391 14.904-50.32 11.47-34.15 48.17-.31 4.28-20.93 289.89c5.534 8.751 11.625 17.112 18.19 25.067l17.243-238.813 48.924-89.036 77.7-21.195-29.837 147.583 32.445 253.318h20l5.902-408.679 16.653-4.543 107.201 29.243-9.01 216.295 29.473 167.684h2.362c5.882-3.691 11.595-7.626 17.128-11.789l-15.226-351.419 53.384 97.153c3.43 6.438 6.6 12.357 9.539 17.809z" fill="#fe5653"/></g></g><g><g><path d="m213.695 475.184 6.436-445.637-72.958 16.626-18.587 429.011z" fill="#fe3f3d"/></g></g><g><g><path d="m220.131 29.547-72.958 16.626-1.997 46.089-16.59 382.922h19.567l16.824-388.324 54.541-14.878z" fill="#e52e2b"/></g></g><g><g><path d="m383.914 475.184-18.587-429.011-72.958-16.626 6.436 445.637z" fill="#fe3f3d"/></g></g><g><g><path d="m367.324 92.262-1.997-46.089-52.892-12.053-20.066-4.573 6.436 445.637h20l-5.744-397.724z" fill="#e52e2b"/></g></g><g><g><path d="m459.09 199.497-66.533-121.083-136.307-37.183-136.307 37.183-66.533 121.083c-5.319 9.681-17.479 13.216-27.16 7.897-9.681-5.319-13.216-17.479-7.897-27.16l70.617-128.515c2.61-4.75 7.036-8.237 12.265-9.664l149.751-40.85c3.447-.94 7.081-.94 10.527 0l149.751 40.851c5.229 1.426 9.654 4.914 12.265 9.664l70.617 128.515c5.319 9.681 1.784 21.841-7.897 27.16-9.68 5.318-21.839 1.783-27.159-7.898z" fill="#c62424"/></g></g><g><g><path d="m386.25 307.5h-260v167.684c37.68 23.636 82.239 37.316 130 37.316s92.32-13.681 130-37.316z" fill="#e0e7e3"/></g></g><g><g><path d="m195 404.052v-66.552c-4.142 0-7.5-3.358-7.5-7.5s3.358-7.5 7.5-7.5l-1.927-15h-66.823v167.684c37.68 23.636 82.239 37.316 130 37.316v-5.096c0-7.946-2.367-15.712-6.798-22.308z" fill="#d1dad5"/></g></g><g><g><path d="m386.25 292.5h-260c-8.284 0-15 6.716-15 15 0 8.284 6.716 15 15 15h260c8.284 0 15-6.716 15-15 0-8.284-6.716-15-15-15z" fill="#f2f7f4"/></g></g><g><g><path d="m180 307.5c0-8.284 6.716-15 15-15h-68.75c-8.284 0-15 6.716-15 15s6.716 15 15 15h68.75c-8.284 0-15-6.716-15-15z" fill="#e0e7e3"/></g></g><g><g><path d="m308.464 417.5-44.714-66.551v133.102z" fill="#fe3f3d"/></g></g><g><g><path d="m362.214 337.5h-89.428l44.714 66.552z" fill="#fe3f3d"/></g></g><g><g><path d="m317.5 430.948-44.714 66.552h68.055c5.686-2.092 11.271-4.39 16.75-6.882z" fill="#fe3f3d"/></g></g><g><g><path d="m326.536 417.5 44.714 66.552v-133.104z" fill="#fe3f3d"/></g></g><g><g><path d="m185.964 417.5-44.714-66.551v133.102z" fill="#fe3f3d"/></g></g><g><g><path d="m239.714 337.5h-89.428l44.714 66.552z" fill="#fe3f3d"/></g></g><g><g><path d="m154.91 490.618c5.479 2.493 11.064 4.791 16.75 6.882h68.055l-44.715-66.552z" fill="#fe3f3d"/></g></g><g><g><path d="m204.036 417.5 44.714 66.552v-133.104z" fill="#fe3f3d"/></g></g><g><g><path d="m256.25 96.866c-41.421 0-75 33.579-75 75v50c0 8.284 6.716 15 15 15h120c8.284 0 15-6.716 15-15v-50c0-41.422-33.579-75-75-75z" fill="#f2f7f4"/></g></g><g><g><path d="m263.75 171.866h52.5c0-30.542-22.945-55.81-52.5-59.515z" fill="#8ac8f0"/></g></g><g><g><path d="m248.75 112.351c-29.555 3.705-52.5 28.972-52.5 59.515h52.5z" fill="#8ac8f0"/></g></g><g><g><path d="m248.75 122.288v-9.937c-29.555 3.705-52.5 28.972-52.5 59.515h26.25c0-20.578 10.417-38.765 26.25-49.578z" fill="#63ace8"/></g></g><g><g><path d="m196.25 186.866h52.5v35h-52.5z" fill="#8ac8f0"/></g></g><g><g><path d="m196.25 186.866h26.25v35h-26.25z" fill="#63ace8"/></g></g><g><g><path d="m263.75 186.866h52.5v35h-52.5z" fill="#8ac8f0"/></g></g><g><g><g><path d="m252.586.846c.432-.078.866-.148 1.307-.199-.437.052-.873.119-1.307.199z" fill="#fff"/></g><g><path d="m252.675 1.338-.18-.984h.002.001c.251-.046.502-.088.753-.126.194-.029.389-.055.584-.078l.116.993c-.188.022-.376.047-.563.075-.239.037-.477.077-.713.12z"/></g></g><g><g><path d="m254.46.59c.591-.052 1.186-.09 1.79-.09-.598 0-1.194.037-1.79.09z" fill="#fff"/></g><g><path d="m254.504 1.088-.089-.996c.699-.063 1.282-.092 1.835-.092v1c-.51 0-1.048.027-1.746.088z"/></g></g><g><g><path d="m251.315 1.127c-.109.028-.22.048-.328.078l-.416.114c.244-.071.495-.13.744-.192z" fill="#fff"/></g><g><path d="m250.702 1.801-.271-.962c.087-.025.175-.049.263-.072l.5-.125.244.97-.171.042c-.104.025-.208.051-.312.078z"/></g></g><g><g><path d="m235.884 20.866c0-9.115 5.989-16.829 14.246-19.427l-148.895 40.617c-5.229 1.426-9.655 4.914-12.265 9.664l-70.617 128.514c-5.319 9.681-1.784 21.84 7.897 27.16 9.681 5.319 21.84 1.784 27.16-7.897l66.533-121.083 136.307-37.183c-11.248 0-20.366-9.118-20.366-20.365z" fill="#af1b1b"/></g></g></g></g></svg>