<svg id="Capa_1" enable-background="new 0 0 512 512" height="512" viewBox="0 0 512 512" width="512" xmlns="http://www.w3.org/2000/svg"><g><g><g><path d="m455.998 408.54c28.341-39.973 45.002-88.81 45.002-141.54 0-135.31-109.69-245-245-245s-245 109.69-245 245c0 52.73 16.661 101.567 45.002 141.54z" fill="#8ac8f0"/></g></g><g><g><path d="m436.002 433.2c7.179-7.772 13.864-16.007 19.998-24.66v-338.54c0-16.57-13.43-30-30-30h-340c-16.57 0-30 13.43-30 30v338.54c6.135 8.653 12.819 16.888 19.998 24.66z" fill="#d0794e"/></g></g><g><g><path d="m113.5 433.2v-373.2c-5.52 0-10-4.48-10-10s4.48-10 10-10h-27.5c-16.57 0-30 13.43-30 30v338.54c6.133 8.654 12.821 16.887 20.001 24.66z" fill="#bd5a40"/></g></g><g><g><path d="m156.735 491.05h198.531c30.769-13.653 58.204-33.451 80.735-57.85v-363.2c0-5.51-4.49-10-10-10h-340.001c-5.51 0-10 4.49-10 10v363.2c22.531 24.399 49.966 44.197 80.735 57.85z" fill="#f2f7f4"/></g></g><g><g><path d="m123.5 60c-4.63 0-8.53 3.17-9.66 7.44-.22.82-.34 1.68-.34 2.56v396.32c-13.61-9.75-26.18-20.85-37.5-33.12v-363.2c0-5.51 4.49-10 10-10z" fill="#e0e7e3"/></g></g><g><g><path d="m402.25 140h-187.5c-4.143 0-7.5-3.358-7.5-7.5s3.357-7.5 7.5-7.5h187.5c4.143 0 7.5 3.358 7.5 7.5s-3.357 7.5-7.5 7.5z" fill="#d1dad5"/></g></g><g><g><path d="m402.25 180h-187.5c-4.143 0-7.5-3.358-7.5-7.5s3.357-7.5 7.5-7.5h187.5c4.143 0 7.5 3.358 7.5 7.5s-3.357 7.5-7.5 7.5z" fill="#d1dad5"/></g></g><g><g><path d="m159.75 190h-40c-9.649 0-17.5-7.851-17.5-17.5v-40c0-9.649 7.851-17.5 17.5-17.5h40c9.649 0 17.5 7.851 17.5 17.5v40c0 9.649-7.851 17.5-17.5 17.5zm-40-60c-1.379 0-2.5 1.122-2.5 2.5v40c0 1.378 1.121 2.5 2.5 2.5h40c1.379 0 2.5-1.122 2.5-2.5v-40c0-1.378-1.121-2.5-2.5-2.5z" fill="#d1dad5"/></g></g><g><g><path d="m402.25 237h-187.5c-4.143 0-7.5-3.358-7.5-7.5s3.357-7.5 7.5-7.5h187.5c4.143 0 7.5 3.358 7.5 7.5s-3.357 7.5-7.5 7.5z" fill="#d1dad5"/></g></g><g><g><path d="m402.25 277h-187.5c-4.143 0-7.5-3.358-7.5-7.5s3.357-7.5 7.5-7.5h187.5c4.143 0 7.5 3.358 7.5 7.5s-3.357 7.5-7.5 7.5z" fill="#d1dad5"/></g></g><g><g><path d="m159.75 287h-40c-9.649 0-17.5-7.851-17.5-17.5v-40c0-9.649 7.851-17.5 17.5-17.5h40c9.649 0 17.5 7.851 17.5 17.5v40c0 9.649-7.851 17.5-17.5 17.5zm-40-60c-1.379 0-2.5 1.122-2.5 2.5v40c0 1.378 1.121 2.5 2.5 2.5h40c1.379 0 2.5-1.122 2.5-2.5v-40c0-1.378-1.121-2.5-2.5-2.5z" fill="#d1dad5"/></g></g><g><g><g><path d="m362.095 338.198c-.27-6.875-27.521-29.905-59.56-28.648-17.086.67-30.393 15.064-29.723 32.149.67 17.086 15.064 30.393 32.149 29.723 32.039-1.256 57.404-26.35 57.134-33.224z" fill="#c8ea73"/></g></g><g><g><path d="m300.131 341.699c-.544-13.865 8.118-25.957 20.533-30.381-5.749-1.317-11.844-2.015-18.129-1.769-17.086.67-30.393 15.064-29.723 32.149.67 17.086 15.063 30.393 32.149 29.723 5.048-.198 9.929-.99 14.572-2.207-10.97-4.411-18.908-14.935-19.402-27.515z" fill="#aad963"/></g></g><g><g><path d="m254.128 373.7c-1.604 0-3.221-.512-4.587-1.57-3.275-2.536-3.874-7.247-1.339-10.521 16.444-21.238 44.073-32.467 79.902-32.473 4.142 0 7.5 3.356 7.501 7.499.001 4.142-3.356 7.5-7.499 7.501-31.017.005-54.546 9.223-68.043 26.656-1.478 1.908-3.695 2.908-5.935 2.908z" fill="#8bc852"/></g></g><g><g><path d="m330.66 387.862c-34.468-22.213-50.011-2.788-74.66-2.788s-40.192-19.425-74.66 2.788c-32.132 20.707-38.246 63.481-24.585 103.188 30.34 13.459 63.916 20.95 99.245 20.95s68.905-7.491 99.244-20.95c13.662-39.708 7.548-82.481-24.584-103.188z" fill="#fe5653"/></g></g><g><g><path d="m256 385.074c-24.649 0-40.192-19.425-74.66 2.788-32.132 20.707-38.246 63.481-24.585 103.188 13.69 6.073 28.036 10.931 42.909 14.431-6.035-17.54-7.305-34.009-5.845-42.443 3.447-19.92 11.872-40.974 62.181-40.974s55.394-36.99 0-36.99z" fill="#fe3f3d"/></g></g><g><g><g><path d="m256 411.929c-4.142 0-7.5-3.358-7.5-7.5 0-34.715-17.11-61.177-17.283-61.44-2.271-3.458-1.316-8.107 2.138-10.384 3.455-2.276 8.095-1.333 10.378 2.117.807 1.219 19.767 30.321 19.767 69.707 0 4.143-3.358 7.5-7.5 7.5z" fill="#bd5a40"/></g></g></g><g><g><path d="m258.2 367.877c.08.442.128.895.128 1.36 0 4.209-3.412 7.621-7.621 7.621-2.94 0-5.487-1.668-6.758-4.107 2.595 9.155 4.551 19.944 4.551 31.678 0 4.142 3.358 7.5 7.5 7.5s7.5-3.358 7.5-7.5c0-13.668-2.284-26.096-5.3-36.552z" fill="#aa3c31"/></g></g></g><g><g><path d="m313.5 54.5h-115c-9.665 0-17.5 7.835-17.5 17.5 0 9.665 7.835 17.5 17.5 17.5h115c9.665 0 17.5-7.835 17.5-17.5 0-9.665-7.835-17.5-17.5-17.5z" fill="#ffcd53"/></g></g><g><g><path d="m234.756 72c0-9.665 7.835-17.5 17.5-17.5h-53.756c-9.665 0-17.5 7.835-17.5 17.5s7.835 17.5 17.5 17.5h53.756c-9.665 0-17.5-7.835-17.5-17.5z" fill="#ffb629"/></g></g><g><g><path d="m330.435 22c-18.9 0-37.19-5.833-53.191-15.893-6.154-3.869-13.437-6.107-21.244-6.107s-15.09 2.238-21.244 6.107c-16.001 10.06-34.29 15.893-53.191 15.893h-.565c-13.807 0-25 11.193-25 25 0 13.807 11.193 25 25 25h150c13.807 0 25-11.193 25-25 0-13.807-11.193-25-25-25z" fill="#ffe47d"/></g></g><g><g><path d="m227.115 10.48c-14.077 7.349-29.593 11.52-45.55 11.52h-.565c-13.807 0-25 11.193-25 25s11.193 25 25 25h53.756c-22.203-8.75-29.691-45.009-7.641-61.52z" fill="#ffcd53"/></g></g><g><g><path d="m308.5 47h-105c-4.142 0-7.5-3.358-7.5-7.5 0-4.142 3.358-7.5 7.5-7.5h105c4.142 0 7.5 3.358 7.5 7.5 0 4.142-3.358 7.5-7.5 7.5z" fill="#ffb629"/></g></g><g><g><circle cx="256" cy="39.5" fill="#ffcd53" r="15"/></g></g><g><g><circle cx="139.75" cy="152.5" fill="#8ac8f0" r="10"/></g></g><g><g><circle cx="139.75" cy="249.5" fill="#8ac8f0" r="10"/></g></g></g></svg>