<svg id="Capa_1" enable-background="new 0 0 512 512" height="512" viewBox="0 0 512 512" width="512" xmlns="http://www.w3.org/2000/svg"><g><g><g><path d="m245 11c-27.185 0-53.332 4.436-77.767 12.609l-111.154 388.391c19.248 23.284 42.725 42.936 69.244 57.811h24.443l20.443 19.546c8.347 2.673 16.882 4.924 25.592 6.699l18.816-6.699 5.753 10.415c8.101.809 16.316 1.228 24.63 1.228s16.529-.419 24.63-1.228l5.923-10.415 18.645 6.699c8.71-1.776 17.245-4.026 25.592-6.699l17.167-19.546h27.719c74.78-41.946 125.324-121.97 125.324-213.811 0-135.31-109.69-245-245-245z" fill="#8ac8f0"/></g></g><g><g><path d="m472 196c-66.255-66.255-118.411-34.545-191-112.773-40.114-43.23-83.22-56.443-113.767-59.618-72.005 24.086-129.096 80.698-153.854 152.391z" fill="#ffcd53"/></g></g><g><g><path d="m110.888 180.252v-4.252c0-78.796 60.305-126.781 89.557-145.424-12.039-3.834-23.29-5.935-33.212-6.967-72.005 24.086-129.096 80.698-153.854 152.391z" fill="#ffb629"/></g></g><g><g><path d="m56.079 412h304.041c18.172 0 34.06-12.249 38.684-29.823l33.196-126.177v-19.955l-432 19.955c0 59.272 21.05 113.627 56.079 156z" fill="#d0794e"/></g></g><g><g><path d="m160.096 256v-7.395l-160.096 7.395c0 59.272 21.05 113.627 56.079 156h104.017c-14.359 0-26-11.641-26-26s11.641-26 26-26v-52c-14.359 0-26-11.641-26-26s11.64-26 26-26z" fill="#bd5a40"/></g></g><g><g><path d="m3.268 216-.003.001c-2.141 13.016-3.265 26.376-3.265 39.999h452c11.046 0 20-8.954 20-20v-40z" fill="#aa3c31"/></g></g><g><g><path d="m110.888 216v-4.592l-107.62 4.592-.003.001c-2.141 13.016-3.265 26.376-3.265 39.999h110.888c-9.55 0-17.292-8.954-17.292-20s7.742-20 17.292-20z" fill="#962e29"/></g></g><g><g><path d="m512 196c0 5.52-2.24 10.52-5.86 14.14s-8.62 5.86-14.14 5.86h-488.75c2.26-13.75 5.66-27.12 10.11-40h478.64c11.05 0 20 8.95 20 20z" fill="#d0794e"/></g></g><g><g><path d="m110.888 176h-97.515c-4.448 12.88-7.846 26.247-10.105 40h107.619c-11.046 0-20-8.954-20-20s8.955-20 20.001-20z" fill="#bd5a40"/></g></g><g><g><path d="m404.638 360 13.681-52h-412.775c3.926 18.164 9.858 35.581 17.567 52z" fill="#bd5a40"/></g></g><g><g><path d="m134.096 334c0-14.359 11.641-26 26-26h-154.552c3.926 18.164 9.858 35.581 17.567 52h136.985c-14.36 0-26-11.641-26-26z" fill="#aa3c31"/></g></g><g><g><path d="m294.199 496.056-115.107-115.106-14.142 14.142 104.68 104.68c8.319-.83 16.516-2.074 24.569-3.716z" fill="#bd5a40"/></g></g><g><g><path d="m220.37 499.772 104.68-104.68-14.142-14.142-115.107 115.106c8.053 1.642 16.25 2.886 24.569 3.716z" fill="#bd5a40"/></g></g><g><g><circle cx="245" cy="461" fill="#aa3c31" r="25"/></g></g><g><g><path d="m245 341c-66.274 0-120 53.726-120 120 0 2.964.112 5.901.323 8.811 14.154 7.939 29.174 14.514 44.886 19.546-3.355-8.82-5.209-18.374-5.209-28.357 0-44.112 35.888-80 80-80s80 35.888 80 80c0 9.983-1.854 19.537-5.209 28.357 15.713-5.032 30.732-11.606 44.886-19.546.211-2.91.323-5.847.323-8.811 0-66.274-53.726-120-120-120z" fill="#aa3c31"/></g></g><g><g><path d="m245 461c0-9.252 5.03-17.324 12.5-21.647-3.678-2.128-7.945-3.353-12.5-3.353-13.807 0-25 11.193-25 25s11.193 25 25 25c4.555 0 8.822-1.224 12.5-3.353-7.47-4.323-12.5-12.395-12.5-21.647z" fill="#962e29"/></g></g><g><g><path d="m245 381c-11.046 0-20-8.954-20-20s8.954-20 20-20c-66.274 0-120 53.726-120 120 0 2.964.112 5.901.323 8.811 14.154 7.939 29.174 14.514 44.886 19.546-3.355-8.82-5.209-18.374-5.209-28.357 0-44.112 35.888-80 80-80z" fill="#962e29"/></g></g><g><g><path d="m179.606 109.261h-20c-4.142 0-7.5-3.358-7.5-7.5s3.358-7.5 7.5-7.5h20c4.142 0 7.5 3.358 7.5 7.5s-3.357 7.5-7.5 7.5z" fill="#ffe47d"/></g></g><g><g><path d="m266.117 141.025h-20c-4.142 0-7.5-3.358-7.5-7.5s3.358-7.5 7.5-7.5h20c4.142 0 7.5 3.358 7.5 7.5s-3.358 7.5-7.5 7.5z" fill="#ffe47d"/></g></g><g><g><path d="m330.968 160.373h-20c-4.142 0-7.5-3.358-7.5-7.5s3.358-7.5 7.5-7.5h20c4.142 0 7.5 3.358 7.5 7.5s-3.358 7.5-7.5 7.5z" fill="#ffe47d"/></g></g><g><g><path d="m399.33 151.904h-20c-4.142 0-7.5-3.358-7.5-7.5s3.358-7.5 7.5-7.5h20c4.142 0 7.5 3.358 7.5 7.5s-3.358 7.5-7.5 7.5z" fill="#ffe47d"/></g></g><g><g><path d="m152 160.373h-20c-4.142 0-7.5-3.358-7.5-7.5s3.358-7.5 7.5-7.5h20c4.142 0 7.5 3.358 7.5 7.5s-3.358 7.5-7.5 7.5z" fill="#ffe47d"/></g></g><g><g><path d="m77.078 138.925h-20c-4.142 0-7.5-3.358-7.5-7.5s3.358-7.5 7.5-7.5h20c4.142 0 7.5 3.358 7.5 7.5s-3.358 7.5-7.5 7.5z" fill="#fe9d09"/></g></g><g><g><path d="m120.888 88.883h-20c-4.142 0-7.5-3.358-7.5-7.5s3.358-7.5 7.5-7.5h20c4.142 0 7.5 3.358 7.5 7.5s-3.358 7.5-7.5 7.5z" fill="#fe9d09"/></g></g><g><g><path d="m286.117 88.55h-20c-4.142 0-7.5-3.358-7.5-7.5s3.358-7.5 7.5-7.5h20c4.142 0 7.5 3.358 7.5 7.5s-3.358 7.5-7.5 7.5z" fill="#ffe47d"/></g></g><g><g><path d="m214.932 64.5h-20c-4.142 0-7.5-3.358-7.5-7.5s3.358-7.5 7.5-7.5h20c4.142 0 7.5 3.358 7.5 7.5s-3.358 7.5-7.5 7.5z" fill="#ffe47d"/></g></g></g></svg>