<svg id="Capa_1" enable-background="new 0 0 512 512" height="512" viewBox="0 0 512 512" width="512" xmlns="http://www.w3.org/2000/svg"><g><g><g><path d="m89.186 446.416h333.627c48.092-44.733 78.187-108.555 78.187-179.416 0-135.31-109.69-245-245-245s-245 109.69-245 245c0 70.861 30.095 134.683 78.186 179.416z" fill="#ffcd53"/></g></g><g><g><circle cx="256" cy="257" fill="#ffe47d" r="200"/></g></g><g><g><path d="m354.742 491.26c25.209-11.12 48.198-26.353 68.097-44.867l-41.926-210.393h-249.826l-41.926 210.393c19.899 18.515 42.888 33.747 68.097 44.867z" fill="#aa3c31"/></g></g><g><g><path d="m106.268 460.914 44.819-224.914h-20l-41.926 210.393c5.475 5.094 11.183 9.94 17.107 14.521z" fill="#962e29"/></g></g><g><g><path d="m354.76 491.252c6.469-2.854 12.793-5.974 18.954-9.357l-27.531-245.895h-20l-2.865 154.064z" fill="#962e29"/></g></g><g><g><path d="m326.183 236h-140.366l-28.58 255.26c30.214 13.326 63.62 20.74 98.763 20.74s68.549-7.414 98.763-20.74z" fill="#d0794e"/></g></g><g><g><path d="m157.237 491.26c6.252 2.758 12.649 5.246 19.162 7.484l29.418-262.744h-20z" fill="#bd5a40"/></g></g><g><g><path d="m256 363.318c-22.091 0-40 17.909-40 40v105.413c13.018 2.138 26.376 3.268 40 3.268s26.982-1.13 40-3.268v-105.413c0-22.091-17.909-40-40-40z" fill="#962e29"/></g></g><g><g><path d="m126 236v-17.333c0-71.797 58.203-130 130-130s130 58.203 130 130v17.333z" fill="#bd5a40"/></g></g><g><g><path d="m282.792 91.437c-8.647-1.812-17.607-2.77-26.792-2.77-71.797 0-130 58.203-130 130v17.333h53.583v-17.333c0-62.613 44.266-114.88 103.209-127.23z" fill="#aa3c31"/></g></g><g><g><path d="m393.5 223.5h-275c-6.904 0-12.5 5.596-12.5 12.5 0 6.904 5.596 12.5 12.5 12.5h275c6.904 0 12.5-5.596 12.5-12.5 0-6.904-5.596-12.5-12.5-12.5z" fill="#aa3c31"/></g></g><g><g><path d="m168.909 236c0-6.904 5.596-12.5 12.5-12.5h-62.909c-6.904 0-12.5 5.596-12.5 12.5s5.596 12.5 12.5 12.5h62.909c-6.903 0-12.5-5.596-12.5-12.5z" fill="#962e29"/></g></g><g><g><path d="m301 170.5h-45v-160h45c8.284 0 15 6.716 15 15v130c0 8.284-6.716 15-15 15z" fill="#f2f7f4"/></g></g><g><g><path d="m256 25.045h60v14.545h-60z" fill="#e0e7e3"/></g></g><g><g><path d="m256 54.136h60v14.545h-60z" fill="#e0e7e3"/></g></g><g><g><path d="m256 83.227h60v14.545h-60z" fill="#e0e7e3"/></g></g><g><g><path d="m256 112.318h60v14.545h-60z" fill="#e0e7e3"/></g></g><g><g><path d="m256 141.409h60v14.545h-60z" fill="#e0e7e3"/></g></g><g><g><path d="m256 421.5h-45c-8.284 0-15-6.716-15-15v-130c0-8.284 6.716-15 15-15h45z" fill="#f2f7f4"/></g></g><g><g><path d="m196 276.045h60v14.545h-60z" fill="#e0e7e3"/></g></g><g><g><path d="m196 305.136h60v14.545h-60z" fill="#e0e7e3"/></g></g><g><g><path d="m196 334.227h60v14.545h-60z" fill="#e0e7e3"/></g></g><g><g><path d="m196 363.318h60v14.545h-60z" fill="#e0e7e3"/></g></g><g><g><path d="m196 392.409h60v14.545h-60z" fill="#e0e7e3"/></g></g><g><g><path d="m301.5 261v-45h160v45c0 8.284-6.716 15-15 15h-130c-8.284 0-15-6.716-15-15z" fill="#f2f7f4"/></g></g><g><g><path d="m316.045 216h14.545v60h-14.545z" fill="#e0e7e3"/></g></g><g><g><path d="m345.136 216h14.545v60h-14.545z" fill="#e0e7e3"/></g></g><g><g><path d="m374.227 216h14.545v60h-14.545z" fill="#e0e7e3"/></g></g><g><g><path d="m403.318 216h14.545v60h-14.545z" fill="#e0e7e3"/></g></g><g><g><path d="m432.409 216h14.545v60h-14.545z" fill="#e0e7e3"/></g></g><g><g><path d="m50.5 216v-45c0-8.284 6.716-15 15-15h130c8.284 0 15 6.716 15 15v45z" fill="#f2f7f4"/></g></g><g><g><path d="m65.045 156h14.545v60h-14.545z" fill="#e0e7e3"/></g></g><g><g><path d="m94.136 156h14.545v60h-14.545z" fill="#e0e7e3"/></g></g><g><g><path d="m123.227 156h14.545v60h-14.545z" fill="#e0e7e3"/></g></g><g><g><path d="m152.318 156h14.545v60h-14.545z" fill="#e0e7e3"/></g></g><g><g><path d="m181.409 156h14.545v60h-14.545z" fill="#e0e7e3"/></g></g><g><g><path d="m263.5 190h-15v-182.5c0-4.142 3.358-7.5 7.5-7.5 4.142 0 7.5 3.358 7.5 7.5z" fill="#e0e7e3"/></g></g><g><g><path d="m256 432c-4.142 0-7.5-3.358-7.5-7.5v-182.5h15v182.5c0 4.142-3.358 7.5-7.5 7.5z" fill="#e0e7e3"/></g></g><g><g><path d="m282 223.5v-15h182.5c4.142 0 7.5 3.358 7.5 7.5 0 4.142-3.358 7.5-7.5 7.5z" fill="#e0e7e3"/></g></g><g><g><path d="m40 216c0-4.142 3.358-7.5 7.5-7.5h182.5v15h-182.5c-4.142 0-7.5-3.358-7.5-7.5z" fill="#e0e7e3"/></g></g><g><g><circle cx="256" cy="216" fill="#f2f7f4" r="35"/></g></g><g><g><circle cx="256" cy="216" fill="#e0e7e3" r="20"/></g></g></g></svg>