<svg id="Capa_1" enable-background="new 0 0 512 512" height="512" viewBox="0 0 512 512" width="512" xmlns="http://www.w3.org/2000/svg"><g><g><path d="m256 369.6 240.578-56.125c2.891-15.05 4.422-30.582 4.422-46.475 0-135.31-109.69-245-245-245s-245 109.69-245 245c0 15.893 1.531 31.425 4.422 46.475z" fill="#8ac8f0"/></g><g><g><circle cx="256" cy="257" fill="#b1e4f9" r="200"/></g></g><g><path d="m256 445.727 199.074-35.915c20.275-28.218 34.703-60.922 41.504-96.338h-481.156c6.802 35.416 21.229 68.119 41.504 96.338z" fill="#bd5a40"/></g><g><path d="m95.422 313.475h-80c6.802 35.416 21.229 68.119 41.504 96.338l93.223 16.819c-27.256-31.705-46.528-70.461-54.727-113.157z" fill="#aa3c31"/></g><g><g><g><path d="m155.763 70.699c-.023-.006-.047-.012-.07-.018-4.39-1.095-7.911-4.417-8.725-8.868-1.779-9.724-5.522-16.424-9.853-16.424-.461 0-.915.076-1.361.224-4.872 1.612-10.157-.588-13.145-4.76-3.278-4.577-6.762-7.017-9.68-6.235-2.917.782-4.715 4.636-5.265 10.24-.502 5.107-3.979 9.655-9.004 10.695-.46.095-.892.257-1.291.487-3.75 2.165-3.643 9.839-.321 19.15 1.52 4.262.132 8.899-3.122 12.042-.017.017-.035.034-.052.051-4.28 4.28 1.503 17 12.915 28.413 23.439 23.66 44.394 61.688 44.394 61.688s-.866-43.411 7.603-75.62c4.175-15.591 2.823-29.498-3.023-31.065z" fill="#8bc852"/></g></g><g><g><path d="m166.657 70.699c.023-.006.047-.012.07-.018 4.39-1.095 7.911-4.417 8.725-8.868 1.779-9.724 5.522-16.424 9.853-16.424.461 0 .915.076 1.361.224 4.872 1.612 10.157-.588 13.145-4.76 3.278-4.577 6.762-7.017 9.68-6.235 2.917.782 4.715 4.636 5.265 10.24.502 5.107 3.979 9.655 9.004 10.695.46.095.892.257 1.291.487 3.751 2.165 3.643 9.839.321 19.15-1.52 4.262-.132 8.899 3.122 12.042.017.017.035.034.052.051 4.28 4.28-1.503 17-12.915 28.413-23.439 23.66-44.394 61.688-44.394 61.688s.866-43.411-7.603-75.62c-4.176-15.591-2.823-29.498 3.023-31.065z" fill="#8bc852"/></g></g><g><g><path d="m199.659 55.132c-.025-.014-.05-.029-.076-.043-4.749-2.633-7.799-7.578-7.36-12.99.958-11.825-1.3-20.754-6.321-22.1-.534-.143-1.085-.196-1.648-.164-6.149.355-11.592-3.836-13.76-9.601-2.378-6.324-5.66-10.234-9.284-10.234s-6.906 3.91-9.284 10.235c-2.168 5.765-7.612 9.957-13.76 9.601-.563-.033-1.113.02-1.648.164-5.02 1.345-7.279 10.274-6.321 22.1.438 5.412-2.611 10.357-7.36 12.99-.025.014-.051.028-.076.043-6.291 3.632-3.539 20.175 6.146 36.949 19.822 34.708 32.303 85.302 32.303 85.302s12.48-50.593 32.303-85.302c9.684-16.775 12.436-33.318 6.146-36.95z" fill="#aad963"/></g></g><g><g><path d="m231 251.247c0 88.229-31.246 209.667-69.79 209.667s-69.79-121.438-69.79-209.667 44.715-109.838 69.79-109.838 69.79 21.609 69.79 109.838z" fill="#f2f7f4"/></g></g><g><g><path d="m204.786 268.909c0-4.142-3.358-7.5-7.5-7.5h-65.733c-.088-3.429-.134-6.82-.134-10.162 0-27.729 4.419-48.873 11.254-64.838h37.908c4.142 0 7.5-3.358 7.5-7.5 0-4.142-3.358-7.5-7.5-7.5h-29.874c8.999-13.553 20.016-21.586 30.501-25.875-7.192-2.942-14.134-4.125-20-4.125-25.075 0-69.79 21.609-69.79 109.838s31.246 209.667 69.79 209.667c6.952 0 13.664-3.967 20-10.96-19.991-22.062-36.218-74.403-44.275-128.545h20.351c4.142 0 7.5-3.358 7.5-7.5 0-4.142-3.358-7.5-7.5-7.5h-22.368c-1.212-10.09-2.127-20.15-2.716-30h65.084c4.145 0 7.502-3.358 7.502-7.5z" fill="#e0e7e3"/></g></g><g><g><path d="m228.28 216.409h-55.993c-4.142 0-7.5 3.358-7.5 7.5 0 4.142 3.358 7.5 7.5 7.5h57.892c-.456-5.288-1.099-10.279-1.899-15z" fill="#e0e7e3"/></g></g><g><g><path d="m220.139 351.409h-47.852c-4.142 0-7.5 3.358-7.5 7.5 0 4.142 3.358 7.5 7.5 7.5h44.468c1.193-4.917 2.324-9.924 3.384-15z" fill="#e0e7e3"/></g></g></g><g><g><g><path d="m345.343 70.699c-.023-.006-.047-.012-.07-.018-4.39-1.095-7.911-4.417-8.725-8.868-1.779-9.724-5.522-16.424-9.853-16.424-.461 0-.915.076-1.361.224-4.872 1.612-10.157-.588-13.145-4.76-3.278-4.577-6.762-7.017-9.68-6.235-2.917.782-4.715 4.636-5.265 10.24-.502 5.107-3.979 9.655-9.004 10.695-.46.095-.892.257-1.291.487-3.75 2.165-3.643 9.839-.321 19.15 1.52 4.262.132 8.899-3.122 12.042-.017.017-.035.034-.052.051-4.28 4.28 1.503 17 12.915 28.413 23.439 23.66 44.394 61.688 44.394 61.688s-.866-43.411 7.603-75.62c4.176-15.591 2.823-29.498-3.023-31.065z" fill="#8bc852"/></g></g><g><g><path d="m356.237 70.699c.023-.006.047-.012.07-.018 4.39-1.095 7.911-4.417 8.725-8.868 1.779-9.724 5.522-16.424 9.853-16.424.461 0 .915.076 1.361.224 4.872 1.612 10.157-.588 13.145-4.76 3.278-4.577 6.762-7.017 9.68-6.235 2.917.782 4.715 4.636 5.265 10.24.502 5.107 3.979 9.655 9.004 10.695.46.095.892.257 1.291.487 3.75 2.165 3.643 9.839.321 19.15-1.52 4.262-.132 8.899 3.122 12.042.017.017.035.034.052.051 4.28 4.28-1.503 17-12.915 28.413-23.439 23.66-44.394 61.688-44.394 61.688s.866-43.411-7.603-75.62c-4.175-15.591-2.823-29.498 3.023-31.065z" fill="#8bc852"/></g></g><g><g><path d="m389.239 55.132c-.025-.014-.05-.029-.076-.043-4.749-2.633-7.799-7.578-7.36-12.99.958-11.825-1.3-20.754-6.321-22.1-.534-.143-1.085-.196-1.648-.164-6.149.355-11.592-3.836-13.76-9.601-2.378-6.324-5.659-10.234-9.284-10.234-3.624 0-6.906 3.91-9.284 10.235-2.168 5.765-7.612 9.957-13.76 9.601-.563-.033-1.113.02-1.648.164-5.02 1.345-7.279 10.274-6.321 22.1.439 5.412-2.611 10.357-7.36 12.99-.025.014-.051.028-.076.043-6.291 3.632-3.539 20.175 6.146 36.949 19.822 34.708 32.303 85.302 32.303 85.302s12.48-50.593 32.303-85.302c9.685-16.775 12.437-33.318 6.146-36.95z" fill="#aad963"/></g></g><g><g><path d="m420.58 251.247c0 88.229-31.246 209.667-69.79 209.667s-69.79-121.438-69.79-209.667 44.715-109.838 69.79-109.838 69.79 21.609 69.79 109.838z" fill="#f2f7f4"/></g></g><g><g><path d="m394.367 268.909c0-4.142-3.358-7.5-7.5-7.5h-65.733c-.088-3.429-.134-6.82-.134-10.162 0-27.729 4.419-48.873 11.254-64.838h37.908c4.142 0 7.5-3.358 7.5-7.5 0-4.142-3.358-7.5-7.5-7.5h-29.874c8.999-13.553 20.016-21.586 30.501-25.875-7.192-2.942-14.134-4.125-20-4.125-25.075 0-69.79 21.609-69.79 109.838s31.246 209.667 69.79 209.667c6.952 0 13.664-3.967 20-10.96-19.991-22.062-36.218-74.403-44.275-128.545h20.351c4.142 0 7.5-3.358 7.5-7.5 0-4.142-3.358-7.5-7.5-7.5h-22.368c-1.212-10.09-2.127-20.15-2.716-30h65.084c4.144 0 7.502-3.358 7.502-7.5z" fill="#e0e7e3"/></g></g><g><g><path d="m417.86 216.409h-55.993c-4.142 0-7.5 3.358-7.5 7.5 0 4.142 3.358 7.5 7.5 7.5h57.892c-.456-5.288-1.098-10.279-1.899-15z" fill="#e0e7e3"/></g></g><g><g><path d="m409.719 351.409h-47.852c-4.142 0-7.5 3.358-7.5 7.5 0 4.142 3.358 7.5 7.5 7.5h44.468c1.194-4.917 2.324-9.924 3.384-15z" fill="#e0e7e3"/></g></g></g><g><path d="m56.918 409.811c44.469 61.88 117.064 102.189 199.082 102.189s154.613-40.309 199.082-102.189z" fill="#d0794e"/></g><g><path d="m136.918 409.811h-80c44.469 61.88 117.064 102.189 199.082 102.189 13.635 0 27.008-1.12 40.037-3.262-65.371-10.727-122.03-47.316-159.119-98.927z" fill="#bd5a40"/></g><g><path d="m165.909 448.749h-20c-4.142 0-7.5-3.358-7.5-7.5s3.358-7.5 7.5-7.5h20c4.142 0 7.5 3.358 7.5 7.5s-3.358 7.5-7.5 7.5z" fill="#aa3c31"/></g><g><path d="m232.069 484.25h-20c-4.142 0-7.5-3.358-7.5-7.5s3.358-7.5 7.5-7.5h20c4.142 0 7.5 3.358 7.5 7.5s-3.358 7.5-7.5 7.5z" fill="#aa3c31"/></g><g><path d="m266 441.045h-20c-4.142 0-7.5-3.358-7.5-7.5s3.358-7.5 7.5-7.5h20c4.143 0 7.5 3.358 7.5 7.5s-3.357 7.5-7.5 7.5z" fill="#bd5a40"/></g><g><path d="m322.68 478.312h-20c-4.143 0-7.5-3.358-7.5-7.5s3.357-7.5 7.5-7.5h20c4.143 0 7.5 3.358 7.5 7.5s-3.358 7.5-7.5 7.5z" fill="#bd5a40"/></g><g><path d="m381.805 449.215h-20c-4.143 0-7.5-3.358-7.5-7.5s3.357-7.5 7.5-7.5h20c4.143 0 7.5 3.358 7.5 7.5s-3.358 7.5-7.5 7.5z" fill="#bd5a40"/></g></g></svg>