<svg id="Capa_1" enable-background="new 0 0 512 512" height="512" viewBox="0 0 512 512" width="512" xmlns="http://www.w3.org/2000/svg"><g><g><path d="m256 369.6 240.578-56.125c2.891-15.05 4.422-30.582 4.422-46.475 0-135.31-109.69-245-245-245s-245 109.69-245 245c0 15.893 1.531 31.425 4.422 46.475z" fill="#ffcd53"/></g><g><path d="m256 445.727 199.074-35.915c20.275-28.218 34.703-60.922 41.504-96.338h-481.156c6.802 35.416 21.229 68.119 41.504 96.338z" fill="#aad963"/></g><g><path d="m95.422 313.475h-80c6.802 35.416 21.229 68.119 41.504 96.338l93.223 16.819c-27.256-31.705-46.528-70.461-54.727-113.157z" fill="#8bc852"/></g><g><g><path d="m291.734 218.02h-35.734-35.734s-34.137 57.966-34.137 203.48h69.871 69.87c0-145.514-34.136-203.48-34.136-203.48z" fill="#c0c9c3"/></g></g><g><g><path d="m339.444 63.997-31.986-56.229c-15.713-4.959-32.891-7.768-51.458-7.768-118.196 0-180.175 113.7-165.181 172.853 14.993 59.153 125.376 67.147 165.181 67.147s150.188-7.994 165.181-67.147c5.446-21.485.728-50.166-13.141-77.981z" fill="#aa3c31"/></g></g><g><g><path d="m153.169 172.853c-13.614-53.711 36.237-152.386 134.006-170.09-9.906-1.793-20.3-2.763-31.175-2.763-118.196 0-180.175 113.7-165.181 172.853 14.993 59.153 125.376 67.147 165.181 67.147 7.993 0 18.835-.324 31.175-1.318-49.116-3.957-122.023-18.554-134.006-65.829z" fill="#962e29"/></g></g><g><g><ellipse cx="204.796" cy="178.261" fill="#962e29" rx="71.44" ry="52.473" transform="matrix(.991 -.137 .137 .991 -22.511 29.768)"/></g></g><g><g><path d="m153.169 172.853c-1.976-7.797-2.606-16.546-1.955-25.853-12.487 11.396-19.256 26.08-17.183 41.057 3.974 28.706 38.878 47.591 77.96 42.181 4.045-.56 7.968-1.371 11.761-2.384-33.369-9.527-63.282-26.2-70.583-55.001z" fill="#841e1e"/></g></g><g><g><path d="m307.458 7.768c-16.396 5.118-29.173 15.794-34.282 30.721-9.983 29.167 13.053 63.466 51.453 76.61 34.289 11.736 69.215 2.623 83.412-20.227-18.317-36.736-52.603-71.96-100.583-87.104z" fill="#962e29"/></g></g><g><g><path d="m360.001 312.461-21.722-5.82-21.722-5.82s-30.193 29.677-53.895 118.133l42.473 11.381 42.473 11.381c23.702-88.457 12.393-129.255 12.393-129.255z" fill="#f2f7f4"/></g></g><g><g><path d="m473.561 281.493-50.171-41.831 26.007-39.98c-15.379-21.382-38.304-39.37-69.659-47.771-85.626-22.944-152.597 47.395-153.218 93.158s77.794 72.982 106.63 80.709 110.354 23.362 132.699-16.58c4.233-7.566 6.841-17.088 7.712-27.705z" fill="#d0794e"/></g></g><g><g><path d="m346.423 147.443c-69.072-.042-119.365 57.999-119.902 97.626-.621 45.763 77.794 72.982 106.63 80.709 6.987 1.872 17.072 4.207 28.654 6.105-69.138-42.747-72.623-154.057-15.382-184.44z" fill="#bd5a40"/></g></g><g><g><path d="m369.637 202.882c-15.057 21.806-3.197 56.102 26.491 76.601 27.55 19.023 60.758 19.468 77.433 2.01 2.044-24.911-5.499-55.861-24.164-81.811-29.448-19.616-64.914-18.3-79.76 3.2z" fill="#bd5a40"/></g></g><g><g><ellipse cx="295.645" cy="257.838" fill="#bd5a40" rx="31.553" ry="42.958" transform="matrix(.568 -.823 .823 .568 -84.514 354.614)"/></g></g><g><g><path d="m306.466 227.677c-17.884-8.92-37.445-6.885-46.171 5.752-9.902 14.34-2.102 36.893 17.421 50.374 15.16 10.468 32.928 12.383 44.75 6.003-10.556-19.297-15.851-41.166-16-62.129z" fill="#aa3c31"/></g></g><g><g><ellipse cx="325.14" cy="188.867" fill="#bd5a40" rx="17.64" ry="20.279" transform="matrix(.088 -.996 .996 .088 108.456 496.17)"/></g></g><g><g><path d="m321.039 171.5c-8.621 1.367-15.393 7.571-16.099 15.587-.416 4.723 1.36 9.191 4.567 12.656 2.414-10.297 6.262-19.884 11.532-28.243z" fill="#aa3c31"/></g></g><g><g><path d="m162.916 334.814 16.578-4.442 16.578-4.442s23.042 22.648 41.13 90.155l-32.414 8.685-32.414 8.685c-18.089-67.506-9.458-98.641-9.458-98.641z" fill="#e0e7e3"/></g></g><g><g><path d="m147.853 212.288c-16.907 4.53-30.598 12.716-41.321 22.883v34.723l-29.642 22.913c-2.185 15.358-.287 29.625 5.246 39.516 17.052 30.483 79.264 18.55 101.271 12.654s81.85-26.669 81.376-61.594-51.583-88.605-116.93-71.095z" fill="#d0794e"/></g></g><g><g><path d="m160.858 209.844.022-.146c-4.271.561-8.615 1.408-13.027 2.59-16.907 4.53-30.598 12.716-41.321 22.883v34.723l-29.642 22.913c-2.185 15.358-.287 29.625 5.246 39.516 17.052 30.483 79.264 18.55 101.271 12.654 5.43-1.455 13.164-3.817 21.725-7.072-86.079-6.883-85.153-79.926-44.274-128.061z" fill="#bd5a40"/></g></g><g><g><path d="m148.58 246.274c-7.088-12.558-24.534-16.664-42.049-11.104-17.277 16.379-26.835 37.906-29.642 57.637 10.311 11.3 31.265 12.517 49.79 2.061 20.662-11.661 30.467-33.418 21.901-48.594z" fill="#bd5a40"/></g></g><g><g><ellipse cx="189.098" cy="297.663" fill="#bd5a40" rx="17.64" ry="20.279" transform="matrix(.088 -.996 .996 .088 -124.018 459.896)"/></g></g><g><g><ellipse cx="187.407" cy="78.75" fill="#962e29" rx="42.738" ry="32.836" transform="matrix(.991 -.137 .137 .991 -9.029 26.444)"/></g></g><g><g><path d="m182.905 46.224c-23.381 3.237-40.318 20.423-37.832 38.387 1.269 9.166 7.357 16.756 16.115 21.569 8.461-20.754 22.066-41.628 40.403-59.312-5.807-1.266-12.152-1.549-18.686-.644z" fill="#841e1e"/></g></g><g><g><path d="m126.679 294.868c3.135-1.769 6.015-3.774 8.624-5.95-3.237-15.561-.438-33.063 7.022-49.828-8.702-6.73-22.225-8.228-35.793-3.92-17.277 16.379-26.835 37.906-29.642 57.637 10.311 11.301 31.265 12.517 49.789 2.061z" fill="#aa3c31"/></g></g><g><path d="m56.918 409.811c44.469 61.88 117.064 102.189 199.082 102.189s154.613-40.309 199.082-102.189z" fill="#c8ea73"/></g><g><path d="m136.918 409.811h-80c44.469 61.88 117.064 102.189 199.082 102.189 13.635 0 27.008-1.12 40.037-3.262-65.371-10.727-122.03-47.316-159.119-98.927z" fill="#aad963"/></g><g><path d="m165.909 448.749h-20c-4.143 0-7.5-3.358-7.5-7.5s3.357-7.5 7.5-7.5h20c4.143 0 7.5 3.358 7.5 7.5s-3.357 7.5-7.5 7.5z" fill="#8bc852"/></g><g><path d="m232.069 484.25h-20c-4.143 0-7.5-3.358-7.5-7.5s3.357-7.5 7.5-7.5h20c4.143 0 7.5 3.358 7.5 7.5s-3.357 7.5-7.5 7.5z" fill="#8bc852"/></g><g><path d="m266 441.045h-20c-4.143 0-7.5-3.358-7.5-7.5s3.357-7.5 7.5-7.5h20c4.143 0 7.5 3.358 7.5 7.5s-3.357 7.5-7.5 7.5z" fill="#aad963"/></g><g><path d="m322.68 478.312h-20c-4.143 0-7.5-3.358-7.5-7.5s3.357-7.5 7.5-7.5h20c4.143 0 7.5 3.358 7.5 7.5s-3.358 7.5-7.5 7.5z" fill="#aad963"/></g><g><path d="m381.805 449.215h-20c-4.143 0-7.5-3.358-7.5-7.5s3.357-7.5 7.5-7.5h20c4.143 0 7.5 3.358 7.5 7.5s-3.358 7.5-7.5 7.5z" fill="#aad963"/></g></g></svg>