<svg id="Capa_1" enable-background="new 0 0 512 512" height="512" viewBox="0 0 512 512" width="512" xmlns="http://www.w3.org/2000/svg"><g><g><g><path d="m482.426 360.702c11.96-28.868 18.574-60.51 18.574-93.702 0-135.31-109.69-245-245-245s-245 109.69-245 245c0 33.192 6.614 64.834 18.574 93.702z" fill="#aad963"/></g></g><g><g><path d="m230.234 0c-44.013 0-144.234 137.255-144.234 137.255h288.468s-100.221-137.255-144.234-137.255z" fill="#ffb629"/></g></g><g><g><path d="m327.399 43.426c-30.088 0-98.601 93.83-98.601 93.83h197.202c0-.001-68.512-93.83-98.601-93.83z" fill="#ffcd53"/></g></g><g><g><path d="m420.026 177.255h-328.052c-17.57 29.836-48.361 92.437-62.401 183.447 36.797 88.815 124.309 151.298 226.427 151.298 17.579 0 34.725-1.852 51.255-5.371l9.49-9.161 6.441 5.193c72.223-20.555 130.84-73.409 159.24-141.959-14.039-91.009-44.83-153.611-62.4-183.447z" fill="#d0794e"/></g></g><g><g><path d="m91.974 177.255c-17.57 29.836-48.361 92.437-62.401 183.447 19.032 45.938 51.632 84.825 92.807 111.669-3.188-152.231 45.565-254.313 69.593-295.116z" fill="#bd5a40"/></g></g><g><g><path d="m426 197.255h-340c-11.046 0-20-8.954-20-20v-40h380v40c0 11.046-8.954 20-20 20z" fill="#bd5a40"/></g></g><g><g><path d="m166 177.255v-40h-100v40c0 11.046 8.954 20 20 20h100c-11.046 0-20-8.954-20-20z" fill="#aa3c31"/></g></g><g><g><path d="m446 157.255h-380c-11.046 0-20-8.954-20-20 0-11.046 8.954-20 20-20h380c11.046 0 20 8.954 20 20 0 11.046-8.954 20-20 20z" fill="#d0794e"/></g></g><g><g><path d="m146 137.255c0-11.046 8.954-20 20-20h-100c-11.046 0-20 8.954-20 20 0 11.046 8.954 20 20 20h100c-11.046 0-20-8.954-20-20z" fill="#bd5a40"/></g></g><g><g><circle cx="211.932" cy="53.383" fill="#fe9d09" r="15"/></g></g><g><g><circle cx="180.489" cy="83" fill="#fe9d09" r="10"/></g></g><g><g><circle cx="346.957" cy="93" fill="#ffb629" r="10"/></g></g><g><g><g><path d="m325.694 309.832c-9.2-13.139-21.438-21.579-35.246-27.084-8.173-3.258-13.022-11.707-11.494-20.372l.021-.118c.544-3.086-1.517-6.03-4.603-6.574-3.086-.544-6.03 1.517-6.574 4.603l-4.154 23.558.01.002c-2.638 21.263-.487 42.218 12.457 60.704 13.161 18.796 32.914 30.218 53.947 33.361 3.978.594 7.734-2.035 8.536-5.977 4.239-20.839.261-43.307-12.9-62.103z" fill="#ffcd53"/></g></g><g><g><path d="m330.057 377.913c3.978.594 7.734-2.035 8.536-5.977 4.24-20.84.262-43.308-12.898-62.104-9.2-13.139-21.438-21.579-35.246-27.084 15.118 30.945 21.095 54.729 17.193 88.374 7.123 3.35 14.68 5.635 22.415 6.791z" fill="#ffb629"/></g></g><g><g><path d="m372.008 317.999c13.139-9.2 27.526-12.946 42.384-13.396 8.794-.266 16.241-6.547 17.769-15.212l.021-.118c.544-3.086 3.487-5.147 6.574-4.603 3.086.544 5.147 3.487 4.603 6.574l-4.154 23.558-.01-.002c-4.793 20.883-13.982 39.839-32.467 52.783-18.796 13.161-41.264 17.139-62.104 12.898-3.942-.802-6.571-4.557-5.977-8.536 3.143-21.032 14.565-40.785 33.361-53.946z" fill="#ffcd53"/></g></g><g><g><path d="m309.956 399.087c-9.2-13.139-21.438-21.579-35.246-27.084-8.173-3.258-13.022-11.707-11.494-20.372l.021-.118c.544-3.086-1.517-6.03-4.603-6.574-3.086-.544-6.03 1.517-6.574 4.603l-4.154 23.558.01.002c-2.638 21.263-.487 42.218 12.457 60.704 13.161 18.796 32.914 30.218 53.947 33.361 3.978.594 7.734-2.035 8.536-5.977 4.239-20.839.261-43.307-12.9-62.103z" fill="#ffcd53"/></g></g><g><g><path d="m314.319 467.168c3.978.594 7.734-2.035 8.536-5.977 4.24-20.84.263-43.308-12.898-62.104-9.2-13.139-21.438-21.579-35.246-27.084 15.118 30.945 21.095 54.729 17.193 88.374 7.123 3.35 14.68 5.635 22.415 6.791z" fill="#ffb629"/></g></g><g><g><path d="m356.27 407.254c13.139-9.2 27.526-12.946 42.384-13.396 8.794-.266 16.241-6.547 17.769-15.212l.021-.118c.544-3.086 3.487-5.147 6.574-4.603 3.086.544 5.147 3.487 4.603 6.574l-4.154 23.558-.01-.002c-4.793 20.883-13.982 39.839-32.467 52.783-18.796 13.161-41.264 17.139-62.104 12.898-3.942-.802-6.571-4.558-5.977-8.536 3.143-21.033 14.565-40.785 33.361-53.946z" fill="#ffcd53"/></g></g><g><g><path d="m344.624 380.481c-3.942-.802-6.571-4.557-5.977-8.536 3.143-21.033 14.565-40.786 33.361-53.947 13.139-9.2 27.526-12.946 42.384-13.396-24.79 23.908-38.541 44.214-46.382 77.164-7.84.712-15.723.275-23.386-1.285z" fill="#ffb629"/></g></g><g><g><path d="m328.886 469.736c-3.942-.802-6.571-4.557-5.977-8.536 3.143-21.033 14.565-40.786 33.361-53.947 13.139-9.2 27.526-12.946 42.384-13.396-24.79 23.908-38.541 44.214-46.382 77.164-7.84.712-15.723.275-23.386-1.285z" fill="#ffb629"/></g></g><g><g><path d="m323.186 502.661 33.833-191.878-14.772-2.605-34.992 198.451c5.379-1.145 10.689-2.476 15.931-3.968z" fill="#fe9d09"/></g></g><g><g><g><path d="m377.579 183.669.144-.815c.544-3.086-1.517-6.03-4.603-6.574-3.086-.544-6.03 1.517-6.574 4.603l-.144.815c-1.938 10.989-7.315 21.025-15.154 28.967-11.044 11.189-19.251 24.541-22.188 41.2-3.984 22.597 1.906 44.641 14.556 61.736 2.393 3.233 6.908 4.029 10.262 1.809 17.734-11.738 30.809-30.437 34.793-53.034 2.937-16.659-.208-32.012-6.759-46.304-4.65-10.144-6.27-21.414-4.333-32.403z" fill="#ffcd53"/></g></g><g><g><path d="m351.414 255.806c2.937-16.659 11.144-30.011 22.188-41.2 1.959-1.984 3.764-4.1 5.4-6.328-2.328-7.965-2.876-16.367-1.423-24.61l.144-.815c.544-3.086-1.517-6.03-4.603-6.574s-6.03 1.517-6.574 4.603l-.144.815c-1.938 10.989-7.315 21.025-15.154 28.967-11.044 11.189-19.251 24.541-22.188 41.2-3.984 22.597 1.906 44.641 14.556 61.736 2.393 3.233 6.908 4.029 10.262 1.809 2.49-1.648 4.884-3.438 7.178-5.352-9.19-15.814-13.067-34.826-9.642-54.251z" fill="#ffb629"/></g></g></g></g></g></svg>