<svg id="Capa_1" enable-background="new 0 0 512 512" height="512" viewBox="0 0 512 512" width="512" xmlns="http://www.w3.org/2000/svg"><g><g><g><path d="m245 11c-106.898 0-197.789 68.47-231.253 163.939l97.07 286.061c38.546 25.282 84.642 40 134.183 40 135.31 0 245-109.69 245-245s-109.69-245-245-245z" fill="#8ac8f0"/></g></g><g><g><circle cx="261.75" cy="239.25" fill="#b1e4f9" r="200"/></g></g><g><g><path d="m76 79.087h105c11.046 0 20 8.954 20 20v125h-145v-125c0-11.045 8.954-20 20-20z" fill="#ffb629"/></g></g><g><g><path d="m106 79.087h-30c-11.046 0-20 8.954-20 20v125h30v-125c0-11.045 8.954-20 20-20z" fill="#fe9d09"/></g></g><g><g><path d="m133.221 143.948c-2.972-1.486-6.471-1.486-9.443 0-7.02 3.51-15.279-1.595-15.279-9.443v-55.418h40v55.418c.001 7.849-8.258 12.953-15.278 9.443z" fill="#fe9d09"/></g></g><g><g><path d="m148.5 174.939h125v145h-145v-125c0-11.045 8.954-20 20-20z" fill="#ffe47d"/></g></g><g><g><path d="m178.5 174.939h-30c-11.046 0-20 8.954-20 20v125h30v-125c0-11.045 8.954-20 20-20z" fill="#ffcd53"/></g></g><g><g><path d="m108.5 174.939h-94.753c-8.894 25.375-13.747 52.649-13.747 81.061 0 5.041.161 10.043.462 15.008l.008-.008 128.03 48.939v-125c0-11.045-8.954-20-20-20z" fill="#ffe47d"/></g></g><g><g><path d="m4.141 301c7.652 41.219 25.617 78.811 51.125 110h.001l218.233 10v-135z" fill="#fe3f3d"/></g></g><g><g><path d="m4.141 301c7.652 41.219 25.617 78.811 51.125 110h.001l125.733 5.761v-5.761c-108.255-23.319-125-110-125-110v-2.888z" fill="#e52e2b"/></g></g><g><g><path d="m4.139 301h269.361v-30h-273.03c.615 10.18 1.848 20.193 3.669 30z" fill="#fe5653"/></g></g><g><g><path d="m310.035 141h-36.535v60h36.535c16.569 0 30-13.431 30-30 0-16.569-13.432-30-30-30z" fill="#e52e2b"/></g></g><g><g><path d="m413.5 271v-60c0-22.091-17.909-40-40-40h-100v250h140 78.5v-72.566c0-17.088-8.726-32.992-23.139-42.172z" fill="#fe5653"/></g></g><g><g><path d="m453.5 366c-77.32 0-140-62.68-140-140v-55h-40v250h140 78.5v-55z" fill="#fe3f3d"/></g></g><g><g><path d="m288.5 421h-30v-285c0-8.284 6.716-15 15-15 8.284 0 15 6.716 15 15z" fill="#fe6d68"/></g></g><g><g><path d="m273.5 371c-8.284 0-15-6.716-15-15v65h30v-65c0 8.284-6.716 15-15 15z" fill="#fe5653"/></g></g><g><g><path d="m497 366h-50c-8.284 0-15-6.716-15-15 0-8.284 6.716-15 15-15h50c8.284 0 15 6.716 15 15 0 8.284-6.716 15-15 15z" fill="#ffb629"/></g></g><g><g><path d="m323.5 211h66c5.523 0 10 4.477 10 10v50h-36c-27.614 0-50-22.386-50-50 0-5.523 4.477-10 10-10z" fill="#f2f7f4"/></g></g><g><g><path d="m378.852 211h-18.8l39.432 50.317c.003-.106.016-.21.016-.317v-23.652z" fill="#e0e7e3"/></g></g><g><g><path d="m341.24 211h-17.74c-3.251 0-6.13 1.558-7.957 3.96l43.77 55.852c1.382.115 2.776.188 4.187.188h24.76z" fill="#e0e7e3"/></g></g><g><g><path d="m356 301h-35c-4.142 0-7.5-3.358-7.5-7.5 0-4.142 3.358-7.5 7.5-7.5h35c4.142 0 7.5 3.358 7.5 7.5 0 4.142-3.358 7.5-7.5 7.5z" fill="#e52e2b"/></g></g><g><g><path d="m404.5 286h-20c-2.761 0-5-2.239-5-5v-20c0-2.761 2.239-5 5-5h20c8.284 0 15 6.716 15 15 0 8.284-6.716 15-15 15z" fill="#e52e2b"/></g></g><g><g><path d="m110.817 461h242.683v-50h-298.233c15.834 19.358 34.573 36.242 55.55 50z" fill="#f2f7f4"/></g></g><g><g><circle cx="396.333" cy="441" fill="#fff" r="30"/></g><g><path d="m396.333 471.5c-16.818 0-30.5-13.682-30.5-30.5s13.682-30.5 30.5-30.5 30.5 13.682 30.5 30.5-13.682 30.5-30.5 30.5zm0-60c-16.267 0-29.5 13.233-29.5 29.5s13.233 29.5 29.5 29.5 29.5-13.233 29.5-29.5-13.233-29.5-29.5-29.5z"/></g></g><g><g><path d="m502 381h-60c-5.523 0-10 4.477-10 10v70h70c5.523 0 10-4.477 10-10v-60c0-5.523-4.477-10-10-10z" fill="#f2f7f4"/></g></g><g><g><circle cx="396.333" cy="441" fill="#564c49" r="60"/></g></g><g><g><path d="m381.333 486c0-8.284 6.716-15 15-15v-60c-8.284 0-15-6.716-15-15s6.716-15 15-15c-33.137 0-60 26.863-60 60s26.863 60 60 60c-8.284 0-15-6.716-15-15z" fill="#463c39"/></g></g><g><g><circle cx="396.333" cy="441" fill="#f2f7f4" r="30"/></g></g><g><g><path d="m396.333 441c0-11.102 6.036-20.789 15-25.977-4.414-2.554-9.534-4.023-15-4.023-16.569 0-30 13.431-30 30s13.431 30 30 30c5.466 0 10.586-1.469 15-4.023-8.964-5.188-15-14.875-15-25.977z" fill="#e0e7e3"/></g></g><g><g><path d="m205.721 239.8c-2.972-1.486-6.471-1.486-9.443 0-7.02 3.51-15.279-1.595-15.279-9.443v-55.418h40v55.418c.001 7.848-8.258 12.953-15.278 9.443z" fill="#ffcd53"/></g></g><g><g><path d="m60.721 239.8c-2.972-1.486-6.471-1.486-9.443 0-7.019 3.51-15.278-1.595-15.278-9.443v-55.418h40v55.418c0 7.848-8.259 12.953-15.279 9.443z" fill="#ffcd53"/></g></g><g><g><path d="m56 271h-55.53c.615 10.18 1.848 20.193 3.669 30h51.861c-8.284 0-15-6.716-15-15s6.716-15 15-15z" fill="#fe3f3d"/></g></g><g><g><path d="m156 436c0-13.807 11.193-25 25-25h-125.733c15.833 19.358 34.573 36.242 55.55 50h70.183c-13.807 0-25-11.193-25-25z" fill="#e0e7e3"/></g></g></g></svg>