<svg id="Capa_1" enable-background="new 0 0 512 512" height="512" viewBox="0 0 512 512" width="512" xmlns="http://www.w3.org/2000/svg"><g><g><g><path d="m245 11c-135.31 0-245 109.69-245 245 0 22.796 3.125 44.861 8.95 65.8l127.528 153.895c32.713 16.19 69.55 25.305 108.522 25.305 135.31 0 245-109.69 245-245s-109.69-245-245-245z" fill="#fe5653"/></g></g><g><g><circle cx="261.39" cy="233.241" fill="#fe6d68" r="200"/></g></g><g><g><path d="m40.244 261.317h189.756v174.683h-120l-69.756-95z" fill="#fe9d09"/></g></g><g><g><path d="m502 421v-119.503c0-18.012-12.039-33.803-29.408-38.572l-94.037-25.822c-13.755-3.777-24.458-14.593-28.09-28.387l-34.132-129.629h-236.296l-40 182.23 119.218 24.683 55.745 90.659v44.341z" fill="#ffcd53"/></g></g><g><g><path d="m177.383 94.087v-15h-97.346l-40 182.23 119.218 24.683 55.745 90.659v44.341h287v-40h-105.546c-41.421 0-75-33.579-75-75l-144.071-181.913c-8.284 0-15-6.716-15-15s6.716-15 15-15z" fill="#ffb629"/></g></g><g><g><path d="m233.994 306h87.461v-89.646l-24.294-92.267h-196.288l-19.16 87.29c64.933 4.019 121.133 41.057 152.281 94.623z" fill="#fe6d68"/></g></g><g><g><path d="m130 154.087c-8.284 0-15 6.716-15 15v47.389c10.354 2.548 20.385 5.934 30 10.118v-57.507c0-8.284-6.716-15-15-15z" fill="#463c39"/></g></g><g><g><path d="m497 336h-50c-8.284 0-15-6.716-15-15 0-8.284 6.716-15 15-15h50c8.284 0 15 6.716 15 15 0 8.284-6.716 15-15 15z" fill="#fe9d09"/></g></g><g><g><path d="m264.6 217.101h44.977v25.725h-44.977z" fill="#f2f7f4" transform="matrix(.924 .383 -.383 .924 109.857 -92.359)"/></g></g><g><g><path d="m286.277 229.627c2.718-6.563 10.242-9.679 16.805-6.961l-31.848-13.192-9.844 23.766 31.848 13.192c-6.563-2.718-9.679-10.242-6.961-16.805z" fill="#e0e7e3"/></g></g><g><g><path d="m304.649 223.315-9.844 23.766c-2.718 6.563.398 14.087 6.961 16.805l19.689 8.155v-55.688c-6.564-2.717-14.088.399-16.806 6.962z" fill="#564c49"/></g></g><g><g><path d="m321.454 247.319-10.948-4.535c-6.563-2.718-9.679-10.242-6.961-16.805l-8.741 21.102c-2.719 6.563.398 14.087 6.961 16.805l19.689 8.155z" fill="#463c39"/></g></g><g><g><path d="m292.962 190.63-29.533 71.299c-2.718 6.563-10.242 9.679-16.805 6.961-6.563-2.718-9.679-10.242-6.961-16.805l29.533-71.299c2.718-6.563 10.242-9.679 16.805-6.961 6.563 2.718 9.679 10.242 6.961 16.805z" fill="#564c49"/></g></g><g><g><path d="m256.468 245.124c-6.563-2.718-9.679-10.242-6.961-16.805l-9.844 23.766c-2.718 6.563.398 14.087 6.961 16.805 6.563 2.718 14.087-.398 16.805-6.961l9.844-23.766c-2.718 6.563-10.242 9.679-16.805 6.961z" fill="#463c39"/></g></g><g><g><path d="m210 411h143.5v50h-143.5z" fill="#f2f7f4"/></g></g><g><g><path d="m502 381h-70v80h70c5.523 0 10-4.477 10-10v-60c0-5.523-4.477-10-10-10z" fill="#f2f7f4"/></g></g><g><g><circle cx="376.333" cy="421" fill="#564c49" r="80"/></g></g><g><g><path d="m376.333 341c-44.183 0-79.999 35.817-79.999 80s35.817 80 79.999 80c-11.028 0-20-8.972-20-20s8.972-20 20-20v-80c-11.028 0-20-8.972-20-20s8.972-20 20-20z" fill="#463c39"/></g></g><g><g><circle cx="376.333" cy="421" fill="#352c28" r="40"/></g></g><g><g><circle cx="376.333" cy="421" fill="#f2f7f4" r="20"/></g></g><g><g><path d="m376.333 421c0-7.383 4.032-13.829 10-17.294-2.946-1.71-6.355-2.706-10-2.706-11.028 0-20 8.972-20 20s8.972 20 20 20c3.645 0 7.054-.996 10-2.706-5.968-3.465-10-9.911-10-17.294z" fill="#e0e7e3"/></g></g><g><g><path d="m70 301c-22.988 0-44.16 7.762-61.05 20.8 5.947 21.378 14.727 41.573 25.897 60.167l37.567 18.074 9.798 39.019c16.291 14.496 34.52 26.862 54.266 36.635 20.565-18.315 33.522-44.99 33.522-74.695 0-55.229-44.772-100-100-100z" fill="#564c49"/></g></g><g><g><path d="m70 398.88v-57.88c-11.028 0-20-8.972-20-20s8.972-20 20-20c-22.988 0-44.16 7.762-61.05 20.8 5.946 21.375 14.718 41.57 25.887 60.163z" fill="#463c39"/></g></g><g><g><path d="m70 341c-18.346 0-34.785 8.285-45.799 21.3 3.247 6.733 6.795 13.293 10.623 19.665l.006-.006 37.585 18.083 9.804 39.042-.006.001c5.566 4.951 11.359 9.654 17.361 14.088 18.15-10.328 30.426-29.838 30.426-52.173 0-33.084-26.916-60-60-60z" fill="#352c28"/></g></g><g><g><path d="m70 361c-15.168 0-28.39 8.486-35.17 20.959 12.842 21.382 28.856 40.636 47.389 57.125 16.097-5.176 27.781-20.288 27.781-38.084 0-22.056-17.944-40-40-40z" fill="#f2f7f4"/></g></g><g><g><g><path d="m34.83 381.959c10 16.649 21.924 32.008 35.461 45.778-6.391-7.088-10.291-16.463-10.291-26.737 0-16.753 10.357-31.124 25-37.071-4.636-1.882-9.697-2.929-15-2.929-15.168 0-28.39 8.486-35.17 20.959z" fill="#e0e7e3"/></g></g></g><g><g><path d="m70.037 241c-13.72-.003-27.041 1.734-39.757 4.997-11.707 3.005-17.936 15.809-13.311 26.975l.003.007c3.784 9.135 13.694 14.215 23.272 11.759 8.959-2.297 18.319-3.583 27.951-3.726 66.985-.993 121.805 54.437 121.805 121.43v58.558c0 11.046 8.954 20 20 20 11.046 0 20-8.954 20-20v-58.356c0-88.619-71.344-161.623-159.963-161.644z" fill="#ffe47d"/></g></g><g><g><path d="m341.333 64.087h-248.626c-11.39 9.051-21.951 19.095-31.562 30h280.189c8.284 0 15-6.716 15-15-.001-8.284-6.717-15-15.001-15z" fill="#ffe47d"/></g></g><g><g><path d="m61.144 94.087h116.239c-8.284 0-15-6.716-15-15s6.716-15 15-15h-84.676c-11.39 9.051-21.952 19.096-31.563 30z" fill="#ffcd53"/></g></g><g><g><path d="m162.01 275.541c3.517 0 6.826.888 9.719 2.449-27.605-23.058-63.001-36.981-101.692-36.99-13.72-.003-27.041 1.734-39.757 4.997-11.707 3.005-17.936 15.809-13.311 26.975l.003.007c3.784 9.135 13.694 14.215 23.272 11.76 8.959-2.297 18.319-3.583 27.951-3.726 29.42-.437 56.492 10.013 77.605 27.544-2.679-3.465-4.29-7.798-4.29-12.516 0-11.321 9.178-20.5 20.5-20.5z" fill="#ffcd53"/></g></g></g></svg>