<svg id="Capa_1" enable-background="new 0 0 512 512" height="512" viewBox="0 0 512 512" width="512" xmlns="http://www.w3.org/2000/svg"><g><g><g><path d="m481.472 362.992c12.567-29.48 19.528-61.922 19.528-95.992 0-135.31-109.69-245-245-245s-245 109.69-245 245c0 34.07 6.961 66.512 19.528 95.992z" fill="#3b6945"/></g></g><g><g><path d="m464.922 395.015c6.266-10.205 11.809-20.902 16.55-32.023-19.854-159.825-60.855-262.992-60.855-262.992h-329.234s-41.001 103.167-60.855 262.992c4.741 11.121 10.284 21.818 16.55 32.023z" fill="#b1e4f9"/></g></g><g><g><path d="m96.934 395.015c17.927-177.927 64.449-295.015 64.449-295.015h-70s-41.001 103.167-60.855 262.992c4.743 11.126 10.302 21.816 16.572 32.023z" fill="#8ac8f0"/></g></g><g><g><path d="m437.053 226.847c-.022-.094-.044-.189-.066-.283-3.625-15.568-17.528-26.564-33.511-26.564h-294.859c-16.003 0-29.896 11.022-33.523 26.608-10.64 45.716-21.286 102.877-28.016 168.407 43.09 70.175 120.536 116.985 208.922 116.985 20.682 0 40.764-2.564 59.947-7.389l-.002-.011 12.629-19.983 25.302 7.031.011.006c46.156-20.143 84.905-54.09 111.029-96.628-6.982-68.121-18.007-125.806-27.863-168.179z" fill="#ffcd53"/></g></g><g><g><path d="m75.094 226.608c-10.64 45.716-21.286 102.877-28.016 168.407 12.466 20.302 27.809 38.643 45.46 54.465 6.228-102.199 22.932-188.315 38.334-249.48h-22.255c-16.003 0-29.895 11.022-33.523 26.608z" fill="#ffb629"/></g></g><g><g><path d="m66 113.713c0 15.744 17.342 25.304 30.667 16.918 8.265-5.201 16.168-10.632 32.67-10.632 31.668 0 31.668 20 63.337 20 31.667 0 31.667-20 63.334-20 31.666 0 31.666 20 63.332 20 31.665 0 31.665-20 63.329-20 16.498 0 24.4 5.429 32.664 10.63 13.325 8.386 30.668-1.173 30.668-16.918v-53.711h-380.001z" fill="#f2f7f4"/></g></g><g><g><path d="m166 60h-100v53.713c0 15.744 17.342 25.304 30.667 16.918 8.265-5.201 16.168-10.632 32.67-10.632 31.668 0 31.668 20 63.337 20-32.752-21.382-26.674-59.999-26.674-59.999z" fill="#e0e7e3"/></g></g><g><g><path d="m446 80h-380c-11.046 0-20-8.954-20-20v-40h420v40c0 11.046-8.954 20-20 20z" fill="#e0e7e3"/></g></g><g><g><path d="m146 60v-40h-100v40c0 11.046 8.954 20 20 20h100c-11.046 0-20-8.954-20-20z" fill="#d1dad5"/></g></g><g><g><path d="m466 40h-420c-11.046 0-20-8.954-20-20 0-11.046 8.954-20 20-20h420c11.046 0 20 8.954 20 20 0 11.046-8.954 20-20 20z" fill="#f2f7f4"/></g></g><g><g><path d="m126 20c0-11.046 8.954-20 20-20h-100c-11.046 0-20 8.954-20 20 0 11.046 8.954 20 20 20h100c-11.046 0-20-8.954-20-20z" fill="#e0e7e3"/></g></g><g><g><g><path d="m301.144 364.341-36.955 15.307 51.756 124.952c13.095-3.294 25.769-7.645 37.931-12.952z" fill="#bd5a40"/></g></g><g><g><path d="m264.189 379.649 30.615 73.91c-4.227-10.205.619-21.904 10.824-26.131s21.904.619 26.131 10.824l-30.615-73.91z" fill="#aa3c31"/></g></g><g><g><path d="m308.798 382.818-36.955 15.307c-10.205 4.227-21.904-.619-26.131-10.824l-7.654-18.478 73.91-30.615 7.654 18.478c4.227 10.206-.619 21.905-10.824 26.132z" fill="#d0794e"/></g></g><g><g><path d="m273.428 375.821-7.654-18.478-27.716 11.48 7.654 18.478c4.227 10.205 15.926 15.051 26.131 10.824l27.716-11.48c-10.204 4.227-21.904-.619-26.131-10.824z" fill="#bd5a40"/></g></g><g><g><path d="m315.796 347.448-73.91 30.615c-15.307 6.34-32.856-.929-39.197-16.236l-53.576-129.343c-6.341-15.307.929-32.856 16.236-39.197l73.91-30.615c15.307-6.34 32.856.929 39.197 16.236l53.576 129.343c6.34 15.308-.929 32.857-16.236 39.197z" fill="#bd5a40"/></g></g><g><g><path d="m258.121 338.866-53.576-129.343c-6.341-15.307.928-32.856 16.236-39.197l-55.433 22.961c-15.307 6.341-22.576 23.89-16.236 39.197l53.576 129.343c6.341 15.307 23.889 22.576 39.197 16.236l55.433-22.961c-15.307 6.341-32.856-.928-39.197-16.236z" fill="#aa3c31"/></g></g><g><g><path d="m147.906 231.438 130.663-54.122c7.289-3.019 15.646.442 18.665 7.731 3.019 7.289-.442 15.646-7.731 18.665l-130.663 54.122c-7.289 3.019-15.646-.442-18.665-7.731-3.02-7.289.442-15.646 7.731-18.665z" fill="#d0794e"/></g></g><g><g><path d="m195.607 227.142c-3.019-7.289.442-15.646 7.731-18.665l-55.433 22.961c-7.289 3.019-10.751 11.376-7.731 18.665 3.019 7.289 11.376 10.751 18.665 7.731l55.433-22.961c-7.289 3.019-15.645-.442-18.665-7.731z" fill="#bd5a40"/></g></g><g><g><path d="m169.774 284.231 130.663-54.122c7.289-3.019 15.646.442 18.665 7.731 3.019 7.289-.442 15.646-7.731 18.665l-130.663 54.122c-7.289 3.019-15.646-.442-18.665-7.731-3.02-7.289.441-15.646 7.731-18.665z" fill="#d0794e"/></g></g><g><g><path d="m217.475 279.935c-3.019-7.289.442-15.646 7.731-18.665l-55.433 22.961c-7.289 3.019-10.751 11.376-7.731 18.665 3.019 7.289 11.376 10.751 18.665 7.731l55.433-22.961c-7.289 3.02-15.646-.442-18.665-7.731z" fill="#bd5a40"/></g></g><g><g><path d="m191.641 337.024 130.663-54.122c7.289-3.019 15.646.442 18.665 7.731 3.019 7.289-.442 15.646-7.731 18.665l-130.663 54.122c-7.289 3.019-15.646-.442-18.665-7.731-3.019-7.289.442-15.646 7.731-18.665z" fill="#d0794e"/></g></g><g><g><path d="m239.343 332.728c-3.019-7.289.442-15.646 7.731-18.665l-55.433 22.961c-7.289 3.019-10.751 11.376-7.731 18.665 3.019 7.289 11.376 10.751 18.665 7.731l55.433-22.961c-7.289 3.02-15.646-.442-18.665-7.731z" fill="#bd5a40"/></g></g></g><g><g><circle cx="391.638" cy="353.875" fill="#ffb629" r="20"/></g></g><g><g><circle cx="209.525" cy="453.559" fill="#ffb629" r="20"/></g></g><g><g><circle cx="139.083" cy="388.875" fill="#ffb629" r="15"/></g></g><g><g><circle cx="391.638" cy="258.925" fill="#ffb629" r="15"/></g></g></g></svg>