<svg id="Capa_1" enable-background="new 0 0 512 512" height="512" viewBox="0 0 512 512" width="512" xmlns="http://www.w3.org/2000/svg"><g><g><g><path d="m488.384 344.787-13.682-45.021 26.278-34.357c-.858-134.576-110.202-243.409-244.98-243.409s-244.122 108.833-244.98 243.408l26.278 34.357-13.682 45.021h-.001c16.053 47.973 46.542 89.333 86.313 118.916h292.145c39.771-29.583 70.259-70.942 86.313-118.916h-.002z" fill="#3b6945"/></g></g><g><g><circle cx="256" cy="252" fill="#477d73" r="200"/></g></g><g><g><path d="m500.98 265.408-155.749-22.494h-178.462l-155.749 22.494c-.003.532-.02 1.06-.02 1.592 0 27.192 4.438 53.346 12.616 77.787h80.714c12.21 0 21.57 10.845 19.785 22.924l-14.188 95.991c26.929 20.03 58.112 34.659 91.946 42.291l.001-.005 54.126-21.797 54.126 21.797-.001.005c33.834-7.632 65.018-22.261 91.947-42.291l-14.188-95.991c-1.785-12.079 7.575-22.924 19.785-22.924h80.714c8.179-24.441 12.617-50.595 12.617-77.787 0-.532-.017-1.06-.02-1.592z" fill="#c8ea73"/></g></g><g><g><path d="m201.874 505.989c17.414 3.927 35.526 6.011 54.126 6.011s36.712-2.084 54.126-6.012v-259.329h-108.252z" fill="#f2f7f4"/></g></g><g><g><path d="m232.713 383.851v-137.192h-30.839v259.329c17.414 3.928 35.526 6.012 54.126 6.012s36.712-2.084 54.126-6.012c-62.789-7.054-77.413-49.116-77.413-122.137z" fill="#e0e7e3"/></g></g><g><g><path d="m335.289 83.677s28.051 30.665 23.285 38.023c-2.485 3.837-9.505 2.245-15.656-.154 5.037 28.801 5.283 44.028.722 45.638-3.327 1.174-9.207-4.884-17.639-18.174 2.84 18.857 2.279 32.871-2.138 34.21-18.157 5.502-42.617-56.723-62.731-99.542h74.157z" fill="#ffcd53"/></g></g><g><g><path d="m176.711 83.677s-28.051 30.665-23.285 38.023c2.485 3.837 9.505 2.245 15.656-.154-5.037 28.801-5.283 44.028-.722 45.638 3.327 1.174 9.207-4.884 17.639-18.174-2.84 18.857-2.279 32.871 2.138 34.21 18.157 5.502 42.617-56.723 62.731-99.542h-74.157z" fill="#ffb629"/></g></g><g><g><path d="m299.695 194.817v-77.211h-43.695-43.695v77.211c0 17.306-11.336 32.57-27.905 37.571l-22.144 6.684c-4.428 1.337-4.795 7.391-.604 9.347 6.604 3.082 13.603 8.295 17.389 17.077 8.512 19.745 21.018 22.954 36.767 21.787 22.979-1.7 16.043 27.917 40.192 27.917s17.213-29.617 40.191-27.915c15.749 1.167 28.255-2.043 36.767-21.787 3.786-8.782 10.784-13.995 17.389-17.077 4.192-1.956 3.824-8.011-.604-9.347l-22.144-6.684c-16.567-5.002-27.904-20.266-27.904-37.573z" fill="#ffb629"/></g></g><g><g><path d="m318.5 229.159h-125c-4.142 0-7.5-3.358-7.5-7.5 0-4.142 3.358-7.5 7.5-7.5h125c4.142 0 7.5 3.358 7.5 7.5 0 4.142-3.358 7.5-7.5 7.5z" fill="#aa3c31"/></g></g><g><g><g><path d="m286.787 305.729c-4.143 0-7.5-3.358-7.5-7.5v-44.591c0-13.498-10.446-24.479-23.287-24.479-12.84 0-23.287 10.981-23.287 24.479v44.591c0 4.142-3.358 7.5-7.5 7.5s-7.5-3.358-7.5-7.5v-44.591c0-21.769 17.175-39.479 38.287-39.479 21.111 0 38.287 17.71 38.287 39.479v44.591c0 4.143-3.357 7.5-7.5 7.5z" fill="#bd5a40"/></g></g></g><g><g><path d="m241 254.159c-4.142 0-7.5-3.358-7.5-7.5v-35c0-4.142 3.358-7.5 7.5-7.5 4.142 0 7.5 3.358 7.5 7.5v35c0 4.142-3.358 7.5-7.5 7.5z" fill="#d0794e"/></g></g><g><g><path d="m256 254.159c-4.142 0-7.5-3.358-7.5-7.5v-35c0-4.142 3.358-7.5 7.5-7.5 4.142 0 7.5 3.358 7.5 7.5v35c0 4.142-3.358 7.5-7.5 7.5z" fill="#bd5a40"/></g></g><g><g><path d="m271 254.159c-4.142 0-7.5-3.358-7.5-7.5v-35c0-4.142 3.358-7.5 7.5-7.5 4.142 0 7.5 3.358 7.5 7.5v35c0 4.142-3.358 7.5-7.5 7.5z" fill="#d0794e"/></g></g><g><g><path d="m320.762 117.849c0 47.689-28.995 103.619-64.762 103.619s-64.762-55.93-64.762-103.619 28.995-81.979 64.762-81.979 64.762 34.289 64.762 81.979z" fill="#ffe47d"/></g></g><g><g><path d="m231.238 117.849c0-38.38 18.786-68.065 44.762-78.198-6.3-2.458-13.018-3.781-20-3.781-35.767 0-64.762 34.289-64.762 81.979s28.995 103.619 64.762 103.619c6.98 0 13.701-2.138 20-5.922-25.978-15.603-44.762-59.315-44.762-97.697z" fill="#ffcd53"/></g></g><g><g><path d="m333.73 93.677-18.364-72.362c-3.18-12.537-14.464-21.315-27.398-21.315-4.633 0-9.195 1.139-13.284 3.316l-4.253 2.264c-4.443 2.365-9.398 3.602-14.431 3.602s-9.989-1.237-14.431-3.602l-4.252-2.264c-4.09-2.177-8.652-3.316-13.285-3.316-12.934 0-24.218 8.778-27.399 21.314l-18.363 72.363z" fill="#d0794e"/></g></g><g><g><path d="m237.095 64.58c-12.07-11.628-13.918-47.165 18.905-55.398-5.033 0-9.989-1.237-14.431-3.602l-4.252-2.264c-4.09-2.177-8.652-3.316-13.285-3.316-12.934 0-24.218 8.778-27.399 21.314l-18.363 72.363h58.826v-29.097z" fill="#bd5a40"/></g></g><g><g><path d="m337.123 54.77c-1.169-4.605-5.94-7.292-10.494-5.939-21.536 6.399-33.097 16.788-70.629 16.788s-49.093-10.388-70.629-16.787c-4.554-1.353-9.325 1.333-10.494 5.939l-8.108 31.949 89.231 20.616 89.231-20.615z" fill="#aa3c31"/></g></g><g><g><g><path d="m231.681 101.717 1.981-8.185c-7.941-1.416-13.231-9.002-11.815-16.943 1.315-7.373 7.95-12.452 15.248-12.008-23.401-2.786-34.301-10.572-51.724-15.749-4.554-1.353-9.325 1.333-10.494 5.939l-8.108 31.949z" fill="#962e29"/></g></g></g><g><g><g><path d="m256 119.851c-38.783 0-58.42-7.363-77.41-14.485-17.485-6.557-34.002-12.751-67.846-12.751-7.521 0-13.618-6.097-13.618-13.618s6.097-13.618 13.618-13.618c38.783 0 58.42 7.363 77.41 14.485 17.485 6.557 34.002 12.751 67.846 12.751s50.361-6.194 67.846-12.751c18.99-7.121 38.626-14.485 77.41-14.485 7.521 0 13.618 6.097 13.618 13.618s-6.097 13.618-13.618 13.618c-33.844 0-50.361 6.194-67.846 12.751-18.99 7.122-38.627 14.485-77.41 14.485z" fill="#d0794e"/></g></g></g><g><g><path d="m242.382 106.233c0-7.521 6.097-13.618 13.618-13.618-33.844 0-50.361-6.194-67.846-12.751-18.99-7.121-38.626-14.485-77.41-14.485-7.521 0-13.618 6.097-13.618 13.618s6.097 13.618 13.618 13.618c33.844 0 50.361 6.194 67.846 12.751 18.99 7.121 38.626 14.485 77.41 14.485-7.521 0-13.618-6.097-13.618-13.618z" fill="#bd5a40"/></g></g><g><g><path d="m109.928 463.703c14.455 10.752 30.145 19.93 46.804 27.322 5.738-53.59 13.109-158.49-14.625-175.825-28.151-17.596-94.02-2.923-125.188 5.511 1.833 8.187 4.069 16.222 6.697 24.077h80.714c12.21 0 21.57 10.845 19.785 22.924z" fill="#aad963"/></g></g><g><g><path d="m402.072 463.703c-14.455 10.752-30.145 19.93-46.804 27.322-5.738-53.59-13.109-158.49 14.625-175.825 28.151-17.596 94.02-2.923 125.188 5.511-1.833 8.187-4.069 16.222-6.697 24.077h-80.714c-12.21 0-21.57 10.845-19.785 22.924z" fill="#aad963"/></g></g></g></svg>