<svg id="Capa_1" enable-background="new 0 0 512 512" height="512" viewBox="0 0 512 512" width="512" xmlns="http://www.w3.org/2000/svg"><g><g><g><path d="m245 11c-52.729 0-101.565 16.661-141.537 45v400c39.973 28.339 88.808 45 141.537 45 135.31 0 245-109.69 245-245s-109.69-245-245-245z" fill="#ffcd53"/></g></g><g><g><g><path d="m334.222 56h-230.759c-45.084 31.963-78.888 78.786-94.278 133.333h325.038c24.546 0 44.444-29.848 44.444-66.667 0-36.818-19.899-66.666-44.445-66.666z" fill="#d0794e"/></g></g><g><g><path d="m9.185 189.333h80.002c-24.546 0-44.444-29.848-44.444-66.667 0-2.83.131-5.613.359-8.351-15.97 22.491-28.236 47.793-35.917 75.018z" fill="#bd5a40"/></g></g><g><g><path d="m211.682 113.143c-5.26 0-9.524-4.264-9.524-9.524s4.264-9.524 9.524-9.524h162.701c-2.262-7.142-5.347-13.579-9.07-19.048l-154.425-.001c-15.341 0-27.778 12.436-27.778 27.778 0 5.699-4.62 10.319-10.319 10.319h-126.839c-4.416 6.142-8.55 12.499-12.393 19.048h344.649c.297-3.112.459-6.289.459-9.524s-.162-6.412-.459-9.524z" fill="#aa3c31"/></g></g><g><g><path d="m33.549 132.19h11.652c-.297-3.112-.459-6.289-.459-9.524 0-2.83.131-5.613.359-8.351-4.101 5.778-7.954 11.743-11.552 17.875z" fill="#962e29"/></g></g><g><g><path d="m61.137 94.095h61.656c21.039 0 38.095-17.056 38.095-38.095h-19.048c0 10.52-8.528 19.048-19.048 19.048h-42.955c-6.574 6.003-12.812 12.367-18.7 19.047z" fill="#aa3c31"/></g></g><g><g><path d="m127.282 170.286h238.032c3.722-5.469 6.807-11.906 9.069-19.048h-247.101c-21.039 0-38.095 17.056-38.095 38.095h19.048c-.001-10.519 8.527-19.047 19.047-19.047z" fill="#aa3c31"/></g></g><g><g><path d="m57.441 170.286c5.26 0 9.524-4.264 9.524-9.524s-4.264-9.524-9.524-9.524h-33.961c-2.942 6.21-5.631 12.564-8.053 19.048z" fill="#aa3c31"/></g></g><g><g><path d="m57.441 170.286c.213 0 .422-.018.631-.032-3.712-5.462-6.789-11.888-9.047-19.016h-25.545c-2.942 6.211-5.631 12.563-8.053 19.048z" fill="#962e29"/></g></g><g><g><path d="m384.364 194.805c-.007-.028-.015-.056-.023-.084-1.496-5.22-.156-10.873 3.981-14.39 9.039-7.684 13.756-15.595 11.157-20.096-.277-.479-.628-.906-1.049-1.281-4.599-4.096-5.484-10.91-2.941-16.519 2.79-6.154 3.235-11.239.672-13.802s-7.648-2.118-13.802.672c-5.609 2.543-12.422 1.658-16.519-2.941-.375-.421-.802-.773-1.281-1.049-4.501-2.599-12.412 2.118-20.096 11.157-3.517 4.137-9.17 5.477-14.39 3.981-.028-.008-.056-.016-.084-.023-7.016-1.88-16.768 11.763-21.781 30.473-10.526 38.559-37.476 83.159-37.476 83.159s44.6-26.95 83.159-37.476c18.71-5.013 32.353-14.765 30.473-21.781z" fill="#8bc852"/></g></g><g><g><path d="m374.384 189.333c-15.613-5.992-30.345-38.411-7.144-61.637-.492-.405-.964-.843-1.4-1.332-.375-.421-.802-.773-1.281-1.049-4.501-2.599-12.412 2.118-20.096 11.157-3.517 4.137-9.17 5.477-14.39 3.981-.028-.008-.056-.016-.084-.023-7.016-1.88-16.768 11.763-21.781 30.473-10.526 38.559-37.476 83.159-37.476 83.159s44.6-26.95 83.159-37.476c8.047-2.156 15.152-5.19 20.493-8.505z" fill="#69b76b"/></g></g><g><g><path d="m445.333 256c0-36.819-19.898-66.667-44.444-66.667h-391.704c-5.981 21.197-9.185 43.557-9.185 66.667s3.204 45.47 9.185 66.667h391.704c24.546 0 44.444-29.848 44.444-66.667z" fill="#bd5a40"/></g></g><g><g><path d="m171.858 189.333h-162.673c-5.981 21.197-9.185 43.557-9.185 66.667s3.204 45.47 9.185 66.667h162.674c-24.546 0-44.444-29.848-44.444-66.667s19.897-66.667 44.443-66.667z" fill="#aa3c31"/></g></g><g><g><path d="m445.333 256c0-3.235-.162-6.412-.459-9.524h-150.52c-5.26 0-9.524-4.264-9.524-9.524s4.264-9.524 9.524-9.524h146.696c-2.262-7.142-5.348-13.579-9.07-19.048l-138.42-.001c-15.341 0-27.778 12.436-27.778 27.778 0 5.699-4.62 10.319-10.319 10.319h-255.261c-.121 3.161-.202 6.333-.202 9.524s.081 6.362.202 9.524h444.673c.296-3.112.458-6.289.458-9.524z" fill="#962e29"/></g></g><g><g><path d="m127.414 256c0-3.235.162-6.412.459-9.524h-127.685c-.121 3.16-.188 6.334-.188 9.524s.067 6.364.188 9.524h127.684c-.296-3.112-.458-6.289-.458-9.524z" fill="#841e1e"/></g></g><g><g><path d="m205.465 208.381h-200.824c-1.235 6.267-2.227 12.619-2.974 19.048h203.798c21.039 0 38.095-17.056 38.095-38.095h-19.048c.001 10.519-8.527 19.047-19.047 19.047z" fill="#962e29"/></g></g><g><g><path d="m4.636 208.381c-1.235 6.267-2.231 12.619-2.978 19.048h130.039c2.262-7.142 5.347-13.579 9.069-19.048z" fill="#841e1e"/></g></g><g><g><path d="m209.953 303.619h222.028c3.722-5.469 6.807-11.906 9.069-19.048h-231.097c-21.039 0-38.095 17.056-38.095 38.095h19.048c0-10.519 8.528-19.047 19.047-19.047z" fill="#962e29"/></g></g><g><g><path d="m140.112 284.571h-138.445c.747 6.428 1.739 12.781 2.973 19.048h135.471c5.26 0 9.524-4.264 9.524-9.524.001-5.26-4.263-9.524-9.523-9.524z" fill="#841e1e"/></g></g><g><g><path d="m94.58 326.2c.007-.028.015-.056.023-.084 1.496-5.22.156-10.873-3.981-14.39-9.039-7.684-13.756-15.595-11.157-20.096.277-.479.628-.906 1.049-1.281 4.599-4.096 5.484-10.91 2.941-16.519-2.79-6.154-3.235-11.239-.672-13.802s7.648-2.118 13.802.672c5.609 2.543 12.422 1.658 16.519-2.941.375-.421.802-.773 1.281-1.049 4.501-2.599 12.412 2.118 20.096 11.157 3.517 4.137 9.17 5.477 14.39 3.981.028-.008.056-.016.084-.023 7.016-1.88 16.768 11.763 21.781 30.473 10.526 38.559 37.476 83.159 37.476 83.159s-44.6-26.95-83.159-37.476c-18.71-5.013-32.353-14.765-30.473-21.781z" fill="#aad963"/></g></g><g><g><path d="m148.319 322.667c-26.043 0-52.34-40.943-44.856-60.579-2.321.068-4.69-.395-6.878-1.387-6.154-2.79-11.239-3.235-13.802-.672s-2.118 7.648.672 13.802c2.543 5.609 1.658 12.423-2.941 16.519-.421.375-.773.802-1.049 1.281-2.599 4.501 2.118 12.412 11.157 20.096 4.137 3.517 5.477 9.17 3.981 14.39-.008.028-.016.056-.023.084-1.88 7.016 11.763 16.768 30.473 21.781 7.65 2.088 15.537 4.824 23.266 7.867z" fill="#8bc852"/></g></g><g><g><path d="m512 389.33c0 36.82-19.9 66.67-44.44 66.67h-364.1c-45.08-31.96-78.89-78.78-94.28-133.33h458.38c4.33 0 8.52.93 12.48 2.67 18.47 8.08 31.96 33.67 31.96 63.99z" fill="#d0794e"/></g></g><g><g><path d="m234.837 322.667h-225.652c15.39 54.547 49.194 101.37 94.278 133.333h131.374c-24.546 0-44.444-29.848-44.444-66.667s19.898-66.666 44.444-66.666z" fill="#bd5a40"/></g></g><g><g><path d="m512 389.33c0 3.24-.16 6.42-.46 9.53h-465.6c-4.42-6.14-8.55-12.5-12.39-19.05h284.89c5.7 0 10.32-4.62 10.32-10.32 0-15.34 12.44-27.78 27.78-27.78h142.11c3.72 5.47 6.8 11.91 9.07 19.05h-150.39c-5.26 0-9.52 4.27-9.52 9.53s4.26 9.52 9.52 9.52h154.21c.3 3.11.46 6.29.46 9.52z" fill="#aa3c31"/></g></g><g><g><path d="m33.552 379.81c3.844 6.552 7.987 12.906 12.405 19.05h144.894c-.297-3.113-.459-6.291-.459-9.527 0-3.235.162-6.412.459-9.523z" fill="#962e29"/></g></g><g><g><path d="m268.444 341.714h-253.017c2.422 6.484 5.11 12.837 8.053 19.048h244.964c21.039 0 38.095-17.056 38.095-38.095h-19.048c.001 10.519-8.527 19.047-19.047 19.047z" fill="#aa3c31"/></g></g><g><g><path d="m15.427 341.714c2.422 6.484 5.112 12.837 8.054 19.048h171.194c2.262-7.142 5.347-13.579 9.069-19.048z" fill="#962e29"/></g></g><g><g><path d="m272.932 436.952h225.716c3.722-5.469 6.807-11.906 9.069-19.048h-234.785c-21.039 0-38.095 17.056-38.095 38.095h19.048c-.001-10.519 8.527-19.047 19.047-19.047z" fill="#aa3c31"/></g></g><g><g><path d="m203.091 417.905h-141.954c5.887 6.681 12.125 13.044 18.699 19.048h123.254c5.26 0 9.524-4.264 9.524-9.524.001-5.26-4.263-9.524-9.523-9.524z" fill="#aa3c31"/></g></g><g><g><path d="m203.722 436.92c-3.712-5.462-6.789-11.888-9.047-19.016h-133.551c5.89 6.684 12.141 13.041 18.718 19.048h123.249c.213 0 .422-.018.631-.032z" fill="#962e29"/></g></g></g></g></svg>