<svg id="Capa_1" enable-background="new 0 0 512.003 512.003" height="512" viewBox="0 0 512.003 512.003" width="512" xmlns="http://www.w3.org/2000/svg"><g><g><g><path d="m256.001 22.002c-135.31 0-245 109.69-245 245 0 120.59 87.124 220.829 201.86 241.211v-.001l43.14-17.125 43.26 17.105-.001.002c114.677-20.43 201.741-120.643 201.741-241.192 0-135.309-109.69-245-245-245z" fill="#8ac8f0"/></g></g><g><g><g><path d="m440.191 265.462c0 94.19-46.33 175-112.38 209.57-9.92 5.2-18.03 13.27-23.04 23.29l-1.75 3.51c-1.11 2.22-2.36 4.35-3.74 6.36-14.05 2.5-28.51 3.81-43.28 3.81s-29.23-1.31-43.28-3.81c-1.38-2.01-2.63-4.14-3.74-6.36l-1.75-3.51c-5.01-10.02-13.12-18.09-23.04-23.29-66.05-34.57-112.38-115.38-112.38-209.57s46.33-175 112.38-209.58c9.92-5.19 18.03-13.27 23.04-23.29l1.75-3.51c.49-.98 1-1.93 1.55-2.87 4.39-7.61 10.56-13.86 17.82-18.35 8.16-5.04 17.69-7.86 27.65-7.86 18.83 0 36.13 10.06 45.47 26.21.55.94 1.06 1.89 1.55 2.87l1.75 3.51c5.01 10.02 13.12 18.1 23.04 23.29 66.05 34.58 112.38 115.39 112.38 209.58z" fill="#bd5a40"/></g></g><g><g><path d="m435.152 212.4h-78.351c-4.488 0-8.126 3.638-8.126 8.126 0 4.488 3.638 8.126 8.126 8.126h80.989c-.723-5.485-1.603-10.905-2.638-16.252z" fill="#aa3c31"/></g></g><g><g><path d="m389.091 163.869h-160.358c-4.488 0-8.126-3.638-8.126-8.126 0-4.488 3.638-8.126 8.126-8.126h160.358c4.488 0 8.126 3.638 8.126 8.126 0 4.488-3.638 8.126-8.126 8.126z" fill="#aa3c31"/></g></g><g><g><path d="m389.091 358.22h-160.358c-4.488 0-8.126-3.638-8.126-8.126 0-4.488 3.638-8.126 8.126-8.126h160.358c4.488 0 8.126 3.638 8.126 8.126 0 4.488-3.638 8.126-8.126 8.126z" fill="#aa3c31"/></g></g><g><g><path d="m308.911 220.522c0 4.49-3.64 8.13-8.13 8.13h-139.89c-1.58 11.98-2.4 24.27-2.4 36.81 0 3.93.08 7.84.24 11.72h98.71c2.24 0 4.28.91 5.75 2.38s2.38 3.5 2.38 5.75c0 4.49-3.64 8.12-8.13 8.12h-97.57c4.22 42.51 17.93 81.4 38.44 113.32h92.9c2.25 0 4.28.91 5.75 2.38s2.38 3.51 2.38 5.75c0 4.48-3.64 8.12-8.13 8.12h-81.41c17.18 22.1 37.94 39.94 61.13 52.06 9.9 5.18 17.98 13.26 22.98 23.26l1.75 3.51c1.09 2.19 2.32 4.27 3.68 6.25-.03.04-.05.07-.08.11-14.04 2.5-28.5 3.81-43.26 3.81-14.72 0-29.14-1.3-43.14-3.79-1.59-2.26-3.01-4.64-4.26-7.14l-1.37-2.75c-5.01-10.02-13.12-18.09-23.04-23.29-66.05-34.57-112.38-115.38-112.38-209.57s46.33-175 112.38-209.58c9.92-5.19 18.03-13.27 23.04-23.29l1.37-2.74c.62-1.25 1.29-2.47 2-3.65 8.38-14.05 22.67-23.85 39.03-25.82 19.86-2.39 38.83 6.58 49.71 22.45-.6.88-1.18 1.78-1.73 2.7-.69 1.15-1.34 2.34-1.95 3.55l-1.75 3.51c-4.98 9.97-13.01 18.05-22.89 23.21-13.65 7.13-26.46 16.24-38.2 27.03h58.39c2.25 0 4.28.91 5.75 2.38s2.38 3.51 2.38 5.75c0 4.48-3.64 8.12-8.13 8.12h-74.16c-26.01 29.98-44.98 69.14-53.52 113.32h137.25c2.24 0 4.28.91 5.75 2.38s2.38 3.5 2.38 5.74z" fill="#aa3c31"/></g></g><g><g><path d="m439.948 277.184h-132.481c-4.488 0-8.126 3.638-8.126 8.126 0 4.488 3.638 8.126 8.126 8.126h131.342c.533-5.362.915-10.781 1.139-16.252z" fill="#aa3c31"/></g></g></g></g></svg>