<svg id="Capa_1" enable-background="new 0 0 512 512" height="512" viewBox="0 0 512 512" width="512" xmlns="http://www.w3.org/2000/svg"><g><g><g><path d="m256 492.106 34.109 17.519c11.276-1.571 22.312-3.891 33.042-6.943l171.092-178.37c4.407-18.386 6.757-37.573 6.757-57.312 0-135.31-109.69-245-245-245-101.878 0-189.222 62.188-226.169 150.67l41.309 255.111c37.871 43.506 90.849 73.502 150.76 81.846z" fill="#3b6945"/></g></g><g><g><path d="m494.242 324.313c-1.636-1.682-3.446-3.163-5.391-4.418-4.378-2.824-7.23-7.392-8.214-12.509-1.128-5.862-3.961-11.461-8.5-16s-10.138-7.372-16-8.5c-5.116-.984-9.684-3.836-12.509-8.214-3.29-5.1-8.11-9.286-14.142-11.784-5.931-2.457-12.188-2.931-18.035-1.73-5.103 1.049-10.415.162-14.7-2.802-4.991-3.453-11.047-5.475-17.575-5.475s-12.584 2.023-17.575 5.475c-4.285 2.964-9.597 3.851-14.7 2.802-5.847-1.202-12.104-.727-18.035 1.73-6.031 2.498-10.852 6.684-14.142 11.784-2.824 4.378-7.392 7.23-12.509 8.214-5.862 1.128-11.461 3.961-16 8.5s-7.372 10.138-8.5 16c-.984 5.116-3.836 9.684-8.214 12.509-5.1 3.29-9.286 8.11-11.784 14.142-2.457 5.931-2.931 12.187-1.73 18.035 1.049 5.103.162 10.415-2.802 14.7-3.453 4.991-5.475 11.047-5.475 17.575s2.023 12.584 5.475 17.575c2.964 4.285 3.851 9.597 2.802 14.7-1.202 5.847-.727 12.104 1.73 18.035 2.498 6.031 6.684 10.852 11.784 14.142 4.378 2.824 7.23 7.392 8.214 12.509 1.128 5.862 3.961 11.461 8.5 16s10.138 7.372 16 8.5c5.116.984 9.684 3.836 12.509 8.214 2.169 3.363 5.017 6.315 8.425 8.661 84.576-24.051 150.487-92.402 171.093-178.37z" fill="#8bc852"/></g></g><g><g><path d="m429.487 262.888c-5.931-2.457-12.188-2.931-18.035-1.73-5.103 1.049-10.415.162-14.7-2.802-4.991-3.453-11.047-5.475-17.575-5.475s-12.584 2.023-17.575 5.475c-4.285 2.964-9.597 3.851-14.7 2.802-5.847-1.202-12.104-.727-18.035 1.73-6.031 2.498-10.852 6.684-14.142 11.784-2.824 4.378-7.392 7.23-12.509 8.214-5.862 1.128-11.461 3.961-16 8.5s-7.372 10.138-8.5 16c-.984 5.116-3.836 9.684-8.214 12.509-5.1 3.29-9.286 8.11-11.784 14.142-2.457 5.931-2.931 12.187-1.73 18.035 1.049 5.103.162 10.415-2.802 14.7-3.453 4.991-5.475 11.047-5.475 17.575s2.023 12.584 5.475 17.575c2.964 4.285 3.851 9.597 2.802 14.7-1.202 5.847-.727 12.104 1.73 18.035 2.498 6.031 6.684 10.852 11.784 14.142 4.378 2.824 7.23 7.392 8.214 12.509 1.128 5.862 3.961 11.461 8.5 16s10.138 7.372 16 8.5c5.116.984 9.684 3.836 12.509 8.214 2.169 3.363 5.017 6.315 8.425 8.661 8.698-2.473 17.19-5.431 25.464-8.812-24.092-37.937-29.585-96.028 13.576-122.275 47.206-28.706 72.611-66.97 79.349-99.753-3.121-3.81-7.183-6.939-12.052-8.955z" fill="#69b76b"/></g></g><g><g><g><g><g><path d="m82.377 207.73c3.678 4.925 4.928 11.21 3.415 17.168-2.195 8.643-1.722 18.042 1.953 26.914s9.986 15.853 17.65 20.412c5.282 3.142 8.843 8.471 9.725 14.554 1.279 8.825 5.313 17.327 12.104 24.117 6.79 6.79 15.293 10.825 24.117 12.104 6.083.882 11.412 4.442 14.554 9.725 4.559 7.664 11.54 13.975 20.412 17.65s18.271 4.148 26.914 1.953c5.957-1.513 12.243-.263 17.168 3.415 7.145 5.336 16.009 8.495 25.612 8.495s18.468-3.159 25.612-8.495c4.925-3.678 11.21-4.928 17.168-3.415 8.643 2.195 18.041 1.722 26.913-1.953s15.853-9.986 20.412-17.65c3.142-5.282 8.471-8.843 14.554-9.725 8.825-1.279 17.327-5.313 24.117-12.104 6.79-6.79 10.824-15.293 12.104-24.117.882-6.083 4.442-11.412 9.725-14.554 7.664-4.559 13.975-11.54 17.65-20.412s4.148-18.271 1.953-26.914c-1.513-5.957-.263-12.243 3.415-17.168 5.336-7.145 8.495-16.009 8.495-25.612s-3.159-18.468-8.495-25.612c-3.678-4.925-4.928-11.21-3.415-17.168 2.195-8.643 1.722-18.042-1.953-26.914s-9.986-15.853-17.65-20.412c-5.282-3.142-8.843-8.471-9.725-14.554-1.279-8.825-5.313-17.327-12.104-24.117-6.79-6.791-15.292-10.825-24.117-12.104-6.083-.882-11.412-4.442-14.554-9.725-4.559-7.664-11.54-13.975-20.412-17.65s-18.271-4.148-26.913-1.953c-5.957 1.513-12.243.263-17.168-3.415-7.145-5.335-16.01-8.494-25.613-8.494s-18.468 3.159-25.612 8.495c-4.925 3.678-11.21 4.928-17.168 3.415-8.643-2.195-18.041-1.722-26.913 1.953s-15.853 9.986-20.412 17.65c-3.142 5.283-8.471 8.843-14.554 9.725-8.825 1.279-17.327 5.313-24.117 12.104-6.79 6.79-10.824 15.292-12.104 24.117-.882 6.083-4.442 11.412-9.725 14.554-7.664 4.559-13.975 11.54-17.65 20.412s-4.148 18.271-1.953 26.914c1.513 5.957.263 12.243-3.415 17.168-5.336 7.145-8.495 16.009-8.495 25.612s3.16 18.466 8.495 25.611z" fill="#aad963"/></g></g></g></g></g><g><g><path d="m186.307 13.863c-8.872 3.675-15.853 9.986-20.412 17.65-3.142 5.283-8.471 8.843-14.554 9.725-8.825 1.279-17.327 5.313-24.117 12.104-6.79 6.79-10.825 15.292-12.104 24.117-.882 6.083-4.442 11.412-9.725 14.554-7.664 4.559-13.975 11.54-17.65 20.412s-4.148 18.271-1.953 26.914c1.513 5.957.263 12.243-3.415 17.168-5.336 7.145-8.495 16.009-8.495 25.612s3.159 18.468 8.495 25.612c3.678 4.925 4.928 11.21 3.415 17.168-2.195 8.643-1.722 18.042 1.953 26.914s9.986 15.853 17.65 20.412c5.282 3.142 8.843 8.471 9.725 14.554 1.279 8.825 5.313 17.327 12.104 24.117 6.79 6.79 15.292 10.825 24.117 12.104 6.083.882 11.412 4.442 14.554 9.725 4.559 7.664 11.54 13.975 20.412 17.65s18.271 4.148 26.913 1.953c5.957-1.513 12.243-.263 17.168 3.415 7.145 5.336 16.009 8.495 25.612 8.495s18.468-3.159 25.612-8.495c4.925-3.678 11.21-4.928 17.168-3.415 2.358.599 4.773.992 7.218 1.182 5.526-22.651 12.422-57.171 12.422-88.402 0-52.107-42.016-96.489-91.804-128.63-49.786-32.143-49.02-78.925-13.396-124.568-8.643-2.195-18.041-1.722-26.913 1.953z" fill="#8bc852"/></g></g><g><g><path d="m265.154 251.002c1.614-6.95 1.151-14.453-1.788-21.547-2.939-7.095-7.916-12.727-13.972-16.501-4.661-2.904-7.88-7.722-8.78-13.14-1.169-7.039-4.468-13.793-9.898-19.223s-12.184-8.729-19.223-9.898c-5.418-.9-10.236-4.119-13.141-8.78-3.773-6.056-9.406-11.033-16.501-13.972s-14.597-3.402-21.547-1.788c-5.35 1.242-11.033.112-15.5-3.083-5.804-4.151-12.912-6.594-20.592-6.594s-14.788 2.443-20.591 6.594c-4.467 3.195-10.15 4.325-15.5 3.083-6.95-1.614-14.452-1.151-21.547 1.788s-12.727 7.916-16.501 13.972c-2.905 4.661-7.723 7.881-13.141 8.78-2.417.401-4.795 1.073-7.103 1.976-12.123 29.037-18.829 60.899-18.829 94.331 0 61.527 22.684 117.752 60.14 160.781 5.691 1.501 11.507 1.525 16.982.254 5.35-1.242 11.033-.112 15.5 3.083 5.804 4.151 12.912 6.594 20.591 6.594s14.788-2.443 20.592-6.594c4.467-3.195 10.15-4.325 15.5-3.083 6.95 1.614 14.453 1.151 21.547-1.788 7.095-2.939 12.727-7.916 16.501-13.972 2.904-4.661 7.722-7.881 13.14-8.78 7.039-1.169 13.793-4.468 19.223-9.898s8.729-12.184 9.898-19.223c.9-5.418 4.119-10.236 8.78-13.14 6.056-3.773 11.033-9.406 13.972-16.501s3.402-14.597 1.788-21.547c-1.242-5.35-.112-11.033 3.083-15.5 4.151-5.804 6.594-12.912 6.594-20.591s-2.443-14.788-6.594-20.591c-3.195-4.469-4.325-10.152-3.083-15.502z" fill="#c8ea73"/></g></g><g><g><path d="m86.363 145.797c-6.447-1.157-13.288-.549-19.789 2.144-7.095 2.939-12.727 7.916-16.501 13.972-2.905 4.661-7.723 7.881-13.141 8.78-2.417.401-4.795 1.073-7.103 1.976-12.123 29.037-18.829 60.899-18.829 94.331 0 61.527 22.684 117.752 60.14 160.781 5.691 1.501 11.507 1.525 16.982.254 5.35-1.242 11.033-.112 15.5 3.083 5.804 4.151 12.912 6.594 20.591 6.594s14.788-2.443 20.592-6.594c4.467-3.195 10.15-4.325 15.5-3.083-162.312-106.455-109.177-229.716-73.942-282.238z" fill="#aad963"/></g></g><g><g><path d="m309.88 259.046s25.193 11.055 59.049-12.406c2.055-1.424 4.876-.878 6.203 1.241 1.132 1.807.793 4.162-.805 5.573-9.167 8.096-40.674 32.401-80.875 24.47z" fill="#bd5a40"/></g></g><g><g><path d="m338.405 424.227s-.481-30.865 38.525-55.667c2.342-1.489 2.954-4.643 1.357-6.913-1.375-1.955-3.957-2.628-6.11-1.59-12.349 5.956-51.149 27.958-60.416 72.945z" fill="#aa3c31"/></g></g><g><g><path d="m187.326 305.525s-34.038 14.613-79.359-17.368c-2.721-1.92-6.501-1.161-8.292 1.647-1.54 2.414-1.116 5.587 1.015 7.5 12.234 10.983 54.359 44.028 108.53 33.79z" fill="#bd5a40"/></g></g><g><g><path d="m419.034 376.435c-63.379 51.854-121.223 44.525-137.497 41.051-3.158-40.092-5.4-77.611-6.985-111.433 52.866-37.928 81.79-95.423 90.417-114.709 1.613-3.606.013-7.83-3.581-9.469-3.304-1.506-7.208-.298-9.109 2.796-31.928 51.986-63.117 75.077-79.271 84.361-2.089-57.383-2.246-100.424-2.138-121.752.042-8.242-6.628-14.938-14.87-14.938s-14.911 6.696-14.87 14.938c.136 27.02-.151 88.88-4.255 170.61-23.127-9.036-62.829-32.234-94.02-90.274-1.552-2.888-5.05-4.116-8.052-2.799-2.854 1.251-4.364 4.408-3.528 7.41 5.551 19.932 30.044 91.18 103.435 124.518-2.858 46.702-6.961 98.429-12.809 152.88 11.145 1.554 22.525 2.375 34.099 2.375 11.577 0 22.96-.822 34.109-2.375-2.039-18.97-3.882-37.636-5.516-55.844 76.12-4.415 128.439-53.604 142.655-68.542 2.228-2.341 2.209-6.018-.036-8.343-2.186-2.266-5.741-2.455-8.178-.461z" fill="#d0794e"/></g></g><g><g><path d="m419.034 376.435c-63.379 51.854-121.223 44.525-137.497 41.051-33.129-11.847-46.828-60.74-46.828-60.74-2.858 46.702-6.961 98.429-12.809 152.88 11.146 1.553 22.526 2.374 34.1 2.374 11.577 0 22.96-.822 34.109-2.375-2.039-18.97-3.882-37.636-5.516-55.844 76.12-4.415 128.439-53.604 142.655-68.542 2.228-2.341 2.209-6.018-.036-8.343-2.186-2.266-5.741-2.455-8.178-.461z" fill="#bd5a40"/></g></g><g><g><circle cx="319.222" cy="147.614" fill="#fe3f3d" r="20"/></g></g><g><g><path d="m319.222 147.614c0-7.398 4.028-13.843 10-17.303-2.944-1.705-6.353-2.697-10-2.697-11.046 0-20 8.954-20 20s8.954 20 20 20c3.647 0 7.056-.992 10-2.697-5.972-3.46-10-9.905-10-17.303z" fill="#e52e2b"/></g></g><g><g><circle cx="193.815" cy="90.646" fill="#fe3f3d" r="20"/></g></g><g><g><path d="m193.815 90.646c0-7.398 4.028-13.843 10-17.303-2.944-1.705-6.353-2.697-10-2.697-11.046 0-20 8.954-20 20s8.954 20 20 20c3.647 0 7.056-.992 10-2.697-5.972-3.46-10-9.904-10-17.303z" fill="#e52e2b"/></g></g><g><g><circle cx="104.213" cy="366.489" fill="#fe3f3d" r="20"/></g></g><g><g><circle cx="428.908" cy="330.065" fill="#fe3f3d" r="20"/></g></g><g><g><circle cx="59.788" cy="248.65" fill="#fe3f3d" r="20"/></g></g><g><g><path d="m59.788 248.65c0-7.398 4.028-13.843 10-17.303-2.944-1.705-6.353-2.697-10-2.697-11.046 0-20 8.954-20 20s8.954 20 20 20c3.647 0 7.056-.992 10-2.697-5.972-3.46-10-9.904-10-17.303z" fill="#e52e2b"/></g></g><g><g><path d="m104.213 366.489c0-7.398 4.028-13.843 10-17.303-2.944-1.705-6.353-2.697-10-2.697-11.046 0-20 8.954-20 20s8.954 20 20 20c3.647 0 7.056-.992 10-2.697-5.972-3.46-10-9.904-10-17.303z" fill="#e52e2b"/></g></g><g><g><path d="m428.908 330.065c0-7.398 4.028-13.843 10-17.303-2.944-1.705-6.353-2.697-10-2.697-11.046 0-20 8.954-20 20s8.954 20 20 20c3.647 0 7.056-.992 10-2.697-5.972-3.46-10-9.905-10-17.303z" fill="#e52e2b"/></g></g></g></svg>