<svg id="Capa_1" enable-background="new 0 0 512 512" height="512" viewBox="0 0 512 512" width="512" xmlns="http://www.w3.org/2000/svg"><g><g><g><path d="m466.554 392.311c21.869-36.666 34.446-79.517 34.446-125.311 0-135.31-109.69-245-245-245s-245 109.69-245 245c0 45.794 12.577 88.645 34.446 125.311z" fill="#8ac8f0"/></g></g><g><g><circle cx="256" cy="267" fill="#b1e4f9" r="200"/></g></g><g><g><path d="m133.363 154.543-87.917 237.768c42.749 71.673 121.038 119.689 210.554 119.689s167.805-48.016 210.554-119.689l-87.916-237.768z" fill="#f2f7f4"/></g></g><g><g><path d="m136 366.574c0-69.123 33.511-157.755 57.334-212.031h-59.971l-87.917 237.768c42.749 71.673 121.038 119.689 210.554 119.689 0 0-120-38.192-120-145.426z" fill="#e0e7e3"/></g></g><g><g><path d="m64.049 342.001c4.045 3.051 8.305 5.833 12.765 8.299 19.545 10.802 34.466 28.414 42.566 49.225 5.616 14.429 16.727 26.757 32.121 33.553 29.595 13.065 64.728.263 79.012-28.763 7.804-15.858 8.06-33.422 2.192-48.667-7.994-20.771-9.2-43.679-1.985-64.734 3.747-10.933 5.783-22.659 5.788-34.861.021-46.554-29.985-86.593-71.697-101.508h-31.45z" fill="#352c28"/></g></g><g><g><path d="m154.642 434.35c-11.189-18.624-18.642-41.055-18.642-67.776 0-64.317 29.013-145.521 52.239-200.228-7.249-4.832-15.099-8.826-23.426-11.804h-31.45l-69.314 187.459c4.045 3.051 8.305 5.833 12.765 8.299 19.545 10.802 34.466 28.414 42.566 49.225 5.616 14.429 16.727 26.757 32.121 33.553 1.041.458 2.088.877 3.141 1.272z" fill="#261e1b"/></g></g><g><g><path d="m433.487 321.338c-48.689.983-88.543 40.344-90.106 89.018-.01.319-.019.638-.026.956-.366 16.654-8.998 31.882-22.849 41.136-18.305 12.229-29.66 33.579-28.219 56.878 74.121-11.007 137.407-55.214 174.267-117.015l-26.2-70.858c-2.269-.12-4.558-.162-6.867-.115z" fill="#352c28"/></g></g><g><g><g><path d="m187.604 93.11s-70.519-8.296-91.26-28.576 17.054-51.622 10.14-62.223-60.379 16.131-60.379 62.683 54.848 74.207 98.635 87.112z" fill="#ffe47d"/></g></g></g><g><g><path d="m158.81 132.74c-30.105-14.973-89.215-47.957-89.215-76.123 0-26.915 23.144-46.055 36.463-54.842-8.411-9.087-59.954 17.51-59.954 63.219 0 46.552 54.848 74.207 98.635 87.112z" fill="#ffcd53"/></g></g><g><g><g><g><path d="m324.396 93.11s70.519-8.296 91.26-28.576-17.054-51.622-10.14-62.223 60.379 16.132 60.379 62.684-54.848 74.207-98.635 87.112z" fill="#ffe47d"/></g></g></g></g><g><g><path d="m353.19 132.74c30.105-14.973 89.215-47.957 89.215-76.123 0-26.915-23.144-46.055-36.463-54.842 8.411-9.087 59.954 17.51 59.954 63.219 0 46.552-54.848 74.207-98.635 87.112z" fill="#ffcd53"/></g></g><g><g><path d="m353.674 130.576c0 27.614 22.386 50 50 50 19.912 0 37.105-11.639 45.148-28.486 4.763-9.976-2.464-21.514-13.519-21.514z" fill="#352c28"/></g></g><g><g><path d="m158.326 130.576c0 27.614-22.386 50-50 50-19.912 0-37.105-11.639-45.148-28.486-4.763-9.976 2.464-21.514 13.519-21.514z" fill="#352c28"/></g></g><g><g><path d="m256 345.776c-51.56 0-95.194-38.087-102.16-89.175l-17.84-130.825h240l-17.84 130.825c-6.966 51.088-50.6 89.175-102.16 89.175z" fill="#463c39"/></g></g><g><g><path d="m375.353 75.883c-78.024-22.169-160.681-22.169-238.705 0-12.679 3.603-21.428 15.183-21.428 28.364 0 16.285 13.202 29.487 29.487 29.487h32.515c15.287 0 28.039 11.683 29.374 26.912l17.641 201.236h63.526l17.641-201.236c1.335-15.229 14.087-26.912 29.374-26.912h32.515c16.285 0 29.487-13.202 29.487-29.487 0-13.182-8.748-24.762-21.427-28.364z" fill="#564c49"/></g></g><g><g><g><path d="m350.609 158.539c.043-3.495-1.371-7.004-4.242-9.539-4.675-4.128-11.84-4.128-16.515 0-2.871 2.535-4.284 6.044-4.242 9.539.055 4.538 5.629 6.716 8.838 3.507 2.022-2.022 5.3-2.022 7.322 0 3.21 3.21 8.784 1.032 8.839-3.507z" fill="#261e1b"/></g></g><g><g><path d="m161.391 158.539c-.043-3.495 1.371-7.004 4.242-9.539 4.675-4.128 11.84-4.128 16.515 0 2.871 2.535 4.284 6.044 4.242 9.539-.055 4.538-5.629 6.716-8.838 3.507-2.022-2.022-5.3-2.022-7.322 0-3.21 3.21-8.784 1.032-8.839-3.507z" fill="#261e1b"/></g></g></g><g><g><path d="m316.843 282.384c.007-.217.033-.429.033-.648 0-11.046-8.954-20-20-20-4.338 0-8.341 1.396-11.618 3.742-9.065-2.674-18.927-4.159-29.258-4.159-10.33 0-20.192 1.484-29.256 4.158-3.277-2.346-7.28-3.742-11.618-3.742-11.046 0-20 8.954-20 20 0 .219.026.43.033.647-11.937 10.481-19.159 24.072-19.159 38.936 0 33.137 35.817 60 80 60s80-26.863 80-60c0-14.863-7.222-28.454-19.157-38.934z" fill="#fcaa70"/></g></g><g><g><path d="m256 261.318c-10.33 0-20.192 1.484-29.256 4.158-3.277-2.346-7.28-3.742-11.618-3.742-11.046 0-20 8.954-20 20 0 .219.026.43.033.647-11.937 10.482-19.159 24.073-19.159 38.937 0 33.137 35.817 60 80 60-40.319-39.383-34.1-96.381 0-120z" fill="#fa9a5e"/></g></g><g><path d="m280.278 336.714c-9.251 0-16.778-7.526-16.778-16.778 0-4.143-3.358-7.5-7.5-7.5s-7.5 3.357-7.5 7.5c0 9.252-7.527 16.778-16.778 16.778-4.142 0-7.5 3.357-7.5 7.5s3.358 7.5 7.5 7.5c9.728 0 18.444-4.398 24.278-11.306 5.834 6.907 14.55 11.306 24.278 11.306 4.142 0 7.5-3.357 7.5-7.5s-3.358-7.5-7.5-7.5z" fill="#ed844a"/></g><g><g><circle cx="215.126" cy="281.735" fill="#ed844a" r="7.5"/></g></g><g><g><circle cx="296.876" cy="281.735" fill="#ed844a" r="7.5"/></g></g></g></svg>