<svg id="Capa_1" enable-background="new 0 0 512 512" height="512" viewBox="0 0 512 512" width="512" xmlns="http://www.w3.org/2000/svg"><g><g><g><path d="m245 11c-64.17 0-122.567 24.682-166.245 65.055l146.834 424.181c6.405.502 12.877.764 19.411.764 135.31 0 245-109.69 245-245s-109.69-245-245-245z" fill="#ffcd53"/></g></g><g><g><path d="m432 76.05h-353.25c-9.978 9.219-19.172 19.271-27.506 30.022l-39.204 225.998h479.96v-196.02c0-33.13-26.86-60-60-60z" fill="#fa9a5e"/></g></g><g><g><path d="m190.076 91.055c0-8.284 6.716-15 15-15h-126.321c-9.98 9.225-19.178 19.281-27.514 30.039l-39.194 225.938c.005.014.009.028.013.042h193.016v-226.02c-8.284.001-15-6.715-15-14.999z" fill="#ed844a"/></g></g><g><g><path d="m439.5 107c-.01 0-.01 0-.01 0-2.4-.62-4.91-.95-7.49-.95h-380.76c-20.51 26.461-35.707 57.24-44.022 90.737h.003l49.222 135.283h405.557v-196.02c0-13.95-9.58-25.71-22.5-29.05z" fill="#ed844a"/></g></g><g><g><path d="m51.247 106.055c-20.508 26.461-35.708 57.238-44.026 90.733l49.224 135.287h118.631v-196.02c0-16.569 13.431-30 30-30z" fill="#dd713a"/></g></g><g><g><path d="m360.995 332.075c1.369-7.036 2.114-14.59 2.114-22.697 0-59.369-38.735-124.8-86.517-124.8s-86.517 65.431-86.517 124.8c0 8.106.746 15.661 2.114 22.697z" fill="#d1dad5"/></g></g><g><g><path d="m73.56 184.578c-18.967 0-36.501 10.322-50.758 26.472v121.025h135.161c1.369-7.036 2.114-14.59 2.114-22.697-.001-59.369-38.736-124.8-86.517-124.8z" fill="#d1dad5"/></g></g><g><g><path d="m462.511 332.075c1.369-7.036 2.114-14.59 2.114-22.697 0-59.369-38.735-124.8-86.517-124.8s-86.517 65.431-86.517 124.8c0 8.106.746 15.661 2.114 22.697z" fill="#f2f7f4"/></g></g><g><g><path d="m333.688 332.075c-1.367-7.032-2.096-14.595-2.096-22.697 0-50.815 28.378-106.064 66.517-120.932-6.42-2.503-13.115-3.868-20-3.868-47.782 0-86.517 65.431-86.517 124.8 0 8.106.746 15.661 2.114 22.697z" fill="#e0e7e3"/></g></g><g><g><path d="m259.478 332.075c1.369-7.036 2.114-14.59 2.114-22.697 0-59.369-38.735-124.8-86.517-124.8s-86.517 65.431-86.517 124.8c0 8.106.746 15.661 2.114 22.697z" fill="#f2f7f4"/></g></g><g><g><path d="m130.655 332.075c-1.367-7.032-2.096-14.595-2.096-22.697 0-50.815 28.378-106.064 66.517-120.932-6.42-2.503-13.115-3.868-20-3.868-47.782 0-86.517 65.431-86.517 124.8 0 8.106.746 15.661 2.114 22.697z" fill="#e0e7e3"/></g></g><g><g><path d="m7.221 196.787c-4.707 18.964-7.221 38.794-7.221 59.213 0 19.3 2.251 38.071 6.475 56.083l49.968 19.987-.002.005h.004c1.369-7.036 2.114-14.59 2.114-22.697.001-43.804-21.089-90.903-51.338-112.591z" fill="#f2f7f4"/></g></g><g><g><path d="m39.569 332.07-20.004 20.004c34.948 81.905 113.213 140.895 206.025 148.166 14.77-2.89 26.96-13.97 30.94-28.95 2.74-10.28 11.4-15.42 20.07-15.42 8.66 0 17.32 5.14 20.06 15.42 2.25 8.48 7.13 15.71 13.62 20.91.21.18.43.35.65.52 6.82 5.23 15.31 8.28 24.38 8.28h85.6c18.13 0 33.99-12.19 38.65-29.71l31.75-119.22v-20z" fill="#fa9a5e"/></g></g><g><g><path d="m335.31 434.35c-18.13 0-33.99-12.19-38.65-29.71-2.74-10.28-11.4-15.41-20.06-15.41-8.67 0-17.33 5.13-20.07 15.41-2.33 8.76-7.46 16.19-14.28 21.42-6.81 5.24-15.31 8.29-24.37 8.29h-45.26c-13.7 0-25.66-9.28-29.06-22.55l-15.33-59.73v-20h-88.661l-20.004 20.004c34.948 81.905 113.213 140.895 206.025 148.166 14.77-2.89 26.96-13.97 30.94-28.95 2.74-10.28 11.4-15.42 20.07-15.42 8.66 0 17.32 5.14 20.06 15.42 2.25 8.48 7.13 15.71 13.62 20.91.21.18.43.35.65.52 6.82 5.23 15.31 8.28 24.38 8.28h85.6c18.13 0 33.99-12.19 38.65-29.71l9.84-36.94z" fill="#ed844a"/></g></g><g><g><path d="m512 332.07c0 5.53-2.24 10.53-5.86 14.14-3.62 3.62-8.62 5.86-14.14 5.86h-472.44c-5.47-12.81-9.88-26.18-13.11-40h485.55c11.05 0 20 8.96 20 20z" fill="#fcaa70"/></g></g><g><g><path d="m128.234 312.075h-121.779c3.236 13.821 7.642 27.19 13.108 40h108.67c-11.046 0-20-8.954-20-20s8.955-20 20.001-20z" fill="#fa9a5e"/></g></g></g></svg>