<svg id="Capa_1" enable-background="new 0 0 512 512" height="512" viewBox="0 0 512 512" width="512" xmlns="http://www.w3.org/2000/svg"><g><g><g><path d="m343.554 495.873 9.91-10.32 5.726 3.7c8.521-3.963 16.779-8.395 24.734-13.275l26.096-51.624h33.754c35.711-42.567 57.226-97.444 57.226-157.354 0-135.31-109.69-245-245-245s-245 109.69-245 245c0 59.91 21.515 114.787 57.225 157.355h33.754l26.096 51.624c7.955 4.88 16.213 9.312 24.734 13.275l5.726-3.7 9.91 10.32c27.192 10.407 56.704 16.126 87.555 16.126s60.363-5.719 87.554-16.127z" fill="#fe5653"/></g></g><g><g><circle cx="256" cy="237" fill="#fe6d68" r="200"/></g></g><g><g><g><g><path d="m106.291 141.299c-12.287-10.31-26.293-15.295-41.055-17.039-8.738-1.032-15.609-7.938-16.375-16.703l-.01-.119c-.273-3.122-3.026-5.432-6.148-5.159-3.122.273-5.432 3.026-5.159 6.148l2.085 23.83.01-.001c2.955 21.221 10.457 40.906 27.744 55.412 17.577 14.749 39.613 20.67 60.743 18.262 3.997-.455 6.943-3.967 6.698-7.982-1.298-21.227-10.955-41.9-28.533-56.649z" fill="#ffe47d"/></g></g><g><g><path d="m128.126 205.93c3.997-.455 6.943-3.967 6.698-7.982-1.298-21.227-10.955-41.9-28.533-56.649-12.287-10.31-26.293-15.295-41.055-17.039 22.612 25.978 34.541 47.404 39.48 80.913 7.749 1.391 15.64 1.642 23.41.757z" fill="#ffcd53"/></g></g><g><g><path d="m153.141 137.2c10.31-12.287 23.237-19.629 37.473-23.909 8.426-2.533 13.993-10.528 13.226-19.293l-.01-.119c-.273-3.122 2.036-5.875 5.159-6.148 3.122-.273 5.875 2.036 6.148 5.159l2.085 23.83-.01.001c.775 21.412-3.195 42.1-17.7 59.387-14.749 17.577-35.422 27.235-56.649 28.533-4.015.245-7.527-2.701-7.982-6.698-2.409-21.13 3.511-43.166 18.26-60.743z" fill="#ffe47d"/></g></g><g><g><path d="m114.191 231.585c-12.287-10.31-26.293-15.295-41.055-17.039-8.738-1.032-15.609-7.938-16.375-16.703l-.01-.119c-.273-3.122-3.026-5.432-6.148-5.159-3.122.273-5.432 3.026-5.159 6.148l2.085 23.83.01-.001c2.955 21.221 10.457 40.906 27.744 55.412 17.577 14.749 39.613 20.67 60.743 18.262 3.997-.455 6.943-3.967 6.698-7.982-1.299-21.227-10.956-41.899-28.533-56.649z" fill="#ffe47d"/></g></g><g><g><path d="m136.025 296.217c3.997-.455 6.943-3.967 6.698-7.982-1.298-21.227-10.955-41.9-28.533-56.649-12.287-10.31-26.293-15.295-41.055-17.039 22.612 25.978 34.541 47.404 39.48 80.913 7.749 1.391 15.64 1.642 23.41.757z" fill="#ffcd53"/></g></g><g><g><path d="m161.041 227.487c10.31-12.287 23.237-19.629 37.473-23.909 8.426-2.533 13.993-10.528 13.226-19.293l-.01-.119c-.273-3.122 2.036-5.875 5.159-6.148 3.122-.273 5.875 2.036 6.148 5.159l2.085 23.83-.01.001c.775 21.412-3.195 42.1-17.7 59.387-14.749 17.577-35.422 27.235-56.649 28.533-4.015.245-7.527-2.701-7.982-6.698-2.41-21.13 3.51-43.166 18.26-60.743z" fill="#ffe47d"/></g></g><g><g><path d="m122.09 321.872c-12.287-10.31-26.293-15.295-41.055-17.039-8.738-1.032-15.609-7.938-16.375-16.703l-.01-.119c-.273-3.122-3.026-5.432-6.148-5.159-3.122.273-5.432 3.026-5.159 6.148l2.085 23.83.01-.001c2.955 21.221 10.457 40.906 27.744 55.411 17.577 14.749 39.613 20.67 60.743 18.262 3.997-.455 6.943-3.967 6.698-7.982-1.299-21.226-10.956-41.899-28.533-56.648z" fill="#ffe47d"/></g></g><g><g><path d="m143.924 386.504c3.997-.455 6.943-3.967 6.698-7.982-1.298-21.227-10.955-41.9-28.533-56.649-12.287-10.31-26.293-15.295-41.055-17.039 22.612 25.978 34.541 47.404 39.48 80.913 7.749 1.391 15.64 1.642 23.41.757z" fill="#ffcd53"/></g></g><g><g><path d="m168.94 317.773c10.31-12.287 23.237-19.629 37.473-23.909 8.426-2.533 13.993-10.528 13.226-19.293l-.01-.119c-.273-3.122 2.036-5.875 5.159-6.148 3.122-.273 5.875 2.036 6.148 5.159l2.085 23.83-.01.001c.775 21.412-3.195 42.1-17.7 59.387-14.749 17.577-35.422 27.235-56.649 28.533-4.015.246-7.527-2.701-7.982-6.698-2.41-21.129 3.511-43.165 18.26-60.743z" fill="#ffe47d"/></g></g><g><g><path d="m129.989 412.159c-12.287-10.31-26.293-15.295-41.055-17.039-8.738-1.032-15.609-7.938-16.375-16.703l-.01-.119c-.273-3.122-3.026-5.432-6.148-5.159-3.122.273-5.432 3.026-5.159 6.148l2.085 23.83.01-.001c1.018 7.312 2.576 14.44 4.888 21.238 16.996 20.26 37.204 37.732 59.85 51.624 7.857 1.446 15.865 1.71 23.748.812 3.997-.455 6.943-3.967 6.698-7.982-1.298-21.227-10.955-41.9-28.532-56.649z" fill="#ffe47d"/></g></g><g><g><path d="m129.989 412.159c-12.287-10.31-26.293-15.296-41.055-17.039 22.612 25.978 34.541 47.404 39.48 80.913 7.748 1.392 15.64 1.643 23.41.758 3.997-.455 6.943-3.967 6.698-7.982-1.299-21.228-10.956-41.9-28.533-56.65z" fill="#ffcd53"/></g></g><g><g><path d="m142.862 204.641c-4.015.246-7.527-2.701-7.982-6.698-2.408-21.13 3.513-43.166 18.262-60.743 10.31-12.287 23.237-19.629 37.473-23.909-17.757 29.51-25.785 52.682-24.83 86.539-7.39 2.716-15.118 4.333-22.923 4.811z" fill="#ffcd53"/></g></g><g><g><path d="m150.761 294.928c-4.015.246-7.527-2.701-7.982-6.698-2.408-21.13 3.513-43.166 18.262-60.743 10.31-12.287 23.237-19.629 37.473-23.909-17.757 29.51-25.785 52.682-24.83 86.539-7.39 2.716-15.117 4.334-22.923 4.811z" fill="#ffcd53"/></g></g><g><g><path d="m158.66 385.215c-4.015.245-7.527-2.701-7.982-6.698-2.408-21.13 3.513-43.166 18.262-60.743 10.31-12.287 23.237-19.629 37.473-23.909-17.757 29.51-25.785 52.682-24.83 86.539-7.389 2.716-15.117 4.333-22.923 4.811z" fill="#ffcd53"/></g></g><g><g><path d="m176.839 408.06c10.31-12.287 23.237-19.629 37.473-23.909 8.426-2.533 13.993-10.528 13.226-19.293l-.01-.119c-.273-3.122 2.036-5.875 5.159-6.148 3.122-.273 5.875 2.036 6.148 5.159l2.085 23.83-.01.001c.775 21.412-3.195 42.1-17.7 59.387-14.749 17.577-35.422 27.235-56.649 28.533-4.015.245-7.527-2.701-7.982-6.698-2.41-21.13 3.511-43.165 18.26-60.743z" fill="#ffe47d"/></g></g><g><g><path d="m166.559 475.502c-4.015.246-7.527-2.701-7.982-6.698-2.408-21.13 3.513-43.166 18.262-60.743 10.31-12.287 23.237-19.629 37.473-23.909-17.757 29.51-25.785 52.682-24.83 86.539-7.389 2.716-15.117 4.333-22.923 4.811z" fill="#ffcd53"/></g></g><g><g><path d="m136.795 134.109-14.943 1.307 30.957 353.837c5.119 2.381 10.333 4.589 15.636 6.62z" fill="#ffb629"/></g></g><g><g><g><path d="m123.756 6.005-.072-.824c-.273-3.122-3.026-5.432-6.148-5.159-3.122.273-5.432 3.026-5.159 6.148l.072.824c.973 11.116-1.624 22.202-7.14 31.902-7.772 13.666-12.243 28.687-10.769 45.539 2 22.858 13.395 42.627 30.039 55.865 3.148 2.504 7.715 2.104 10.381-.908 14.092-15.928 21.881-37.374 19.881-60.233-1.474-16.851-8.486-30.868-18.513-42.977-7.118-8.595-11.6-19.061-12.572-30.177z" fill="#ffe47d"/></g></g><g><g><path d="m117.152 82.456c-1.474-16.851 2.997-31.872 10.769-45.539 1.378-2.424 2.574-4.934 3.578-7.51-4.31-7.092-7.014-15.065-7.744-23.403l-.072-.824c-.273-3.122-3.026-5.432-6.148-5.159s-5.432 3.026-5.159 6.148l.072.824c.973 11.116-1.624 22.202-7.14 31.902-7.771 13.667-12.242 28.688-10.768 45.54 2 22.858 13.395 42.627 30.039 55.865 3.148 2.504 7.715 2.104 10.381-.908 1.979-2.236 3.828-4.585 5.548-7.027-12.971-12.898-21.636-30.26-23.356-49.909z" fill="#ffcd53"/></g></g></g></g><g><g><g><path d="m358.859 137.2c-10.31-12.287-23.237-19.629-37.473-23.909-8.426-2.533-13.993-10.528-13.226-19.293l.01-.119c.273-3.122-2.036-5.875-5.159-6.148-3.122-.273-5.875 2.036-6.148 5.159l-2.085 23.83.01.001c-.775 21.412 3.195 42.1 17.7 59.387 14.749 17.577 35.422 27.235 56.649 28.533 4.015.245 7.527-2.701 7.982-6.698 2.409-21.13-3.511-43.166-18.26-60.743z" fill="#ffe47d"/></g></g><g><g><path d="m369.138 204.641c4.015.246 7.527-2.701 7.982-6.698 2.408-21.13-3.513-43.166-18.262-60.743-10.31-12.287-23.237-19.629-37.473-23.909 17.757 29.51 25.785 52.682 24.83 86.539 7.39 2.716 15.118 4.333 22.923 4.811z" fill="#ffcd53"/></g></g><g><g><path d="m405.709 141.299c12.287-10.31 26.293-15.295 41.055-17.039 8.738-1.032 15.609-7.938 16.375-16.703l.01-.119c.273-3.122 3.026-5.432 6.148-5.159 3.122.273 5.432 3.026 5.159 6.148l-2.085 23.83-.01-.001c-2.955 21.221-10.457 40.906-27.744 55.412-17.577 14.749-39.613 20.67-60.743 18.262-3.997-.455-6.943-3.967-6.698-7.982 1.298-21.227 10.955-41.9 28.533-56.649z" fill="#ffe47d"/></g></g><g><g><path d="m350.959 227.487c-10.31-12.287-23.237-19.629-37.473-23.909-8.426-2.533-13.993-10.528-13.226-19.293l.01-.119c.273-3.122-2.036-5.875-5.159-6.148-3.122-.273-5.875 2.036-6.148 5.159l-2.085 23.83.01.001c-.775 21.412 3.195 42.1 17.7 59.387 14.749 17.577 35.422 27.235 56.649 28.533 4.015.245 7.527-2.701 7.982-6.698 2.41-21.13-3.51-43.166-18.26-60.743z" fill="#ffe47d"/></g></g><g><g><path d="m361.239 294.928c4.015.246 7.527-2.701 7.982-6.698 2.408-21.13-3.513-43.166-18.262-60.743-10.31-12.287-23.237-19.629-37.473-23.909 17.757 29.51 25.785 52.682 24.83 86.539 7.39 2.716 15.117 4.334 22.923 4.811z" fill="#ffcd53"/></g></g><g><g><path d="m397.809 231.585c12.287-10.31 26.293-15.295 41.055-17.039 8.738-1.032 15.609-7.938 16.375-16.703l.01-.119c.273-3.122 3.026-5.432 6.148-5.159 3.122.273 5.432 3.026 5.159 6.148l-2.085 23.83-.01-.001c-2.955 21.221-10.457 40.906-27.744 55.412-17.577 14.749-39.613 20.67-60.743 18.262-3.997-.455-6.943-3.967-6.698-7.982 1.299-21.227 10.956-41.899 28.533-56.649z" fill="#ffe47d"/></g></g><g><g><path d="m343.06 317.773c-10.31-12.287-23.237-19.629-37.473-23.909-8.426-2.533-13.993-10.528-13.226-19.293l.01-.119c.273-3.122-2.036-5.875-5.159-6.148-3.122-.273-5.875 2.036-6.148 5.159l-2.085 23.83.01.001c-.775 21.412 3.195 42.1 17.7 59.387 14.749 17.577 35.422 27.235 56.649 28.533 4.015.246 7.527-2.701 7.982-6.698 2.41-21.129-3.511-43.165-18.26-60.743z" fill="#ffe47d"/></g></g><g><g><path d="m353.34 385.215c4.015.245 7.527-2.701 7.982-6.698 2.408-21.13-3.513-43.166-18.262-60.743-10.31-12.287-23.237-19.629-37.473-23.909 17.757 29.51 25.785 52.682 24.83 86.539 7.389 2.716 15.117 4.333 22.923 4.811z" fill="#ffcd53"/></g></g><g><g><path d="m389.91 321.872c12.287-10.31 26.293-15.295 41.055-17.039 8.738-1.032 15.609-7.938 16.375-16.703l.01-.119c.273-3.122 3.026-5.432 6.148-5.159 3.122.273 5.432 3.026 5.159 6.148l-2.085 23.83-.01-.001c-2.955 21.221-10.457 40.906-27.744 55.411-17.577 14.749-39.613 20.67-60.743 18.262-3.997-.455-6.943-3.967-6.698-7.982 1.299-21.226 10.956-41.899 28.533-56.648z" fill="#ffe47d"/></g></g><g><g><path d="m335.161 408.06c-10.31-12.287-23.237-19.629-37.473-23.909-8.426-2.533-13.993-10.528-13.226-19.293l.01-.119c.273-3.122-2.036-5.875-5.159-6.148-3.122-.273-5.875 2.036-6.148 5.159l-2.085 23.83.01.001c-.775 21.412 3.195 42.1 17.7 59.387 14.749 17.577 35.422 27.235 56.649 28.533 4.015.245 7.527-2.701 7.982-6.698 2.41-21.13-3.511-43.165-18.26-60.743z" fill="#ffe47d"/></g></g><g><g><path d="m345.441 475.502c4.015.246 7.527-2.701 7.982-6.698 2.408-21.13-3.513-43.166-18.262-60.743-10.31-12.287-23.237-19.629-37.473-23.909 17.757 29.51 25.785 52.682 24.83 86.539 7.389 2.716 15.117 4.333 22.923 4.811z" fill="#ffcd53"/></g></g><g><g><path d="m383.874 205.93c-3.996-.455-6.943-3.967-6.698-7.982 1.298-21.227 10.955-41.9 28.533-56.649 12.287-10.31 26.293-15.295 41.055-17.039-22.612 25.978-34.541 47.404-39.48 80.913-7.749 1.391-15.64 1.642-23.41.757z" fill="#ffcd53"/></g></g><g><g><path d="m375.975 296.217c-3.997-.455-6.943-3.967-6.698-7.982 1.298-21.227 10.955-41.9 28.533-56.649 12.287-10.31 26.293-15.295 41.055-17.039-22.612 25.978-34.541 47.404-39.48 80.913-7.749 1.391-15.64 1.642-23.41.757z" fill="#ffcd53"/></g></g><g><g><path d="m368.076 386.504c-3.997-.455-6.943-3.967-6.698-7.982 1.298-21.227 10.955-41.9 28.533-56.649 12.287-10.31 26.293-15.295 41.055-17.039-22.612 25.978-34.541 47.404-39.48 80.913-7.749 1.391-15.64 1.642-23.41.757z" fill="#ffcd53"/></g></g><g><g><path d="m448.674 403.118 2.085-23.83c.273-3.122-2.036-5.875-5.159-6.148-3.122-.273-5.875 2.036-6.148 5.159l-.01.119c-.767 8.765-7.638 15.671-16.375 16.703-14.762 1.743-28.768 6.729-41.055 17.039-17.577 14.749-27.235 35.422-28.532 56.649-.246 4.015 2.701 7.527 6.698 7.982 7.883.898 15.892.634 23.748-.812 22.646-13.892 42.854-31.363 59.85-51.624 2.312-6.798 3.87-13.927 4.888-21.238z" fill="#ffe47d"/></g></g><g><g><path d="m353.479 468.808c-.246 4.015 2.701 7.527 6.698 7.982 7.77.885 15.661.634 23.41-.758 4.939-33.508 16.868-54.935 39.48-80.913-14.762 1.743-28.768 6.729-41.055 17.039-17.578 14.751-27.235 35.423-28.533 56.65z" fill="#ffcd53"/></g></g><g><g><path d="m343.554 495.873c5.303-2.03 10.518-4.239 15.636-6.62l30.957-353.837-14.943-1.307z" fill="#ffb629"/></g></g><g><g><g><path d="m399.551 6.994.072-.824c.273-3.122-2.036-5.875-5.159-6.148-3.122-.273-5.875 2.036-6.148 5.159l-.072.824c-.973 11.116-5.455 21.583-12.572 30.177-10.027 12.109-17.039 26.126-18.513 42.977-2 22.858 5.789 44.305 19.881 60.233 2.665 3.013 7.233 3.412 10.381.908 16.644-13.239 28.039-33.007 30.039-55.865 1.474-16.851-2.997-31.872-10.769-45.539-5.516-9.7-8.113-20.786-7.14-31.902z" fill="#ffe47d"/></g></g><g><g><path d="m379.772 81.137c1.474-16.851 8.486-30.868 18.513-42.977 1.778-2.148 3.392-4.412 4.828-6.774-3.013-7.732-4.292-16.054-3.562-24.392l.072-.824c.273-3.122-2.036-5.875-5.159-6.148s-5.875 2.036-6.148 5.159l-.072.824c-.973 11.116-5.455 21.583-12.572 30.177-10.027 12.109-17.039 26.126-18.513 42.977-2 22.858 5.789 44.305 19.881 60.233 2.665 3.012 7.233 3.412 10.381.908 2.337-1.859 4.566-3.85 6.684-5.957-10.532-14.954-16.052-33.557-14.333-53.206z" fill="#ffcd53"/></g></g></g></g></g></g></svg>