<svg id="Capa_1" enable-background="new 0 0 512 512" height="512" viewBox="0 0 512 512" width="512" xmlns="http://www.w3.org/2000/svg"><g><g><g><path d="m99.611 455.592h312.777c54.134-44.94 88.612-112.737 88.612-188.592 0-135.31-109.69-245-245-245s-245 109.69-245 245c0 75.855 34.478 143.652 88.611 188.592z" fill="#aad963"/></g></g><g><g><circle cx="256" cy="257" fill="#c8ea73" r="200"/></g></g><g><g><path d="m256 512c59.455 0 113.958-21.184 156.389-56.408l-32.867-131.469c-14.17-56.68-65.097-96.442-123.521-96.442-58.424 0-109.349 39.755-123.519 96.434-9.752 39.008-21.402 85.608-32.869 131.477 42.429 35.224 96.932 56.408 156.387 56.408z" fill="#bd5a40"/></g></g><g><g><path d="m145.023 434.367c.062-.001.12-.004.194-.004.238 0 .415.009.538.02 1.167.812 3.664 3.456 5.352 5.243 8.501 9 22.729 24.063 49.51 24.063s41.007-15.064 49.507-24.065c1.688-1.785 4.183-4.428 5.35-5.241.122-.011.299-.02.535-.02.237 0 .414.009.536.02 1.167.812 3.664 3.456 5.351 5.242 8.501 9.001 22.728 24.064 49.508 24.064 26.779 0 41.006-15.064 49.506-24.065 1.688-1.785 4.183-4.428 5.35-5.241.122-.011.299-.02.535-.02s.413.009.536.02c.419.297 1.354 1.072 3.303 3.084 7.842 8.099 18.283 12.56 29.4 12.562h.006c3.603 0 7.165-.5 10.603-1.425l-31.12-124.48c-14.17-56.68-65.097-96.442-123.521-96.442-58.424 0-109.349 39.755-123.519 96.434-9.752 39.008-21.402 85.608-32.869 131.477 10.675 8.862 22.115 16.833 34.206 23.804 3.681-14.803 7.477-30.058 11.203-45.03z" fill="#aa3c31"/></g></g><g><g><path d="m256 140c-51.876 0-97.093 35.299-109.674 85.625-13.311 53.242-30.603 122.413-45.167 180.67-2.743 10.971 10.795 18.426 18.662 10.303 6.236-6.439 13.078-12.236 25.396-12.236 27.7 0 27.7 29.327 55.4 29.327 27.696 0 27.696-29.327 55.392-29.327 27.697 0 27.697 29.327 55.394 29.327 27.696 0 27.696-29.327 55.391-29.327 12.315 0 19.156 5.797 25.391 12.235 7.865 8.122 21.399.661 18.657-10.307l-45.165-180.659c-12.583-50.325-57.801-85.631-109.677-85.631z" fill="#d0794e"/></g></g><g><g><path d="m159 334.931c7.515 7.956 21.443 22.573 46.804 22.573 25.482 0 39.423-14.762 46.912-22.691 1.025-1.086 2.304-2.439 3.292-3.388.987.948 2.266 2.302 3.291 3.387 7.489 7.931 21.431 22.692 46.914 22.692 25.482 0 39.423-14.762 46.912-22.692 1.025-1.085 2.303-2.438 3.291-3.387.374.356.854.831 1.463 1.461 7.641 7.889 17.82 12.234 28.662 12.236h.005c2.962 0 5.897-.344 8.755-.991l-29.625-118.499c-12.582-50.326-57.8-85.632-109.676-85.632-51.876 0-97.093 35.299-109.674 85.625-13.31 53.242-30.603 122.413-45.167 180.67-2.743 10.97 10.795 18.426 18.662 10.303 5.594-5.775 11.689-11.02 21.772-12.042 5.542-22.169 11.464-45.858 17.407-69.625z" fill="#bd5a40"/></g></g><g><g><path d="m256 61.323c-47.017 0-87.998 31.992-99.401 77.605-12.064 48.255-27.737 110.947-40.937 163.747-2.486 9.943 9.784 16.7 16.914 9.338 5.652-5.835 11.853-11.089 23.017-11.089 25.105 0 25.105 26.58 50.21 26.58 25.102 0 25.102-26.58 50.204-26.58 25.103 0 25.103 26.58 50.205 26.58 25.101 0 25.101-26.58 50.203-26.58 11.162 0 17.362 5.254 23.013 11.089 7.128 7.361 19.394.599 16.909-9.342l-40.934-163.737c-11.403-45.612-52.386-77.611-99.403-77.611z" fill="#f2f7f4"/></g></g><g><g><path d="m156.096 300.941c13.109-52.436 28.571-114.283 40.503-162.013 9.749-38.996 41.124-68.017 79.4-75.622-6.494-1.29-13.18-1.983-19.999-1.983-47.017 0-87.998 31.992-99.401 77.605-12.064 48.255-27.737 110.947-40.937 163.747-2.486 9.943 9.784 16.7 16.914 9.338 5.652-5.835 11.853-11.089 23.017-11.089.173 0 .332.014.503.017z" fill="#e0e7e3"/></g></g><g><g><g><path d="m320.609 195.248c.043-3.495-1.371-7.004-4.242-9.539-4.675-4.128-11.84-4.128-16.515 0-2.871 2.535-4.284 6.044-4.242 9.539.055 4.538 5.629 6.716 8.838 3.507 2.022-2.022 5.3-2.022 7.322 0 3.21 3.209 8.784 1.031 8.839-3.507z" fill="#463c39"/></g></g><g><g><path d="m191.391 195.248c-.043-3.495 1.371-7.004 4.242-9.539 4.675-4.128 11.84-4.128 16.515 0 2.871 2.535 4.284 6.044 4.242 9.539-.055 4.538-5.629 6.716-8.838 3.507-2.022-2.022-5.3-2.022-7.322 0-3.21 3.209-8.784 1.031-8.839-3.507z" fill="#463c39"/></g></g></g><g><g><ellipse cx="228.043" cy="264.243" fill="#fe3f3d" rx="30" ry="12.5" transform="matrix(.259 -.966 .966 .259 -86.219 416.124)"/></g></g><g><g><path d="m296.031 261.008c-4.288-16.004-13.17-27.529-19.839-25.742-2.925.784-4.938 4-5.915 8.714-4.049-6.774-8.968-10.759-14.277-10.759-13.807 0-25 26.863-25 60s11.193 60 25 60 25-26.863 25-60c0-2.114-.047-4.202-.136-6.26 3.603 4.697 7.509 7.157 10.857 6.26 6.668-1.787 8.598-16.209 4.31-32.213z" fill="#fe5653"/></g></g><g><g><ellipse cx="223.265" cy="91.515" fill="#fe3f3d" rx="19.853" ry="47.646" transform="matrix(.966 -.259 .259 .966 -16.078 60.903)"/></g></g><g><g><path d="m301.066 45.492c-5.124-1.373-11.069 2.213-16.614 9.148-2.918-31.268-14.544-54.64-28.453-54.64-16.108 0-29.167 31.34-29.167 70s13.058 70 29.167 70c4.988 0 9.682-3.011 13.788-8.308 1.686 3.067 3.902 5.119 6.615 5.846 10.591 2.838 24.697-15.467 31.508-40.885 6.811-25.417 3.747-48.323-6.844-51.161z" fill="#fe5653"/></g></g><g><g><path d="m287.59 239.657-24.442 19.359c-4.188 3.317-10.107 3.317-14.294 0l-24.442-19.359c-7.017-5.558-5.284-16.647 3.095-19.799l16.338-6.144c7.836-2.947 16.477-2.947 24.313 0l16.338 6.144c8.378 3.151 10.111 14.241 3.094 19.799z" fill="#ffb629"/></g></g><g><g><circle cx="243.043" cy="206.447" fill="#fe3f3d" r="15"/></g></g><g><g><circle cx="267.894" cy="206.447" fill="#fe5653" r="15"/></g></g></g></svg>