<svg id="Capa_1" enable-background="new 0 0 512 512" height="512" viewBox="0 0 512 512" width="512" xmlns="http://www.w3.org/2000/svg"><g><g><g><path d="m451.724 414.374c30.93-41.012 49.276-92.049 49.276-147.374 0-135.31-109.69-245-245-245s-245 109.69-245 245c0 55.325 18.346 106.362 49.276 147.374z" fill="#ffcd53"/></g></g><g><g><circle cx="256" cy="267" fill="#ffe47d" r="200"/></g></g><g><g><path d="m256 512c79.984 0 151.009-38.334 195.724-97.626-20.35-89.309-100.251-155.96-195.724-155.96s-175.374 66.651-195.724 155.96c44.715 59.292 115.74 97.626 195.724 97.626z" fill="#fe6d68"/></g></g><g><g><path d="m60.276 414.374c18.312 24.281 41.041 45.039 66.985 61.098 8.269-115.481 56.803-176.237 128.739-217.058-95.473 0-175.374 66.651-195.724 155.96z" fill="#fe5653"/></g></g><g><g><path d="m309.386 89.486s22.322-69.358 121.442-89.285c7.241-1.456 13.478 5.236 11.585 12.375-3.115 11.75-5.94 28.779-2.627 45.342 5.9 29.502 10.621 66.872-18.882 83s-50.744 6.294-69.232 35.009z" fill="#fe5653"/></g></g><g><g><path d="m426.989 136.904c-8.336-15.736-18.976-30.661-31.579-43.924-17.537-18.454-37.936-32.956-60.207-43.101-19.765 20.824-25.818 39.606-25.818 39.606l42.287 86.442c18.488-28.716 39.73-18.881 69.232-35.009 2.226-1.217 4.235-2.568 6.085-4.014z" fill="#fe3f3d"/></g></g><g><g><path d="m342.65 89.214c7.837-13.331 26.534-37.034 65.75-51.626-.307 8.381.18 17.272 1.968 26.213 2.294 11.472 4.761 26.059 3.458 37.128-1.216 10.333-4.885 12.339-7.312 13.666-7.669 4.192-14.721 5.869-22.885 7.811-6.462 1.537-13.856 3.296-21.544 6.538z" fill="#fe3f3d"/></g></g><g><g><path d="m395.411 92.98c-10.107-10.636-21.169-19.953-32.988-27.889-9.778 8.992-16.023 17.745-19.772 24.122l19.435 39.729c7.688-3.242 15.082-5.001 21.544-6.538 8.165-1.941 15.216-3.618 22.885-7.811 1.223-.668 2.76-1.512 4.141-3.502-4.699-6.3-9.784-12.364-15.245-18.111z" fill="#e52e2b"/></g></g><g><g><path d="m202.614 89.486s-22.322-69.358-121.442-89.285c-7.241-1.456-13.478 5.236-11.585 12.375 3.115 11.75 5.94 28.779 2.627 45.342-5.9 29.502-10.621 66.872 18.882 83s50.744 6.294 69.232 35.009z" fill="#fe5653"/></g></g><g><g><path d="m116.589 92.98c-12.603 13.262-23.243 28.187-31.579 43.924 1.85 1.446 3.859 2.797 6.085 4.014 29.502 16.128 50.744 6.294 69.232 35.009l42.287-86.442s-6.052-18.782-25.818-39.606c-22.271 10.145-42.67 24.647-60.207 43.101z" fill="#fe3f3d"/></g></g><g><g><path d="m169.35 89.214c-7.837-13.331-26.534-37.034-65.75-51.626.307 8.381-.18 17.272-1.968 26.213-2.294 11.472-4.761 26.059-3.458 37.128 1.216 10.333 4.885 12.339 7.312 13.666 7.669 4.192 14.721 5.869 22.885 7.811 6.462 1.537 13.856 3.296 21.544 6.538z" fill="#fe3f3d"/></g></g><g><g><path d="m116.589 92.98c-5.461 5.747-10.546 11.811-15.245 18.112 1.38 1.99 2.918 2.834 4.141 3.502 7.669 4.192 14.721 5.869 22.885 7.811 6.462 1.537 13.856 3.296 21.544 6.538l19.435-39.729c-3.749-6.378-9.994-15.13-19.772-24.122-11.818 7.935-22.88 17.252-32.988 27.888z" fill="#e52e2b"/></g></g><g><g><path d="m256 62.807c-98.095 0-161.756 84.751-161.756 152.462s68.87 113.431 161.756 113.431 161.756-45.72 161.756-113.431-63.661-152.462-161.756-152.462z" fill="#fe6d68"/></g></g><g><g><path d="m144.244 215.269c0-61.771 52.986-137.708 136.756-150.56-8.057-1.236-16.393-1.902-25-1.902-98.095 0-161.756 84.75-161.756 152.462s68.87 113.431 161.756 113.431c8.549 0 16.893-.39 25-1.146-79.978-7.459-136.756-50.806-136.756-112.285z" fill="#fe5653"/></g></g><g><g><ellipse cx="256" cy="216" fill="#fe3f3d" rx="59.068" ry="41.767"/></g></g><g><g><g><path d="m330.609 170.895c.043-3.495-1.371-7.004-4.242-9.539-4.675-4.128-11.84-4.128-16.515 0-2.871 2.535-4.284 6.044-4.242 9.539.055 4.538 5.629 6.716 8.838 3.507 2.022-2.022 5.3-2.022 7.322 0 3.21 3.209 8.784 1.031 8.839-3.507z" fill="#352c28"/></g></g><g><g><path d="m181.391 170.895c-.043-3.495 1.371-7.004 4.242-9.539 4.675-4.128 11.84-4.128 16.515 0 2.871 2.535 4.284 6.044 4.242 9.539-.055 4.538-5.629 6.716-8.838 3.507-2.022-2.022-5.3-2.022-7.322 0-3.21 3.209-8.784 1.031-8.839-3.507z" fill="#352c28"/></g></g></g><g><g><ellipse cx="256" cy="244.736" fill="#fe5653" rx="71.967" ry="50.889"/></g></g><g><g><ellipse cx="231" cy="244.736" fill="#e52e2b" rx="10" ry="15"/></g></g><g><g><ellipse cx="281" cy="244.736" fill="#e52e2b" rx="10" ry="15"/></g></g></g></svg>