<svg id="Capa_1" enable-background="new 0 0 512 512" height="512" viewBox="0 0 512 512" width="512" xmlns="http://www.w3.org/2000/svg"><g><g><g><path d="m110.844 464.371h290.312c60.55-44.606 99.844-116.395 99.844-197.371 0-135.31-109.69-245-245-245s-245 109.69-245 245c0 80.976 39.294 152.765 99.844 197.371z" fill="#3b6945"/></g></g><g><g><circle cx="256" cy="247" fill="#477d73" r="200"/></g></g><g><g><g><circle cx="285.762" cy="37.994" fill="#ffe47d" r="37.994"/></g></g><g><g><circle cx="226.238" cy="37.994" fill="#ffcd53" r="37.994"/></g></g><g><g><circle cx="315.524" cy="91.819" fill="#ffcd53" r="37.994"/></g></g><g><g><circle cx="196.476" cy="91.819" fill="#ffe47d" r="37.994"/></g></g><g><g><circle cx="256" cy="91.819" fill="#ffb629" r="37.994"/></g></g><g><g><g><circle cx="345.286" cy="145.644" fill="#ffb629" r="37.994"/></g></g></g><g><g><g><circle cx="285.762" cy="145.644" fill="#ffe47d" r="37.994"/></g></g></g><g><g><g><circle cx="166.714" cy="145.644" fill="#fe9d09" r="37.994"/></g></g></g><g><g><g><circle cx="226.238" cy="145.644" fill="#ffcd53" r="37.994"/></g></g></g><g><g><g><circle cx="345.286" cy="193.998" fill="#ffcd53" r="37.994"/></g></g></g><g><g><g><circle cx="285.762" cy="193.998" fill="#fe9d09" r="37.994"/></g></g></g><g><g><g><circle cx="166.714" cy="193.998" fill="#ffe47d" r="37.994"/></g></g></g><g><g><g><circle cx="226.238" cy="193.998" fill="#ffb629" r="37.994"/></g></g></g><g><g><g><circle cx="345.286" cy="242.352" fill="#ffb629" r="37.994"/></g></g></g><g><g><g><circle cx="285.762" cy="242.352" fill="#ffcd53" r="37.994"/></g></g></g><g><g><g><circle cx="166.714" cy="242.352" fill="#fe9d09" r="37.994"/></g></g></g><g><g><g><circle cx="226.238" cy="242.352" fill="#ffe47d" r="37.994"/></g></g></g><g><g><g><circle cx="285.762" cy="290.706" fill="#fe9d09" r="37.994"/></g></g></g><g><g><g><circle cx="226.238" cy="290.706" fill="#ffb629" r="37.994"/></g></g></g></g><g><g><path d="m381.156 252.767c-87.963 0-161.176 63.1-176.875 146.501l106.561 106.562c33.176-7.591 63.785-21.915 90.314-41.459v-191.604c0-11.045-8.954-20-20-20z" fill="#aad963"/></g></g><g><g><path d="m310.84 505.828c13.816-3.163 27.187-7.492 40.004-12.881v-60.18c0-58.038-22.334-112.635-62.916-154.005-42.896 26.023-74.031 69.47-83.639 120.515z" fill="#8bc852"/></g></g><g><g><path d="m130.844 252.767c-11.046 0-20 8.954-20 20v191.604c40.629 29.93 90.822 47.629 145.156 47.629 18.855 0 37.211-2.135 54.844-6.168v-73.065c0-99.411-80.589-180-180-180z" fill="#c8ea73"/></g></g><g><g><path d="m158.482 254.879c-9.01-1.388-18.239-2.111-27.638-2.111-11.046 0-20 8.954-20 20v191.604c40.629 29.929 90.822 47.628 145.156 47.628 18.855 0 37.211-2.135 54.844-6.168-123.433-34.445-152.362-145.3-152.362-250.953z" fill="#aad963"/></g></g></g></svg>