<svg id="Capa_1" enable-background="new 0 0 512 512" height="512" viewBox="0 0 512 512" width="512" xmlns="http://www.w3.org/2000/svg"><g><g><g><path d="m245 11c-34.705 0-67.716 7.232-97.632 20.245l-91.289 380.755c5.794 7.008 11.979 13.679 18.505 20l54.715 20v20c23.661 12.701 49.648 21.626 77.159 25.973l38.542-15.569 38.542 15.569c116.997-18.489 206.458-119.778 206.458-241.973 0-135.31-109.69-245-245-245z" fill="#ffcd53"/></g></g><g><g><path d="m442 236-120.505-148.853c-16.59-20.493-47.845-20.493-64.436 0-16.59 20.493-47.845 20.493-64.435 0l-45.256-55.902c-62.571 27.219-111.554 79.796-133.987 144.756z" fill="#fcaa70"/></g></g><g><g><path d="m110.888 189.65v-13.65c64.194 0 117.37-56.437 143.923-86.316-17.035 17.903-46.316 17.067-62.187-2.537l-45.256-55.902c-62.571 27.219-111.554 79.796-133.987 144.756z" fill="#fa9a5e"/></g></g><g><g><path d="m56.079 412h304.041c18.172 0 34.06-12.249 38.684-29.823l33.196-126.177v-19.955l-432 19.955c0 59.272 21.05 113.627 56.079 156z" fill="#d0794e"/></g></g><g><g><path d="m160.096 256v-7.395l-160.096 7.395c0 59.272 21.05 113.627 56.079 156h104.017c-14.359 0-26-11.641-26-26s11.641-26 26-26v-52c-14.359 0-26-11.641-26-26s11.64-26 26-26z" fill="#bd5a40"/></g></g><g><g><path d="m3.268 216-.003.001c-2.141 13.016-3.265 26.376-3.265 39.999h452c11.046 0 20-8.954 20-20v-40z" fill="#e0e7e3"/></g></g><g><g><path d="m110.888 216v-4.592l-107.62 4.592-.003.001c-2.141 13.016-3.265 26.376-3.265 39.999h110.888c-9.55 0-17.292-8.954-17.292-20s7.742-20 17.292-20z" fill="#d1dad5"/></g></g><g><g><path d="m512 196c0 5.52-2.24 10.52-5.86 14.14s-8.62 5.86-14.14 5.86h-488.75c2.26-13.75 5.66-27.12 10.11-40h478.64c11.05 0 20 8.95 20 20z" fill="#f2f7f4"/></g></g><g><g><path d="m110.888 176h-97.515c-4.448 12.88-7.846 26.247-10.105 40h107.619c-11.046 0-20-8.954-20-20s8.955-20 20.001-20z" fill="#e0e7e3"/></g></g><g><g><path d="m245 392c-33.137 0-60 26.863-60 60 0 18.461 8.344 34.967 21.458 45.973 12.557 1.985 25.427 3.027 38.542 3.027s25.985-1.042 38.542-3.027c13.114-11.006 21.458-27.512 21.458-45.973 0-33.137-26.863-60-60-60z" fill="#bd5a40"/></g></g><g><g><path d="m245 472v-40c-11.046 0-20-8.954-20-20s8.954-20 20-20c-33.137 0-60 26.863-60 60 0 18.461 8.344 34.967 21.458 45.973 6.706 1.06 13.5 1.852 20.375 2.356-1.165-2.538-1.833-5.353-1.833-8.329 0-11.046 8.954-20 20-20z" fill="#aa3c31"/></g></g><g><g><path d="m245 432h-170.416c16.235 15.723 34.634 29.221 54.715 40h115.701c11.046 0 20-8.954 20-20s-8.954-20-20-20z" fill="#f2f7f4"/></g></g><g><g><path d="m168.574 452c0-11.046 8.954-20 20-20h-113.99c16.235 15.723 34.634 29.221 54.715 40h59.275c-11.045 0-20-8.954-20-20z" fill="#e0e7e3"/></g></g><g><g><path d="m404.638 360 13.681-52h-412.775c3.926 18.164 9.858 35.581 17.567 52z" fill="#bd5a40"/></g></g><g><g><path d="m134.096 334c0-14.359 11.641-26 26-26h-154.552c3.926 18.164 9.858 35.581 17.567 52h136.985c-14.36 0-26-11.641-26-26z" fill="#aa3c31"/></g></g></g></svg>