<svg id="Capa_1" enable-background="new 0 0 512 512" height="512" viewBox="0 0 512 512" width="512" xmlns="http://www.w3.org/2000/svg"><g><g><g><path d="m256 22c-135.31 0-245 109.69-245 245 0 131.037 102.873 238.046 232.262 244.673l12.738-9.184 12.738 9.184c129.389-6.627 232.262-113.636 232.262-244.673 0-135.31-109.69-245-245-245z" fill="#fe5653"/></g></g><g><g><circle cx="256" cy="282" fill="#fe6d68" r="200"/></g></g><g><g><path d="m319.64 333.492c-35.147-35.147-92.132-35.147-127.279 0-35.147 35.147-35.147 92.132 0 127.279l50.902 50.902c4.218.216 8.465.327 12.737.327s8.519-.111 12.738-.327l50.902-50.902c35.147-35.147 35.147-92.132 0-127.279z" fill="#ffcd53"/></g></g><g><g><path d="m232.36 333.492c12.452-12.452 27.648-20.469 43.64-24.098-29.147-6.615-60.944 1.403-83.64 24.098-35.147 35.147-35.147 92.132 0 127.279l50.902 50.902c4.219.216 8.466.327 12.738.327s8.519-.111 12.738-.327l7.262-7.262-43.64-43.64c-35.147-35.147-35.147-92.132 0-127.279z" fill="#ffb629"/></g></g><g><g><g><path d="m433.81 170.522c-55.756 23.737-169.481 100.305-169.481 100.305s40.234 39.41 139.108 43.285c68.282 2.676 88.082-36.417 71.105-62.431.288-.197.59-.386.873-.586 53.958-38.173 14.151-104.31-41.605-80.573z" fill="#f2f7f4"/></g></g><g><g><path d="m474.512 188.626c-1.443-3.883-5.758-5.858-9.643-4.416l-42.838 15.926c-1.951.725-3.513 2.229-4.312 4.151l-16.966 40.813-38.16 5.08 8.033-13.513c2.116-3.56.946-8.163-2.615-10.279-3.561-2.117-8.164-.947-10.279 2.615l-14.088 23.7-80.305 10.69c-4.107.545-6.991 4.318-6.445 8.424s4.318 6.991 8.424 6.445l67.234-8.95 23.903 21.131c1.454 1.286 3.35 1.957 5.289 1.874l92.796-3.989c.561-.024 1.105-.11 1.626-.249 3.321-.89 5.699-3.989 5.545-7.566-.178-4.138-3.677-7.349-7.815-7.171l-89.773 3.859-11.888-10.51 81.59-10.861c.329-.044.649-.108.961-.191 3.585-.961 5.987-4.455 5.484-8.233-.546-4.106-4.318-6.991-8.424-6.445l-13.897 1.85 12.368-29.753 39.778-14.789c3.883-1.442 5.86-5.76 4.417-9.643z" fill="#e0e7e3"/></g></g></g><g><g><g><path d="m78.19 170.522c-55.756-23.737-95.563 42.4-41.605 80.573.283.2.584.389.873.586-16.976 26.014 2.823 65.107 71.105 62.431 98.874-3.875 139.108-43.285 139.108-43.285s-113.724-76.567-169.481-100.305z" fill="#f2f7f4"/></g></g><g><g><path d="m248.661 263.393-80.305-10.69-14.088-23.7c-2.117-3.561-6.719-4.732-10.279-2.615-3.561 2.116-4.731 6.719-2.615 10.279l8.033 13.513-38.16-5.08-16.965-40.814c-.799-1.922-2.361-3.426-4.312-4.151l-42.838-15.925c-3.876-1.438-8.2.534-9.643 4.416-1.443 3.883.534 8.2 4.416 9.643l39.778 14.789 12.368 29.753-13.897-1.85c-4.106-.547-7.878 2.339-8.424 6.445-.503 3.777 1.899 7.272 5.484 8.233.311.083.632.148.961.191l81.59 10.861-11.888 10.51-89.773-3.859c-4.138-.178-7.637 3.033-7.815 7.171-.154 3.577 2.224 6.676 5.545 7.566.521.14 1.065.225 1.626.249l92.796 3.989c1.939.083 3.835-.588 5.289-1.874l23.903-21.131 67.234 8.95c4.106.547 7.878-2.339 8.424-6.445.546-4.105-2.332-7.88-6.445-8.424z" fill="#e0e7e3"/></g></g></g><g><g><circle cx="254.671" cy="270" fill="#564c49" r="70"/></g></g><g><g><path d="m224.671 270c0-31.708 21.088-58.477 50-67.085-6.339-1.887-13.048-2.915-20-2.915-38.66 0-70 31.34-70 70s31.34 70 70 70c6.952 0 13.661-1.028 20-2.915-28.912-8.608-50-35.377-50-67.085z" fill="#463c39"/></g></g><g><g><path d="m226 132.117c-4.143 0-7.5-3.357-7.5-7.5 0-55.56-30.696-89.159-31.006-89.492-2.818-3.026-2.662-7.769.357-10.595s7.749-2.68 10.582.332c1.432 1.522 35.066 38.003 35.066 99.755.001 4.143-3.356 7.5-7.499 7.5z" fill="#352c28"/></g></g><g><g><circle cx="192.97" cy="30" fill="#564c49" r="30"/></g></g><g><g><path d="m192.97 30c0-11.102 6.036-20.789 15-25.977-4.414-2.554-9.534-4.023-15-4.023-16.568 0-30 13.431-30 30s13.432 30 30 30c5.466 0 10.586-1.469 15-4.023-8.964-5.188-15-14.875-15-25.977z" fill="#463c39"/></g></g><g><g><path d="m286 132.117c-4.143 0-7.5-3.357-7.5-7.5 0-61.752 33.635-98.232 35.066-99.755 2.838-3.018 7.585-3.162 10.602-.326 3.014 2.834 3.163 7.572.337 10.591-.402.434-31.005 34.016-31.005 89.49 0 4.143-3.357 7.5-7.5 7.5z" fill="#352c28"/></g></g><g><g><circle cx="319.03" cy="30" fill="#564c49" r="30"/></g></g><g><g><path d="m319.03 30c0-11.102 6.036-20.789 15-25.977-4.414-2.554-9.534-4.023-15-4.023-16.568 0-30 13.431-30 30s13.432 30 30 30c5.466 0 10.586-1.469 15-4.023-8.965-5.188-15-14.875-15-25.977z" fill="#463c39"/></g></g><g><g><ellipse cx="256" cy="165.574" fill="#ffcd53" rx="90" ry="70"/></g></g><g><g><path d="m206 165.574c0-33.313 29.921-61.189 70-68.263-6.433-1.135-13.126-1.737-20-1.737-49.706 0-90 31.34-90 70s40.294 70 90 70c6.874 0 13.567-.602 20-1.738-40.079-7.074-70-34.949-70-68.262z" fill="#ffb629"/></g></g><g><g><g><path d="m315.609 169.375c.043-3.495-1.371-7.004-4.242-9.539-4.675-4.128-11.84-4.128-16.515 0-2.871 2.535-4.284 6.044-4.242 9.539.055 4.538 5.629 6.716 8.838 3.507 2.022-2.022 5.3-2.022 7.322 0 3.21 3.209 8.784 1.031 8.839-3.507z" fill="#463c39"/></g></g><g><g><path d="m196.391 169.375c-.043-3.495 1.371-7.004 4.242-9.539 4.675-4.128 11.84-4.128 16.515 0 2.871 2.535 4.284 6.044 4.242 9.539-.055 4.538-5.629 6.716-8.838 3.507-2.022-2.022-5.3-2.022-7.322 0-3.21 3.209-8.784 1.031-8.839-3.507z" fill="#463c39"/></g></g></g><g><g><path d="m181.302 447.333h149.396c12.092-17.951 17.005-39.287 14.75-60h-178.896c-2.255 20.713 2.658 42.049 14.75 60z" fill="#564c49"/></g></g><g><g><path d="m206.552 387.333h-40c-2.256 20.713 2.658 42.049 14.75 60h40c-12.092-17.951-17.005-39.287-14.75-60z" fill="#463c39"/></g></g></g></svg>