<svg id="Capa_1" enable-background="new 0 0 512 512" height="512" viewBox="0 0 512 512" width="512" xmlns="http://www.w3.org/2000/svg"><g><g><g><path d="m15.139 312 155.903 158.83 84.958 27.143 134.183-25.973c31.204-20.466 57.448-47.859 76.554-80l-10.737-40.66 40.861-39.34c2.709-14.589 4.139-29.626 4.139-45 0-135.31-109.69-245-245-245s-245 109.69-245 245c0 15.374 1.43 30.411 4.139 45z" fill="#8ac8f0"/></g></g><g><g><circle cx="256" cy="302" fill="#b1e4f9" r="200"/></g></g><g><g><path d="m496.861 312h-48.27c-11.046 0-20-8.954-20-20 0-11.046-8.954-20-20-20h-156.319c-11.046 0-20 8.954-20 20 0 11.046 8.954 20 20 20h41.277c11.046 0 20 8.954 20 20 0 11.046 8.954 20 20 20h42.638c11.046 0 20 8.954 20 20 0 11.046 8.954 20 20 20h50.551c14.43-24.277 24.786-51.255 30.123-80z" fill="#f2f7f4"/></g></g><g><g><path d="m215.135 472c-11.046 0-20-8.954-20-20 0-11.046 8.954-20 20-20h76.046c11.046 0 20-8.954 20-20 0-11.046-8.954-20-20-20h-176.431c-11.046 0-20-8.954-20-20 0-11.046 8.954-20 20-20h36.335c11.046 0 20-8.954 20-20 0-11.046-8.954-20-20-20h-135.946c21.132 113.814 120.925 200 240.861 200 49.541 0 95.637-14.718 134.183-40z" fill="#f2f7f4"/></g></g><g><g><g><path d="m371.904 50.122c-23.224 18.729-57.326-.96-52.718-30.437 1.346-8.608-4.016-16.846-12.432-19.101-8.416-2.255-17.178 2.198-20.317 10.326-10.748 27.832-50.126 27.832-60.874 0-3.139-8.128-11.901-12.581-20.317-10.326-8.416 2.255-13.778 10.493-12.432 19.101 4.608 29.477-29.495 49.166-52.718 30.437-6.782-5.47-16.597-4.945-22.758 1.216-6.161 6.161-6.685 15.976-1.216 22.758 18.729 23.224-.96 57.326-30.437 52.718-8.608-1.346-16.846 4.016-19.101 12.432-2.255 8.416 2.198 17.178 10.326 20.317 27.832 10.748 27.832 50.126 0 60.874-8.128 3.139-12.581 11.901-10.326 20.317 2.255 8.416 10.493 13.778 19.101 12.432 29.477-4.608 49.166 29.495 30.437 52.718-5.47 6.782-4.945 16.597 1.216 22.758 6.161 6.161 15.976 6.685 22.758 1.216 23.224-18.729 57.326.96 52.718 30.437-1.346 8.608 4.016 16.846 12.432 19.101 8.416 2.255 17.178-2.198 20.317-10.326 10.748-27.832 50.126-27.832 60.874 0 3.139 8.128 11.901 12.581 20.317 10.326 8.416-2.255 13.778-10.493 12.432-19.101-4.608-29.477 29.495-49.166 52.718-30.437 6.782 5.47 16.597 4.945 22.758-1.216 6.161-6.161 6.685-15.976 1.216-22.758-18.729-23.224.96-57.326 30.437-52.718 8.608 1.346 16.846-4.016 19.101-12.432 2.255-8.416-2.198-17.178-10.326-20.317-27.832-10.748-27.832-50.126 0-60.874 8.128-3.139 12.582-11.901 10.326-20.317-2.255-8.416-10.493-13.778-19.101-12.432-29.477 4.608-49.166-29.495-30.437-52.718 5.47-6.782 4.945-16.597-1.216-22.758-6.161-6.161-15.976-6.685-22.758-1.216z" fill="#ffe47d"/></g></g><g><g><circle cx="256" cy="190" fill="#ffcd53" r="119.998"/></g></g><g><g><path d="m216.591 190c0-52.136 33.253-96.499 79.703-113.056-12.595-4.49-26.158-6.942-40.295-6.942-66.273 0-119.998 53.725-119.998 119.998s53.725 119.998 119.998 119.998c14.137 0 27.7-2.452 40.295-6.942-46.45-16.557-79.703-60.92-79.703-113.056z" fill="#ffb629"/></g></g></g></g></svg>