<svg id="Capa_1" enable-background="new 0 0 512 512" height="512" viewBox="0 0 512 512" width="512" xmlns="http://www.w3.org/2000/svg"><g><g><g><path d="m456.604 407.666c27.968-39.811 44.396-88.317 44.396-140.666 0-135.31-109.69-245-245-245s-245 109.69-245 245c0 52.349 16.428 100.855 44.396 140.666z" fill="#aad963"/></g></g><g><g><path d="m432.45 97.03c-6.04-22.06-10.45-35.65-10.45-35.65h-332s-4.41 13.59-10.45 35.65c-13.01 47.59-33.55 134.63-33.55 209.78 0 32.78 3.91 67.83 9.4 100.87 9.103 12.959 19.432 24.993 30.815 35.939l.001-.002 38.075 15v14.996c38.035 24.299 83.224 38.387 131.709 38.387s93.674-14.088 131.708-38.387v-14.996l38.075-15 .001.002c11.383-10.947 21.712-22.98 30.815-35.939 5.49-33.04 9.4-68.09 9.4-100.87.001-75.15-20.539-162.19-33.549-209.78z" fill="#d0794e"/></g></g><g><g><path d="m186 61.38h-96s-4.41 13.59-10.45 35.65c-13.01 47.59-33.55 134.63-33.55 209.78 0 32.78 3.91 67.83 9.4 100.87 9.103 12.959 19.432 24.993 30.815 35.939l.001-.002 38.075 15v14.996c38.035 24.299 83.224 38.387 131.709 38.387 48.483 0 93.67-14.087 131.704-38.385-154.225-61.383-235.64-179.128-201.704-393.615z" fill="#bd5a40"/></g></g><g><g><path d="m137.429 61.383s-31.429 135.447-31.429 245.426c0 45.017 5.266 94.295 11.487 136.809h6.805v29.966c24.269 15.505 51.439 26.864 80.532 33.047-3.706-49.11-8.824-129.647-8.824-199.822 0-109.979 12.571-245.426 12.571-245.426h-71.142z" fill="#bd5a40"/></g></g><g><g><path d="m124.292 443.617v29.966c24.269 15.505 51.439 26.864 80.532 33.047-3.706-49.109-8.824-129.646-8.824-199.821 0-6.099.041-12.279.114-18.507-19.074-56.448-23.28-125.091-10.114-208.302v-18.617h-48.571s-31.429 135.447-31.429 245.426c0 45.017 5.266 94.295 11.487 136.809h6.805z" fill="#aa3c31"/></g></g><g><g><path d="m387.708 473.583v-29.966h6.805c6.221-42.513 11.487-91.791 11.487-136.808 0-109.979-31.429-245.426-31.429-245.426h-71.143s12.571 135.447 12.571 245.426c0 70.175-5.118 150.712-8.823 199.822 29.093-6.184 56.264-17.542 80.532-33.048z" fill="#bd5a40"/></g></g><g><g><path d="m311.908 434.838c-1.522 27.2-3.241 52.041-4.731 71.792 29.079-6.18 56.238-17.532 80.499-33.026-27.691-11.023-53.019-23.875-75.768-38.766z" fill="#aa3c31"/></g></g><g><g><path d="m426 80h-340c-11.046 0-20-8.954-20-20v-40h380v40c0 11.046-8.954 20-20 20z" fill="#e0e7e3"/></g></g><g><g><path d="m166 60v-40h-100v40c0 11.046 8.954 20 20 20h100c-11.046 0-20-8.954-20-20z" fill="#d1dad5"/></g></g><g><g><path d="m446 40h-380c-11.046 0-20-8.954-20-20 0-11.046 8.954-20 20-20h380c11.046 0 20 8.954 20 20 0 11.046-8.954 20-20 20z" fill="#f2f7f4"/></g></g><g><g><path d="m446 170h-380c-8.284 0-15-6.716-15-15 0-8.284 6.716-15 15-15h380c8.284 0 15 6.716 15 15 0 8.284-6.716 15-15 15z" fill="#f2f7f4"/></g></g><g><g><path d="m176 155c0-8.284 6.716-15 15-15h-125c-8.284 0-15 6.716-15 15s6.716 15 15 15h125c-8.284 0-15-6.716-15-15z" fill="#e0e7e3"/></g></g><g><g><path d="m425.784 443.617h-339.568c11.648 11.2 24.397 21.262 38.075 30h263.417c13.679-8.738 26.428-18.8 38.076-30z" fill="#f2f7f4"/></g></g><g><g><path d="m146 20c0-11.046 8.954-20 20-20h-100c-11.046 0-20 8.954-20 20 0 11.046 8.954 20 20 20h100c-11.046 0-20-8.954-20-20z" fill="#e0e7e3"/></g></g><g><g><path d="m191 443.617h-104.784c11.648 11.2 24.397 21.262 38.075 30h66.709c-8.284 0-15-6.716-15-15s6.716-15 15-15z" fill="#e0e7e3"/></g></g></g></svg>