<svg id="Capa_1" enable-background="new 0 0 512 512" height="512" viewBox="0 0 512 512" width="512" xmlns="http://www.w3.org/2000/svg"><g><g><g><path d="m256 22c-135.31 0-245 109.69-245 245 0 83.47 41.752 157.176 105.5 201.412h30l30 30.391c18.897 6.479 38.836 10.711 59.5 12.381l20-14.737 20 14.737c17.671-1.428 34.809-4.735 51.222-9.714l38.279-33.058h30c11.575-8.032 22.424-17.033 32.43-26.891l3.07-11.968 15-7.885c34.377-42.179 55-96.012 55-154.668-.001-135.31-109.691-245-245.001-245z" fill="#8ac8f0"/></g></g><g><g><path d="m146.5 374.142h219v15h-219z" fill="#962e29" transform="matrix(.924 -.383 .383 .924 -126.561 127.018)"/></g></g><g><g><path d="m342.668 491.635-184.962-76.614-5.74 13.858 175.254 72.593c2.796-.848 5.564-1.76 8.317-2.705z" fill="#962e29"/></g></g><g><g><path d="m236 511.184c6.597.533 13.265.816 20 .816s13.403-.283 20-.816v-180.166h-40z" fill="#e0e7e3"/></g></g><g><g><path d="m236 331.018v95.791c0-11.046 8.954-20 20-20s20 8.954 20 20v-95.791z" fill="#d1dad5"/></g></g><g><g><path d="m286 346.809h-60c-11.046 0-20-8.954-20-20v-20h100v20c0 11.045-8.954 20-20 20z" fill="#f2f7f4"/></g></g><g><g><path d="m256 326.809v-20h-50v20c0 11.046 8.954 20 20 20h50c-11.046 0-20-8.955-20-20z" fill="#e0e7e3"/></g></g><g><g><path d="m116.5 468.412c18.338 12.725 38.49 23.015 60 30.391v-196.994h-60z" fill="#bd5a40"/></g></g><g><g><path d="m116.5 301.809v105c0-16.569 13.431-30 30-30 16.569 0 30 13.431 30 30v-105z" fill="#aa3c31"/></g></g><g><g><path d="m335.5 301.809v196.994c7.684-2.635 15.192-5.648 22.509-9.005l7.491-10.202 7.475 2.703c7.771-4.232 15.291-8.867 22.525-13.886v-166.604z" fill="#bd5a40"/></g></g><g><g><path d="m335.5 301.809v105c0-16.569 13.431-30 30-30 16.569 0 30 13.431 30 30v-105z" fill="#aa3c31"/></g></g><g><g><path d="m396 91.809h-280l-20 210h320z" fill="#aa3c31"/></g></g><g><g><path d="m160.187 91.809-13.687 210h73l4.562-210z" fill="#962e29"/></g></g><g><g><path d="m351.812 91.809h-63.874l4.562 210h73z" fill="#962e29"/></g></g><g><g><path d="m285 213.202h15v88.606h-15z" fill="#bd5a40"/></g></g><g><g><path d="m66 213.202h15v88.606h-15z" fill="#bd5a40"/></g></g><g><g><path d="m212 213.202h15v88.606h-15z" fill="#bd5a40"/></g></g><g><g><path d="m139 213.202h15v88.606h-15z" fill="#bd5a40"/></g></g><g><g><path d="m256 0c-6.594 0-13.115 1.378-19.146 4.044l-168.64 74.575c-4.385 1.939-7.214 6.282-7.214 11.077 0 6.689 5.423 12.112 12.112 12.112h365.775c6.689 0 12.112-5.423 12.112-12.112 0-4.795-2.829-9.138-7.214-11.078l-168.639-74.574c-6.031-2.666-12.552-4.044-19.146-4.044z" fill="#d0794e"/></g></g><g><g><path d="m446 316.809h-380c-8.284 0-15-6.716-15-15 0-8.284 6.716-15 15-15h380c8.284 0 15 6.716 15 15 0 8.284-6.716 15-15 15z" fill="#d0794e"/></g></g><g><g><path d="m139 301.809c0-8.284 6.716-15 15-15h-88c-8.284 0-15 6.716-15 15s6.716 15 15 15h88c-8.284 0-15-6.716-15-15z" fill="#bd5a40"/></g></g><g><g><path d="m363.5 279.309h75v15h-75z" fill="#e0e7e3"/></g></g><g><g><path d="m363.5 352.915h75v15h-75z" fill="#e0e7e3"/></g></g><g><g><path d="m438.5 426.521h-75v15h64.43c1.062-1.046 2.094-2.123 3.137-3.188z" fill="#e0e7e3"/></g></g><g><g><path d="m453.5 220.702h-395c-4.142 0-7.5-3.358-7.5-7.5 0-4.142 3.358-7.5 7.5-7.5h395c4.142 0 7.5 3.358 7.5 7.5 0 4.142-3.358 7.5-7.5 7.5z" fill="#d0794e"/></g></g><g><g><path d="m146.5 213.202c0-4.142 3.358-7.5 7.5-7.5h-95.5c-4.142 0-7.5 3.358-7.5 7.5 0 4.142 3.358 7.5 7.5 7.5h95.5c-4.142 0-7.5-3.358-7.5-7.5z" fill="#bd5a40"/></g></g><g><g><path d="m358 489.81c5.095-2.336 10.1-4.834 15-7.502v-281.606c0-4.142-3.358-7.5-7.5-7.5-4.142 0-7.5 3.358-7.5 7.5z" fill="#f2f7f4"/></g></g><g><g><path d="m446 421.668v-220.966c0-4.142-3.358-7.5-7.5-7.5-4.142 0-7.5 3.358-7.5 7.5v237.738c5.249-5.358 10.257-10.952 15-16.772z" fill="#f2f7f4"/></g></g><g><g><path d="m236.854 4.044-168.64 74.575c-4.386 1.939-7.214 6.282-7.214 11.077 0 6.689 5.423 12.112 12.112 12.112h150.733c-26.601-15.233-46.953-71.248 13.009-97.764z" fill="#bd5a40"/></g></g></g></svg>