<svg id="Capa_1" enable-background="new 0 0 512 512" height="512" viewBox="0 0 512 512" width="512" xmlns="http://www.w3.org/2000/svg"><g><g><g><path d="m11.48 282.149 67.597 67.597h353.846l67.597-67.597c.306-5.012.48-10.06.48-15.149 0-135.31-109.69-245-245-245s-245 109.69-245 245c0 5.089.174 10.137.48 15.149z" fill="#ffcd53"/></g></g><g><g><g><path d="m256 0c-11.269 0-20.622 8.709-21.425 19.949l-6.438 90.127c-1.155 16.17 11.652 29.924 27.863 29.924 16.211 0 29.018-13.754 27.863-29.924l-6.438-90.127c-.803-11.24-10.156-19.949-21.425-19.949z" fill="#aad963"/></g></g><g><g><path d="m336.433 91.949c-14.915-2.63-29.747-2.069-43.946 1.239-23.979 5.587-48.993 5.587-72.972 0-14.2-3.308-29.031-3.869-43.946-1.239-67.221 11.853-110.683 84.029-97.074 161.21s79.135 130.139 146.357 118.287c.111-.02.222-.039.332-.059 20.398-3.662 41.238-3.662 61.635 0 .111.02.221.04.332.059 67.221 11.853 132.748-41.106 146.357-118.287 13.608-77.181-29.854-149.357-97.075-161.21z" fill="#e52e2b"/></g></g><g><g><path d="m158.494 253.159c-12.419-70.431 22.692-136.685 80.01-156.743-6.376-.697-12.719-1.766-18.99-3.227-14.2-3.308-29.031-3.869-43.946-1.239-67.222 11.853-110.683 84.029-97.074 161.21s79.135 130.139 146.357 118.287c.111-.02.221-.039.332-.059 9.863-1.771 19.83-2.677 29.8-2.735-47.178-13.7-86.323-57.835-96.489-115.494z" fill="#c62424"/></g></g><g><g><path d="m256 98.097c-10.046 0-19.128 1.701-27.038 4.165-1.944 7.419-2.962 15.037-2.962 22.808 0 21.75 7.927 42.318 22.031 60.606 4.041 5.24 11.897 5.24 15.938 0 14.104-18.289 22.031-38.857 22.031-60.606 0-7.771-1.018-15.389-2.962-22.808-7.91-2.464-16.992-4.165-27.038-4.165z" fill="#aad963"/></g></g><g><g><path d="m125.394 90.031c-5.24 4.041-5.24 11.897 0 15.938 18.288 14.104 38.856 22.031 60.606 22.031 25.559 0 49.486-10.947 70-30-20.514-19.053-44.441-30-70-30-21.75 0-42.318 7.927-60.606 22.031z" fill="#8bc852"/></g></g><g><g><path d="m132.286 140.715c-3.295 5.739-.289 12.997 6.099 14.725 22.294 6.031 44.33 5.484 64.424-2.839 23.613-9.781 41.53-29.052 53.191-54.504-26.244-9.752-52.539-10.709-76.152-.929-20.094 8.324-36.063 23.519-47.562 43.547z" fill="#c8ea73"/></g></g><g><g><path d="m386.606 90.031c5.24 4.041 5.24 11.897 0 15.938-18.288 14.104-38.856 22.031-60.606 22.031-25.559 0-49.486-10.947-70-30 20.514-19.053 44.441-30 70-30 21.75 0 42.318 7.927 60.606 22.031z" fill="#8bc852"/></g></g><g><g><path d="m379.714 140.715c3.295 5.739.289 12.997-6.099 14.725-22.294 6.031-44.33 5.484-64.424-2.839-23.613-9.781-41.53-29.052-53.191-54.504 26.244-9.752 52.539-10.709 76.152-.929 20.094 8.324 36.063 23.519 47.562 43.547z" fill="#c8ea73"/></g></g></g><g><g><g><path d="m454.3 199.27c-10.885-2.917-22.173 3.075-25.858 13.724l-29.545 85.39c-5.301 15.32 3.51 31.92 19.168 36.115 15.659 4.196 31.589-5.775 34.658-21.693l17.108-88.722c2.135-11.065-4.646-21.898-15.531-24.814z" fill="#aad963"/></g></g><g><g><path d="m478.99 300.021c-4.5-.706-9.027-1.145-13.565-1.294-24.608-.81-48.77-7.284-70.486-18.886-12.859-6.871-27.041-11.251-42.128-12.571-67.999-5.949-128.66 52.519-135.49 130.592-3.893 44.495 10.545 85.747 36.265 114.109.806.008 1.607.031 2.415.031 99.064 0 184.383-58.802 222.99-143.401v-68.58z" fill="#fe5653"/></g></g><g><g><path d="m352.81 267.268c-67.999-5.949-128.66 52.519-135.49 130.592-3.893 44.495 10.545 85.747 36.266 114.109.805.008 1.607.031 2.415.031 19.214 0 37.909-2.218 55.849-6.4-13.418-24.992-20.042-55.177-17.255-87.034 6.233-71.246 57.296-126.155 117.852-130.694-5.978-2.323-11.828-4.998-17.508-8.032-12.86-6.871-27.041-11.252-42.129-12.572z" fill="#fe3f3d"/></g></g><g><g><path d="m428.911 294.024c-9.704-2.6-18.917-3.308-27.195-2.975-3.798 6.663-6.753 13.758-8.764 21.264-5.629 21.008-3.295 42.927 5.594 64.243 2.547 6.108 10.135 8.141 15.395 4.125 18.356-14.015 31.337-31.831 36.966-52.839 2.011-7.506 3-15.128 3.042-22.797-7.002-4.427-15.334-8.421-25.038-11.021z" fill="#aad963"/></g></g><g><g><path d="m304.842 252.43c-6.108 2.547-8.141 10.135-4.125 15.395 14.015 18.356 31.831 31.337 52.839 36.966 24.688 6.615 50.633 2.234 75.379-10.86-14.884-23.713-35.162-40.48-59.85-47.095-21.008-5.63-42.927-3.296-64.243 5.594z" fill="#8bc852"/></g></g><g><g><path d="m298.382 303.171c-4.668 4.691-3.643 12.479 2.08 15.802 19.973 11.596 41.4 16.771 62.964 13.932 25.34-3.336 47.634-17.313 65.485-38.88-22.825-16.212-47.977-23.943-73.317-20.607-21.564 2.839-40.921 13.383-57.212 29.753z" fill="#c8ea73"/></g></g><g><g><path d="m497.378 309.089c1.527-8.827 2.585-17.815 3.142-26.94-23.542-5.216-48.103-.643-71.584 11.781 3.409 5.432 7.105 10.494 11.069 15.158h57.373z" fill="#8bc852"/></g></g><g><g><path d="m428.911 294.024c4.676 27.604 16.995 50.855 37.272 66.414 4.06 3.115 8.342 5.828 12.807 8.176 8.535-18.7 14.783-38.66 18.396-59.526-19.364-12.726-42.982-17.467-68.475-15.064z" fill="#c8ea73"/></g></g></g><g><g><g><path d="m57.7 199.27c-10.885 2.917-17.665 13.749-15.532 24.815l17.108 88.722c3.069 15.918 18.999 25.888 34.658 21.693 15.659-4.196 24.469-20.796 19.168-36.115l-29.545-85.39c-3.684-10.65-14.972-16.642-25.857-13.725z" fill="#aad963"/></g></g><g><g><path d="m294.68 397.861c-6.831-78.073-67.492-136.541-135.49-130.592-15.088 1.32-29.269 5.7-42.128 12.571-21.716 11.603-45.878 18.077-70.486 18.886-4.539.149-9.066.589-13.565 1.294v68.579c38.606 84.599 123.925 143.401 222.989 143.401.807 0 1.609-.023 2.415-.031 25.72-28.361 40.158-69.614 36.265-114.108z" fill="#fe6d68"/></g></g><g><g><path d="m83.089 294.024c-9.704 2.6-18.036 6.593-25.039 11.021.042 7.669 1.031 15.291 3.042 22.797 5.629 21.008 18.61 38.824 36.966 52.839 5.26 4.016 12.848 1.982 15.395-4.125 8.889-21.316 11.223-43.235 5.594-64.243-2.011-7.506-4.966-14.601-8.764-21.264-8.277-.333-17.49.375-27.194 2.975z" fill="#aad963"/></g></g><g><g><path d="m71.995 309.089c3.964-4.664 7.659-9.727 11.069-15.158-23.482-12.425-48.042-16.998-71.584-11.781.557 9.124 1.615 18.112 3.142 26.94h57.373z" fill="#8bc852"/></g></g><g><g><path d="m14.615 309.089c3.613 20.865 9.861 40.826 18.396 59.526 4.465-2.348 8.747-5.061 12.807-8.176 20.277-15.559 32.596-38.81 37.272-66.414-25.494-2.404-49.112 2.337-68.475 15.064z" fill="#c8ea73"/></g></g><g><g><path d="m207.158 252.43c6.108 2.547 8.141 10.135 4.125 15.395-14.015 18.356-31.831 31.337-52.839 36.966-24.688 6.615-50.633 2.234-75.379-10.86 14.884-23.713 35.162-40.48 59.85-47.095 21.008-5.63 42.927-3.296 64.243 5.594z" fill="#8bc852"/></g></g><g><g><path d="m213.618 303.171c4.668 4.691 3.643 12.479-2.08 15.802-19.973 11.596-41.4 16.771-62.964 13.932-25.34-3.336-47.634-17.313-65.485-38.88 22.825-16.212 47.977-23.943 73.317-20.607 21.564 2.839 40.921 13.383 57.212 29.753z" fill="#c8ea73"/></g></g></g></g></svg>