<svg id="Capa_1" enable-background="new 0 0 512 512" height="512" viewBox="0 0 512 512" width="512" xmlns="http://www.w3.org/2000/svg"><g><g><g><path d="m107.611 461.946h296.778c58.711-44.758 96.611-115.421 96.611-194.946 0-135.31-109.69-245-245-245s-245 109.69-245 245c0 79.525 37.9 150.188 96.611 194.946z" fill="#3b6945"/></g></g><g><g><g><path d="m394.395 110.15c-.026-.012-.051-.024-.077-.035-4.818-2.146-8.188-6.672-8.222-11.946-.074-11.524-3.015-19.972-7.987-20.849-.529-.093-1.066-.098-1.608-.019-5.919.864-11.542-2.731-14.127-8.125-2.837-5.919-6.343-9.424-9.85-9.118-3.507.307-6.351 4.368-8.117 10.689-1.61 5.762-6.522 10.278-12.502 10.455-.547.016-1.075.114-1.581.298-4.744 1.727-6.173 10.558-4.245 21.919.882 5.2-1.65 10.242-6.022 13.193-.023.016-.046.032-.07.048-5.779 4.047-1.716 19.821 9.075 35.233 22.119 31.906 38.478 79.805 38.478 79.805s7.793-50.012 24.036-85.274c7.951-17.052 9.213-33.292 2.819-36.274z" fill="#8bc852"/></g></g><g><g><path d="m406.902 112.356c.028-.002.056-.005.084-.007 5.261-.369 9.976-3.469 11.812-8.414 4.011-10.803 9.664-17.737 14.636-16.86.529.093 1.036.273 1.518.532 5.267 2.837 11.78 1.381 16.054-2.803 4.69-4.591 9.184-6.687 12.374-5.199 3.191 1.488 4.474 6.277 3.972 12.821-.458 5.965 2.613 11.889 8.172 14.1.509.202.972.475 1.383.82 3.867 3.245 2.19 12.032-3.508 22.049-2.608 4.585-1.953 10.189 1.147 14.457.017.023.033.046.049.069 4.047 5.779-5.166 19.213-20.578 30.004-31.697 22.417-63.452 61.832-63.452 61.832s9.782-49.661 6.579-88.352c-1.639-18.742 2.729-34.435 9.758-35.049z" fill="#8bc852"/></g></g><g><g><path d="m447.939 101.165c-.026-.022-.052-.043-.078-.064-4.919-3.984-7.419-10.278-5.82-16.403 3.494-13.382 2.708-24.09-2.783-26.65-.585-.273-1.206-.445-1.858-.521-7.131-.837-12.531-6.751-13.853-13.808-1.45-7.742-4.426-12.895-8.587-13.629s-8.72 3.091-12.73 9.87c-3.656 6.179-10.754 9.889-17.74 8.237-.64-.151-1.282-.202-1.925-.146-6.036.528-10.436 10.321-11.73 24.091-.592 6.302-5.094 11.361-11.079 13.423-.032.011-.064.022-.095.034-7.957 2.896-8.146 22.444-.424 43.662 15.73 43.858 19.817 104.466 19.817 104.466s24.569-55.555 54.351-91.388c14.513-17.297 21.02-35.731 14.534-41.174z" fill="#aad963"/></g></g><g><g><path d="m386.335 192.429c-28.787-5.076-84.494 10.68-102.354 111.968-11.414 64.732-10.917 147.606 2.474 201.04l3.677 4.185v.006c42.684-5.951 81.84-22.899 114.526-47.889 17.664-40.401 32.216-87.43 39.562-129.087 17.86-101.288-29.099-135.147-57.885-140.223z" fill="#ffb629"/></g></g><g><g><path d="m403.46 337.493-75.462-13.306c.593-3.955 1.227-7.856 1.903-11.693 5.613-31.833 14.966-55.212 26.045-72.157l43.519 7.674c4.755.839 9.29-2.336 10.128-7.092.839-4.755-2.337-9.29-7.092-10.128l-34.295-6.047c13.074-13.737 27.348-20.729 40.254-23.53-7.661-4.833-15.39-7.597-22.125-8.784-28.787-5.076-84.494 10.68-102.354 111.968-11.414 64.732-10.917 147.606 2.474 201.04l3.677 4.184c13.516-1.885 26.683-4.859 39.399-8.855-6.069-30.633-8.521-68.545-7.501-106.609l23.364 4.12c4.755.838 9.29-2.337 10.128-7.092.839-4.755-2.337-9.29-7.092-10.128l-25.679-4.528c.651-11.829 1.637-23.563 2.954-34.99l74.718 13.175c4.755.838 9.29-2.337 10.128-7.092.839-4.757-2.336-9.291-7.091-10.13z" fill="#fe9d09"/></g></g><g><g><path d="m448.15 292.106-64.281-11.334c-4.755-.838-9.29 2.337-10.128 7.092-.838 4.755 2.337 9.29 7.092 10.128l66.461 11.719c.546-6.163.819-12.022.856-17.605z" fill="#fe9d09"/></g></g><g><g><path d="m346.413 442.846c-.839 4.755 2.337 9.29 7.092 10.128l50.884 8.972c.089-.068.177-.136.266-.204 2.33-5.33 4.609-10.769 6.821-16.302l-54.935-9.687c-4.755-.838-9.29 2.337-10.128 7.093z" fill="#fe9d09"/></g></g></g><g><g><g><path d="m105.098 112.356c-.028-.002-.056-.005-.084-.007-5.261-.369-9.976-3.469-11.812-8.414-4.011-10.803-9.664-17.737-14.636-16.86-.529.093-1.036.273-1.518.532-5.267 2.837-11.78 1.381-16.054-2.803-4.69-4.591-9.184-6.687-12.374-5.199-3.191 1.488-4.474 6.277-3.972 12.821.458 5.965-2.613 11.889-8.172 14.1-.509.202-.972.475-1.383.82-3.867 3.245-2.19 12.032 3.508 22.049 2.608 4.585 1.953 10.189-1.147 14.457-.017.023-.033.046-.049.069-4.047 5.779 5.166 19.213 20.578 30.004 31.697 22.417 63.452 61.832 63.452 61.832s-9.782-49.661-6.579-88.352c1.639-18.742-2.729-34.435-9.758-35.049z" fill="#8bc852"/></g></g><g><g><path d="m117.605 110.15c.026-.012.051-.024.077-.035 4.818-2.146 8.188-6.672 8.222-11.946.074-11.524 3.015-19.972 7.987-20.849.529-.093 1.066-.098 1.608-.019 5.919.864 11.542-2.731 14.127-8.125 2.837-5.919 6.343-9.424 9.85-9.118 3.507.307 6.351 4.368 8.117 10.689 1.61 5.762 6.522 10.278 12.502 10.455.547.016 1.075.114 1.581.298 4.744 1.727 6.173 10.558 4.245 21.919-.882 5.2 1.65 10.242 6.022 13.193.023.016.046.032.07.048 5.779 4.047 1.716 19.821-9.075 35.233-22.119 31.906-38.478 79.805-38.478 79.805s-7.793-50.012-24.036-85.274c-7.951-17.052-9.213-33.292-2.819-36.274z" fill="#8bc852"/></g></g><g><g><path d="m152.34 85.599c-.032-.012-.064-.023-.095-.034-5.985-2.062-10.487-7.121-11.079-13.423-1.294-13.77-5.694-23.563-11.73-24.091-.643-.056-1.285-.006-1.925.146-6.987 1.653-14.085-2.058-17.74-8.237-4.011-6.779-8.569-10.604-12.73-9.87s-7.137 5.887-8.587 13.629c-1.322 7.057-6.723 12.971-13.853 13.808-.653.077-1.274.249-1.858.521-5.491 2.561-6.276 13.268-2.783 26.65 1.599 6.125-.901 12.418-5.82 16.403-.026.021-.052.043-.078.064-6.486 5.443.021 23.877 14.535 41.174 29.782 35.833 54.351 91.388 54.351 91.388s4.086-60.608 19.817-104.466c7.722-21.218 7.532-40.766-.425-43.662z" fill="#aad963"/></g></g><g><g><path d="m221.868 509.622 3.677-4.185c13.392-53.434 13.888-136.308 2.474-201.04-17.86-101.288-73.567-117.044-102.354-111.968s-75.746 38.935-57.886 140.223c7.345 41.657 21.898 88.686 39.562 129.087 32.686 24.99 71.841 41.937 114.523 47.888z" fill="#ffb629"/></g></g><g><g><path d="m201.501 329.979c-.839-4.755-5.373-7.93-10.128-7.092l-75.462 13.306c-.796-3.919-1.534-7.802-2.211-11.639-5.613-31.833-4.821-57.001-.205-76.713l43.519-7.674c4.755-.838 7.93-5.373 7.092-10.128-.839-4.755-5.373-7.93-10.128-7.092l-34.295 6.047c7.587-17.38 18.609-28.833 29.778-35.879-8.852-1.921-17.061-1.875-23.795-.688-28.787 5.076-75.746 38.935-57.886 140.223 7.345 41.657 21.898 88.686 39.562 129.087 20.56 15.719 43.678 28.257 68.627 36.876-15.519-26.292-30.117-59.839-41.734-94.63l23.364-4.12c4.755-.838 7.93-5.373 7.092-10.128-.839-4.755-5.373-7.93-10.128-7.092l-25.679 4.528c-3.433-11.338-6.521-22.702-9.191-33.89l74.718-13.175c4.754-.837 7.929-5.371 7.09-10.127z" fill="#fe9d09"/></g></g><g><g><path d="m217.844 264.953-64.281 11.334c-4.755.838-7.93 5.373-7.092 10.128.838 4.755 5.373 7.93 10.128 7.092l66.461-11.719c-1.593-5.977-3.341-11.577-5.216-16.835z" fill="#fe9d09"/></g></g><g><g><path d="m235.826 421.583-54.935 9.686c-4.755.838-7.93 5.373-7.092 10.128.838 4.755 5.373 7.93 10.128 7.092l51.05-9.001c.375-5.887.659-11.863.849-17.905z" fill="#fe9d09"/></g></g></g><g><g><g><path d="m249.65 82.416c-.027-.007-.054-.014-.082-.021-5.117-1.277-9.222-5.149-10.171-10.337-2.074-11.336-6.438-19.145-11.486-19.145-.537 0-1.067.089-1.587.261-5.679 1.879-11.841-.685-15.324-5.549-3.821-5.336-7.883-8.18-11.284-7.269s-5.496 5.405-6.138 11.937c-.585 5.954-4.638 11.255-10.496 12.467-.536.111-1.039.299-1.505.568-4.372 2.524-4.246 11.469-.375 22.323 1.772 4.968.154 10.373-3.64 14.038-.02.02-.04.039-.06.059-4.989 4.989 1.752 19.818 15.055 33.121 27.323 27.581 51.751 71.911 51.751 71.911s-1.01-50.605 8.863-88.152c4.871-18.174 3.294-34.386-3.521-36.212z" fill="#aad963"/></g></g><g><g><path d="m262.35 82.416c.027-.007.054-.014.082-.021 5.117-1.277 9.222-5.149 10.171-10.337 2.074-11.336 6.438-19.145 11.486-19.145.537 0 1.067.089 1.587.261 5.679 1.879 11.841-.685 15.324-5.549 3.821-5.336 7.883-8.18 11.284-7.269s5.496 5.405 6.138 11.937c.585 5.954 4.638 11.255 10.496 12.467.536.111 1.039.299 1.505.568 4.372 2.524 4.246 11.469.375 22.323-1.772 4.968-.154 10.373 3.64 14.038.02.02.04.039.06.059 4.989 4.989-1.752 19.818-15.055 33.121-27.323 27.581-51.751 71.911-51.751 71.911s1.01-50.605-8.863-88.152c-4.871-18.174-3.294-34.386 3.521-36.212z" fill="#aad963"/></g></g><g><g><path d="m300.821 64.269c-.029-.017-.059-.034-.088-.05-5.536-3.07-9.091-8.833-8.58-15.143 1.117-13.785-1.516-24.194-7.368-25.762-.623-.167-1.265-.229-1.921-.191-7.168.414-13.513-4.472-16.04-11.192-2.774-7.373-6.599-11.931-10.824-11.931s-8.05 4.558-10.823 11.931c-2.527 6.72-8.873 11.607-16.04 11.192-.656-.038-1.298.024-1.921.191-5.852 1.568-8.485 11.977-7.368 25.762.511 6.309-3.044 12.073-8.58 15.143-.029.016-.059.033-.088.05-7.333 4.234-4.125 23.518 7.165 43.073 23.106 40.46 37.655 99.437 37.655 99.437s14.549-58.978 37.656-99.438c11.29-19.554 14.498-38.838 7.165-43.072z" fill="#c8ea73"/></g></g><g><g><path d="m256 164.844c-29.231 0-81.356 25.19-81.356 128.041 0 74.946 19.344 170.433 47.224 216.737 11.156 1.555 22.547 2.378 34.132 2.378s22.976-.823 34.132-2.378c27.88-46.304 47.224-141.791 47.224-216.737 0-102.851-52.125-128.041-81.356-128.041z" fill="#ffe47d"/></g></g><g><g><path d="m298.055 304.73h-76.626c-.103-3.998-.156-7.95-.156-11.846 0-32.324 5.151-56.972 13.119-75.583h44.191c4.829 0 8.743-3.914 8.743-8.743s-3.914-8.743-8.743-8.743h-34.824c10.49-15.799 23.333-25.163 35.556-30.163-8.384-3.429-16.476-4.809-23.314-4.809-29.231 0-81.356 25.19-81.356 128.041 0 74.946 19.344 170.433 47.224 216.737 11.155 1.556 22.546 2.379 34.131 2.379 4.611 0 9.189-.139 13.738-.39-18.868-30.075-33.967-82.72-42.035-136.936h23.724c4.829 0 8.743-3.914 8.743-8.743s-3.914-8.743-8.743-8.743h-26.075c-1.412-11.762-2.479-23.49-3.166-34.972h75.87c4.829 0 8.743-3.914 8.743-8.743s-3.915-8.743-8.744-8.743z" fill="#ffcd53"/></g></g><g><g><path d="m334.185 252.273h-65.273c-4.829 0-8.743 3.914-8.743 8.743 0 4.829 3.914 8.743 8.743 8.743h67.486c-.531-6.165-1.28-11.982-2.213-17.486z" fill="#ffcd53"/></g></g><g><g><path d="m324.695 409.646h-55.782c-4.829 0-8.743 3.914-8.743 8.743 0 4.829 3.914 8.743 8.743 8.743h51.838c1.39-5.733 2.708-11.569 3.944-17.486z" fill="#ffcd53"/></g></g></g></g></svg>