<svg id="Capa_1" enable-background="new 0 0 512 512" height="512" viewBox="0 0 512 512" width="512" xmlns="http://www.w3.org/2000/svg"><g><g><g><path d="m469.879 386.556c19.811-35.365 31.121-76.137 31.121-119.556 0-135.31-109.69-245-245-245s-245 109.69-245 245c0 43.419 11.31 84.191 31.121 119.556z" fill="#aad963"/></g></g><g><g><path d="m42.11 386.556h427.78c-3.98-100.388-13.98-149.317-31.48-203.927-15.16-47.31-20.28-76.03-16.56-95.94 2.06-11.049 6.85-19.389 14.15-26.689v-30h-360v30c7.3 7.3 12.09 15.64 14.15 26.69 3.72 19.91-1.4 48.63-16.56 95.94-17.5 54.609-27.5 103.539-31.48 203.926z" fill="#f2f7f4"/></g></g><g><g><path d="m42.11 386.556h133.615c-22.535-31.684-31.901-69.313-19.725-109.647 33.979-112.559 23.468-182.335-10-216.909v-30h-70v30c7.3 7.3 12.09 15.64 14.15 26.69 3.72 19.91-1.4 48.63-16.56 95.94-17.5 54.609-27.5 103.539-31.48 203.926z" fill="#e0e7e3"/></g></g><g><g><path d="m456.682 407.538s-57.595-58.155-200.682-58.155-200.682 58.155-200.682 58.155c44.311 63.163 117.667 104.462 200.682 104.462s156.371-41.299 200.682-104.462z" fill="#b1e4f9"/></g></g><g><g><path d="m160.391 359.327c-73.768 16.613-105.073 48.21-105.073 48.21 44.311 63.164 117.667 104.463 200.682 104.463 43.361 0 84.085-11.271 119.415-31.036-88.468-.001-184.654-50.044-215.024-121.637z" fill="#8ac8f0"/></g></g><g><g><path d="m256 363.062c112.062 0 175.31 29.229 200.682 44.476 4.737-6.753 9.146-13.752 13.196-20.981-.524-.448-62.923-53.494-213.878-53.494-150.956 0-213.354 53.046-213.879 53.494 4.05 7.229 8.459 14.229 13.196 20.981 25.373-15.247 88.62-44.476 200.683-44.476z" fill="#8ac8f0"/></g></g><g><g><path d="m55.318 407.538c17.511-10.523 53.068-27.704 110.258-37.342-4.78-8.966-8.523-18.316-11.066-27.991-78.083 15.193-112.001 44.022-112.387 44.352 4.048 7.228 8.457 14.228 13.195 20.981z" fill="#63ace8"/></g></g><g><g><circle cx="256" cy="276.909" fill="#8ac8f0" r="130"/></g></g><g><g><path d="m256 146.909c-71.683 0-130 58.317-130 130s58.317 130 130 130c-8.284 0-15-6.716-15-15s6.716-15 15-15v-200c-8.284 0-15-6.716-15-15s6.716-15 15-15z" fill="#63ace8"/></g></g><g><g><path d="m334.863 338.398c13.243-16.961 21.137-38.302 21.137-61.489 0-55.229-44.771-100-100-100s-100 44.771-100 100c0 23.187 7.894 44.528 21.137 61.489z" fill="#b1e4f9"/></g></g><g><g><path d="m446 60h-380c-5.523 0-10-4.477-10-10v-40c0-5.523 4.477-10 10-10h380c5.523 0 10 4.477 10 10v40c0 5.523-4.477 10-10 10z" fill="#e0e7e3"/></g></g><g><g><path d="m136 50v-40c0-5.523 4.477-10 10-10h-80c-5.523 0-10 4.477-10 10v40c0 5.523 4.477 10 10 10h80c-5.523 0-10-4.477-10-10z" fill="#d1dad5"/></g></g><g><g><path d="m458.5 37.5h-405c-4.142 0-7.5-3.358-7.5-7.5 0-4.142 3.358-7.5 7.5-7.5h405c4.142 0 7.5 3.358 7.5 7.5 0 4.142-3.358 7.5-7.5 7.5z" fill="#f2f7f4"/></g></g><g><g><path d="m116 30c0-4.142 3.358-7.5 7.5-7.5h-70c-4.142 0-7.5 3.358-7.5 7.5s3.358 7.5 7.5 7.5h70c-4.142 0-7.5-3.358-7.5-7.5z" fill="#e0e7e3"/></g></g><g><g><g><path d="m232.486 190.84c-11.342-11.342-24.86-17.529-39.414-20.552-8.614-1.789-14.857-9.268-14.857-18.067v-.12c0-3.134-2.541-5.675-5.675-5.675-3.134 0-5.675 2.541-5.675 5.675v23.921h.01c1.094 21.398 6.852 41.662 22.809 57.619 16.225 16.225 37.661 24.044 58.92 23.487 4.021-.105 7.263-3.347 7.368-7.368.557-21.259-7.262-42.695-23.486-58.92z" fill="#aad963"/></g></g><g><g><path d="m248.604 257.129c4.021-.105 7.263-3.347 7.368-7.368.557-21.259-7.262-42.695-23.487-58.92-11.342-11.342-24.86-17.529-39.414-20.552 20.262 27.85 30.278 50.235 32.278 84.046 7.598 2.061 15.437 2.999 23.255 2.794z" fill="#8bc852"/></g></g><g><g><path d="m279.514 190.84c11.342-11.342 24.86-17.529 39.414-20.552 8.615-1.789 14.857-9.268 14.857-18.067v-.12c0-3.134 2.541-5.675 5.675-5.675 3.134 0 5.675 2.541 5.675 5.675v23.921h-.01c-1.094 21.398-6.852 41.662-22.809 57.619-16.225 16.225-37.661 24.044-58.92 23.487-4.021-.105-7.263-3.347-7.368-7.368-.557-21.259 7.262-42.695 23.486-58.92z" fill="#aad963"/></g></g><g><g><path d="m263.396 257.129c-4.021-.105-7.263-3.347-7.368-7.368-.557-21.259 7.262-42.695 23.487-58.92 11.342-11.342 24.86-17.529 39.414-20.552-20.262 27.85-30.278 50.235-32.278 84.046-7.598 2.061-15.437 2.999-23.255 2.794z" fill="#8bc852"/></g></g><g><g><path d="m256 322.971c-4.142 0-7.5-3.358-7.5-7.5v-105c0-4.142 3.358-7.5 7.5-7.5 4.142 0 7.5 3.358 7.5 7.5v105c0 4.142-3.358 7.5-7.5 7.5z" fill="#69b76b"/></g></g></g><g><g><ellipse cx="256" cy="338.398" fill="#fcaa70" rx="78.863" ry="38.511"/></g></g><g><g><path d="m248.5 300.176c-28.968 2.149-54.503 16.63-71.363 38.222 18.301 23.439 46.821 38.511 78.863 38.511-20.745-17.921-28.277-53.058-7.5-76.733z" fill="#fa9a5e"/></g></g><g><g><path d="m291 118.455h-70c-8.284 0-15-6.716-15-15 0-8.284 6.716-15 15-15h70c8.284 0 15 6.716 15 15 0 8.284-6.716 15-15 15z" fill="#e0e7e3"/></g></g><g><g><path d="m236 103.455c0-8.284 6.716-15 15-15h-30c-8.284 0-15 6.716-15 15s6.716 15 15 15h30c-8.284 0-15-6.716-15-15z" fill="#d1dad5"/></g></g></g></svg>