<svg id="Capa_1" enable-background="new 0 0 512 512" height="512" viewBox="0 0 512 512" width="512" xmlns="http://www.w3.org/2000/svg"><g><g><g><path d="m288.192 504.02 17.007 3.036c4.384-.894 8.722-1.912 13.017-3.036l20.04-12.462h15.827c12.625-5.522 24.693-12.076 36.101-19.558v-34.879h42.105c42.536-44.069 68.711-104.035 68.711-170.121 0-135.31-109.69-245-245-245s-245 109.69-245 245c0 66.086 26.175 126.052 68.712 170.121h42.105v34.879c11.408 7.482 23.476 14.036 36.101 19.558h15.827l20.04 12.462c4.295 1.124 8.633 2.143 13.017 3.036l17.007-3.036 7.561 6.752c8.101.809 16.316 1.228 24.63 1.228s16.529-.419 24.63-1.228z" fill="#8ac8f0"/></g></g><g><g><circle cx="256" cy="247" fill="#b1e4f9" r="200"/></g></g><g><g><path d="m218.5 192h75c5.523 0 10 4.477 10 10v50h-95v-50c0-5.523 4.477-10 10-10z" fill="#ffb629"/></g></g><g><g><path d="m248.5 192h-30c-5.523 0-10 4.477-10 10v50h30v-50c0-5.523 4.477-10 10-10z" fill="#fe9d09"/></g></g><g><g><path d="m171 242h85v65h-95v-55c0-5.523 4.477-10 10-10z" fill="#ffe47d"/></g></g><g><g><path d="m201 242h-30c-5.523 0-10 4.477-10 10v55h30v-55c0-5.523 4.477-10 10-10z" fill="#ffcd53"/></g></g><g><g><path d="m256 242h85c5.523 0 10 4.477 10 10v55h-95z" fill="#ffe47d"/></g></g><g><g><path d="m296 242h-40v65h30v-55c0-5.523 4.477-10 10-10z" fill="#ffcd53"/></g></g><g><g><path d="m56 305.585 23.712 131.536c12.669 13.125 26.79 24.834 42.105 34.879h268.366c15.314-10.044 29.436-21.754 42.105-34.879l23.712-131.536z" fill="#d0794e"/></g></g><g><g><path d="m148.745 347c0-13.807 11.193-25 25-25v-16.415h-117.745l23.712 131.536c12.669 13.125 26.79 24.834 42.105 34.879h57.928v-50l-6-50c-13.807 0-25-11.193-25-25z" fill="#bd5a40"/></g></g><g><g><path d="m435.014 422 9.013-50h-376.054l9.013 50z" fill="#bd5a40"/></g></g><g><g><path d="m173.745 372h-105.772l9.014 50h96.758c-13.807 0-25-11.193-25-25s11.193-25 25-25z" fill="#aa3c31"/></g></g><g><g><path d="m91 87h30v220h-30z" fill="#d0794e"/></g></g><g><g><path d="m391 87h30v220h-30z" fill="#d0794e"/></g></g><g><g><path d="m106 252c-8.284 0-15-6.716-15-15v70h30v-70c0 8.284-6.716 15-15 15z" fill="#bd5a40"/></g></g><g><g><path d="m406 252c-8.284 0-15-6.716-15-15v70h30v-70c0 8.284-6.716 15-15 15z" fill="#bd5a40"/></g></g><g><g><path d="m36 307c0-8.284 6.716-15 15-15h410c8.284 0 15 6.716 15 15 0 8.284-6.716 15-15 15h-410c-8.284 0-15-6.716-15-15z" fill="#aa3c31"/></g></g><g><g><path d="m106 307c0-8.284 6.716-15 15-15h-70c-8.284 0-15 6.716-15 15s6.716 15 15 15h70c-8.284 0-15-6.716-15-15z" fill="#962e29"/></g></g><g><g><path d="m136 127.369c-16.569 0-30-13.431-30-30l-20-50h100l-20 50c0 16.569-13.431 30-30 30z" fill="#d1dad5"/></g></g><g><g><path d="m76 127.369c-16.569 0-30-13.431-30-30v-30l60-20v50c0 16.569-13.431 30-30 30z" fill="#e0e7e3"/></g></g><g><g><path d="m256 127.369c-16.569 0-30-13.431-30-30l-20-50h100l-20 50c0 16.569-13.431 30-30 30z" fill="#d1dad5"/></g></g><g><g><path d="m196 127.369c-16.569 0-30-13.431-30-30v-50h60v50c0 16.569-13.431 30-30 30z" fill="#e0e7e3"/></g></g><g><g><path d="m376 127.369c-16.569 0-30-13.431-30-30l-20-50h100l-20 50c0 16.569-13.431 30-30 30z" fill="#d1dad5"/></g></g><g><g><path d="m316 127.369c-16.569 0-30-13.431-30-30v-50h60v50c0 16.569-13.431 30-30 30z" fill="#e0e7e3"/></g></g><g><g><path d="m436 127.369c-16.569 0-30-13.431-30-30v-50l60 20v30c0 16.569-13.431 30-30 30z" fill="#e0e7e3"/></g></g><g><g><path d="m466 67.369h-420l37-60h346z" fill="#f2f7f4"/></g></g><g><g><path d="m166 67.369h-60l26.429-60h49.428z" fill="#e0e7e3"/></g></g><g><g><path d="m286 67.369h-60l5.286-60h49.428z" fill="#e0e7e3"/></g></g><g><g><path d="m406 67.369h-60l-15.857-60h49.428z" fill="#e0e7e3"/></g></g><g><g><path d="m438.5 15h-365c-4.142 0-7.5-3.358-7.5-7.5 0-4.142 3.358-7.5 7.5-7.5h365c4.142 0 7.5 3.358 7.5 7.5 0 4.142-3.358 7.5-7.5 7.5z" fill="#d1dad5"/></g></g><g><g><path d="m305.199 507.056-100.965-100.964-14.142 14.142 90.538 90.538c8.319-.83 16.516-2.074 24.569-3.716z" fill="#962e29"/></g></g><g><g><path d="m231.37 510.772 90.538-90.538-14.142-14.142-100.965 100.964c8.053 1.642 16.25 2.886 24.569 3.716z" fill="#962e29"/></g></g><g><g><path d="m256 372c-55.228 0-100 44.771-100 100 0 6.694.663 13.232 1.917 19.558 11.522 5.04 23.502 9.225 35.867 12.462-4.962-9.603-7.784-20.485-7.784-32.02 0-38.598 31.402-70 70-70s70 31.402 70 70c0 11.535-2.822 22.417-7.785 32.02 12.366-3.237 24.345-7.422 35.867-12.462 1.255-6.326 1.918-12.864 1.918-19.558 0-55.229-44.771-100-100-100z" fill="#aa3c31"/></g></g><g><g><circle cx="256" cy="472" fill="#aa3c31" r="25"/></g></g><g><g><path d="m256 472c0-9.252 5.03-17.324 12.5-21.647-3.678-2.128-7.945-3.353-12.5-3.353-13.807 0-25 11.193-25 25s11.193 25 25 25c4.555 0 8.822-1.224 12.5-3.353-7.47-4.323-12.5-12.395-12.5-21.647z" fill="#962e29"/></g></g><g><g><path d="m256 402c-8.284 0-15-6.716-15-15s6.716-15 15-15c-55.228 0-100 44.771-100 100 0 6.694.663 13.232 1.917 19.558 11.522 5.04 23.502 9.225 35.867 12.462-4.962-9.603-7.784-20.485-7.784-32.02 0-38.598 31.402-70 70-70z" fill="#962e29"/></g></g></g></svg>