<svg id="Capa_1" enable-background="new 0 0 512 512" height="512" viewBox="0 0 512 512" width="512" xmlns="http://www.w3.org/2000/svg"><g><g><g><path d="m256 22c-45.23 0-87.59 12.25-123.95 33.63-21.85 12.83-41.53 28.96-58.36 47.7-38.98 43.38-62.69 100.75-62.69 163.67 0 122.61 90.07 224.19 207.66 242.17l37.34-27.17 78.48 17.16c96.82-32.72 166.52-124.3 166.52-232.16 0-135.31-109.69-245-245-245z" fill="#aad963"/></g></g><g><g><circle cx="256" cy="282" fill="#c8ea73" r="200"/></g></g><g><g><g><path d="m334.48 499.16c-24.64 8.33-51.03 12.84-78.48 12.84-12.7 0-25.17-.97-37.34-2.83-86.05-88.06-133.6-202.41-144.97-405.84-1.29-23.1-2.12-47.35-2.48-72.84-.24-16.76 13.28-30.49 30.04-30.49 8.17 0 15.6 3.27 21.03 8.58 5.42 5.31 8.84 12.66 9 20.83.18 8.91.43 17.65.77 26.22 9.08 231.39 77.05 343.8 202.43 443.53z" fill="#bd5a40"/></g></g></g><g><g><path d="m248.632 459.639c-42.59-50.848-70.622-103.8-88.442-145.992-4.906-11.616 10.683-20.988 18.484-11.08.069.088.138.176.206.265-27.137-65.143-42.798-144.431-46.83-247.202-.34-8.57-.59-17.31-.77-26.22-.16-8.17-3.58-15.52-9-20.83-5.43-5.31-12.86-8.58-21.03-8.58-16.76 0-30.28 13.73-30.04 30.49.36 25.49 1.19 49.74 2.48 72.84 5.035 90.084 17.171 162.689 36.596 223.29-.001-.129-.01-.256-.01-.386 0-.127.001-.255.002-.382.142-14.53 20.256-18.344 25.853-4.935 18.591 44.54 48.165 100.919 93.567 155.052 2.473 2.948 6.016 4.468 9.584 4.468 3.019 0 6.057-1.088 8.478-3.32 4.944-4.557 5.188-12.324.872-17.478z" fill="#aa3c31"/></g></g><g><g><path d="m452.319 181.979-105.191-67.745-207.66-45.276-99.509 50.932 3.927 44.888c1.01 11.549 11.601 19.856 23.046 18.009 20.347-3.284 41.198-5.89 62.467-7.75 151.788-13.28 248.352 8.346 302.477 28.679 9.702 3.645 18.767-.448 23.579-7.461z" fill="#e0e7e3"/></g></g><g><g><path d="m122.409 77.689-82.45 42.2 3.927 44.888c1.01 11.549 11.601 19.856 23.046 18.009 20.347-3.284 41.198-5.89 62.467-7.75 4.706-.412 9.357-.79 13.957-1.135-24.864-24.899-37.035-64.144-20.947-96.212z" fill="#d1dad5"/></g></g><g><g><path d="m68.955 39.195c-5.472.479-10.911 1.016-16.318 1.606-10.797 1.18-18.652 10.807-17.705 21.626l5.027 57.462c218.497-47.73 378.882 50.991 415.496 76.365 4.444-6.478 5.262-15.446-.437-23.136-47.312-63.847-155.929-154.057-386.063-133.923z" fill="#f2f7f4"/></g></g><g><g><path d="m39.959 119.889c25.915-5.661 51.002-9.241 75.173-11.148.12-27.962 15.692-55.563 55.069-71.292-30.814-1.86-64.472-1.472-101.246 1.746-5.472.479-10.911 1.016-16.318 1.606-10.797 1.18-18.652 10.807-17.705 21.626z" fill="#e0e7e3"/></g></g></g></svg>