<svg id="Capa_1" enable-background="new 0 0 512 512" height="512" viewBox="0 0 512 512" width="512" xmlns="http://www.w3.org/2000/svg"><g><g><g><path d="m256 22c-135.31 0-245 109.69-245 245 0 128.575 99.046 234.006 225 244.184l19.086-8.013 20.914 8.013c125.954-10.178 225-115.609 225-244.184 0-135.31-109.69-245-245-245z" fill="#8ac8f0"/></g></g><g><g><circle cx="256" cy="292" fill="#b1e4f9" r="200"/></g></g><g><g><path d="m236 511.184c6.597.533 13.265.816 20 .816s13.403-.283 20-.816v-118.315h-40z" fill="#bd5a40"/></g></g><g><g><path d="m236 392.869v95.791c0-11.046 8.954-20 20-20s20 8.954 20 20v-95.791z" fill="#aa3c31"/></g></g><g><g><path d="m286 408.66h-60c-11.046 0-20-8.954-20-20v-20h100v20c0 11.045-8.954 20-20 20z" fill="#d0794e"/></g></g><g><g><path d="m256 388.66v-20h-50v20c0 11.046 8.954 20 20 20h50c-11.046 0-20-8.955-20-20z" fill="#bd5a40"/></g></g><g><g><path d="m386 338.66h-260l-20-150.703 150-149.978 150 149.978z" fill="#d1dad5"/></g></g><g><g><path d="m406 187.958-150-149.979-150 149.979 20 150.702h20l-16.037-120.842 126.037-117.906 78.211 73.166-13.501 59.595v105.987h20l16.336-144.221 42.782 40.023z" fill="#c0c9c3"/></g></g><g><g><path d="m189.255 338.66h131.455l24.01-211.974-88.72-88.707-90.548 90.535z" fill="#f2f7f4"/></g></g><g><g><path d="m256 99.912 82.962 77.61 5.758-50.836-88.72-88.707-90.548 90.535 23.803 210.146h20l-19.973-176.334z" fill="#e0e7e3"/></g></g><g><g><path d="m447.398 195.008-176.298-188.456c-8.172-8.735-22.029-8.735-30.201 0l-176.297 188.456c-7.618 8.144-7.407 20.862.479 28.748 7.886 7.886 20.604 8.097 28.747.479l162.172-151.71 162.171 151.709c8.144 7.618 20.862 7.407 28.747-.479 7.886-7.885 8.098-20.604.48-28.747z" fill="#fe6d68"/></g></g><g><g><path d="m406 358.66h-300v-25c0-8.284 6.716-15 15-15h270c8.284 0 15 6.716 15 15z" fill="#fe5653"/></g></g><g><g><path d="m182.787 318.66h-61.787c-8.284 0-15 6.716-15 15v25h61.787v-25c0-8.285 6.716-15 15-15z" fill="#fe3f3d"/></g></g><g><g><path d="m411 378.66h-310c-8.284 0-15-6.716-15-15 0-8.284 6.716-15 15-15h310c8.284 0 15 6.716 15 15 0 8.284-6.716 15-15 15z" fill="#f2f7f4"/></g></g><g><g><path d="m149.83 363.66c0-8.284 6.716-15 15-15h-63.83c-8.284 0-15 6.716-15 15s6.716 15 15 15h63.83c-8.284 0-15-6.716-15-15z" fill="#e0e7e3"/></g></g><g><g><circle cx="255.086" cy="237" fill="#fe6d68" r="50"/></g></g><g><g><path d="m247.586 194.5c0-4.142 3.358-7.5 7.5-7.5-27.614 0-50 22.386-50 50s22.386 50 50 50v-85c-4.142 0-7.5-3.358-7.5-7.5z" fill="#fe5653"/></g></g><g><g><circle cx="255.086" cy="237" fill="#463c39" r="35"/></g></g><g><g><circle cx="255.086" cy="139.979" fill="#463c39" r="20"/></g></g><g><g><path d="m298.5 287h-85c-4.142 0-7.5-3.358-7.5-7.5 0-4.142 3.358-7.5 7.5-7.5h85c4.142 0 7.5 3.358 7.5 7.5 0 4.142-3.358 7.5-7.5 7.5z" fill="#fe6d68"/></g></g><g><g><path d="m248.5 279.5c0-4.142 3.358-7.5 7.5-7.5h-42.5c-4.142 0-7.5 3.358-7.5 7.5s3.358 7.5 7.5 7.5h42.5c-4.142 0-7.5-3.358-7.5-7.5z" fill="#fe5653"/></g></g><g><g><path d="m219.737 36.263c0-2.773.322-5.469.911-8.063l-156.046 166.808c-7.618 8.144-7.407 20.862.479 28.748 7.886 7.885 20.604 8.097 28.747.479l162.172-151.71c-20.027 0-36.263-16.235-36.263-36.262z" fill="#fe5653"/></g></g></g></svg>