<svg id="Capa_1" enable-background="new 0 0 512 512" height="512" viewBox="0 0 512 512" width="512" xmlns="http://www.w3.org/2000/svg"><g><g><g><path d="m121.81 471.996h268.38c66.73-43.771 110.81-119.23 110.81-204.996 0-135.31-109.69-245-245-245s-245 109.69-245 245c0 85.766 44.08 161.225 110.81 204.996z" fill="#ffcd53"/></g></g><g><g><circle cx="256" cy="247" fill="#ffe47d" r="200"/></g></g><g><g><path d="m256 512c49.544 0 95.643-14.72 134.19-40.004-17.214-57.826-70.773-99.996-134.19-99.996s-116.976 42.17-134.19 99.996c38.547 25.284 84.646 40.004 134.19 40.004z" fill="#d0794e"/></g></g><g><g><path d="m207.833 380.51c-41.25 15.118-73.404 49.094-86.023 91.486 23.205 15.221 49.15 26.606 76.933 33.264-1.309-23.338.052-48.998 9.091-66.206v-58.544z" fill="#bd5a40"/></g></g><g><g><circle cx="189.267" cy="386.622" fill="#962e29" r="55.611"/></g></g><g><g><path d="m322.733 331.011c-10.201 0-19.752 2.759-27.971 7.554-10.928-7.815-24.302-12.429-38.761-12.429-36.855 0-66.733 29.877-66.733 66.733s29.877 66.733 66.733 66.733c18.932 0 36.009-7.897 48.155-20.561 5.811 2.06 12.061 3.191 18.578 3.191 30.713 0 55.611-24.898 55.611-55.611s-24.899-55.61-55.612-55.61z" fill="#aa3c31"/></g></g><g><g><path d="m244.404 214.064s-1.021-80.277-28.085-121.585-78.638-92.479-94.468-92.479-3.574 112.447 10.723 153.298c14.298 40.851 55.149 73.532 56.681 115.915z" fill="#bd5a40"/></g></g><g><g><path d="m150.225 187.395c17.131 26.639 37.946 51.795 39.031 81.818l55.149-55.149s-.609-47.594-13.242-88.347c-35.219 7.495-64.732 30.587-80.938 61.678z" fill="#aa3c31"/></g></g><g><g><path d="m267.596 214.064s1.021-80.277 28.085-121.585c27.064-41.309 78.638-92.479 94.468-92.479s3.574 112.447-10.723 153.298-55.149 73.532-56.681 115.915z" fill="#bd5a40"/></g></g><g><g><path d="m361.782 187.383c-16.195-31.08-45.69-54.188-80.94-61.678-12.638 40.755-13.246 88.359-13.246 88.359l55.149 55.149c1.085-30.028 21.905-55.186 39.037-81.83z" fill="#aa3c31"/></g></g><g><g><path d="m124.468 27.34c-.285-11.885-3.638-22.638 17.809-2.213s40.567 63.319 37.135 102.638c-3.433 39.319 9.333 98.553 9.333 98.553s-22.064-44.426-36.021-65.532-27.642-107.796-28.256-133.446z" fill="#aa3c31"/></g></g><g><g><path d="m387.532 27.34c.285-11.885 3.638-22.638-17.809-2.213-21.447 20.426-40.567 63.319-37.135 102.638s-9.333 98.553-9.333 98.553 22.064-44.426 36.021-65.532c13.958-21.105 27.642-107.796 28.256-133.446z" fill="#aa3c31"/></g></g><g><g><path d="m333.005 151.37c-1.308 35.779-9.75 74.949-9.75 74.949s15.725-31.661 29.022-54.226c-5.588-7.645-12.06-14.605-19.272-20.723z" fill="#962e29"/></g></g><g><g><path d="m159.729 172.104c13.296 22.563 29.016 54.215 29.016 54.215s-8.438-39.151-9.749-74.923c-7.207 6.114-13.68 13.067-19.267 20.708z" fill="#962e29"/></g></g><g><g><path d="m345.186 243.986c.024-1.289.02-2.585-.011-3.887-1.136-46.873-38.904-85.179-85.758-86.929-50.822-1.898-92.619 38.739-92.619 89.138 0 .487.004.974.012 1.459.284 17.673-5.676 34.766-16.176 48.985-7.647 10.355-11.951 23.327-11.319 37.328 1.37 30.359 26.273 54.8 56.652 55.647 5.675.158 11.172-.498 16.386-1.856 5.444-1.418 11.193-.536 16.152 2.12 8.193 4.387 17.553 6.877 27.496 6.877s19.303-2.49 27.496-6.877c4.959-2.655 10.708-3.538 16.152-2.12 5.214 1.358 10.711 2.014 16.386 1.856 30.379-.847 55.282-25.288 56.652-55.647.632-14.001-3.673-26.974-11.319-37.328-10.457-14.158-16.507-31.169-16.182-48.766z" fill="#d0794e"/></g></g><g><g><path d="m238.224 154.882c-40.747 8.241-71.426 44.249-71.426 87.426 0 .487.004.974.012 1.459.284 17.673-5.677 34.766-16.177 48.985-7.647 10.355-11.951 23.327-11.319 37.328 1.37 30.36 26.273 54.8 56.652 55.647 5.675.158 11.172-.498 16.386-1.856 5.444-1.418 11.193-.536 16.152 2.12-60.117-65.092-34.057-190.735 9.72-231.109z" fill="#bd5a40"/></g></g><g><g><g><g><path d="m326.46 308.974c-2.205 0-4.39-.968-5.871-2.826-2.581-3.24-2.047-7.959 1.193-10.54 32.217-25.667 63.707-30.462 102.103-15.547 3.861 1.5 5.775 5.846 4.275 9.707s-5.847 5.775-9.707 4.275c-33.729-13.103-59.026-9.249-87.325 13.297-1.38 1.099-3.03 1.634-4.668 1.634z" fill="#f2f7f4"/></g></g></g><g><g><g><path d="m391.671 360.547c-2.409 0-4.774-1.158-6.223-3.305-13.424-19.887-28.653-27.343-52.606-25.765-4.136.304-7.705-2.854-7.979-6.987s2.854-7.706 6.987-7.979c29.271-1.939 49.625 8.035 66.03 32.339 2.318 3.434 1.413 8.095-2.02 10.412-1.286.869-2.746 1.285-4.189 1.285z" fill="#f2f7f4"/></g></g></g><g><g><g><path d="m185.54 308.974c-1.639 0-3.287-.534-4.668-1.634-28.299-22.544-53.597-26.398-87.325-13.297-3.86 1.5-8.207-.414-9.707-4.275s.414-8.207 4.275-9.707c38.397-14.914 69.886-10.12 102.103 15.547 3.24 2.581 3.774 7.3 1.193 10.54-1.481 1.858-3.666 2.826-5.871 2.826z" fill="#f2f7f4"/></g></g></g><g><g><g><path d="m120.329 360.547c-1.443 0-2.902-.416-4.189-1.285-3.433-2.317-4.338-6.979-2.02-10.412 16.406-24.304 36.765-34.286 66.03-32.339 4.133.273 7.262 3.847 6.987 7.979s-3.838 7.269-7.979 6.987c-23.944-1.592-39.183 5.877-52.606 25.765-1.448 2.147-3.815 3.305-6.223 3.305z" fill="#f2f7f4"/></g></g></g></g><g><g><g><path d="m231.722 352.375c-4.143 0-7.5-3.357-7.5-7.5s3.357-7.5 7.5-7.5c9.252 0 16.778-7.526 16.778-16.778 0-4.143 3.357-7.5 7.5-7.5s7.5 3.357 7.5 7.5c0 17.522-14.256 31.778-31.778 31.778z" fill="#aa3c31"/></g></g><g><g><path d="m280.278 352.375c-17.522 0-31.778-14.256-31.778-31.778 0-4.143 3.357-7.5 7.5-7.5s7.5 3.357 7.5 7.5c0 9.252 7.526 16.778 16.778 16.778 4.143 0 7.5 3.357 7.5 7.5s-3.357 7.5-7.5 7.5z" fill="#aa3c31"/></g></g></g><g><g><path d="m269.337 297.288c-2.551-1.356-7.944-2.034-13.337-2.034s-10.786.678-13.337 2.034c-13.337 7.089 0 23.309 13.337 23.309s26.673-16.22 13.337-23.309z" fill="#bd5a40"/></g></g><g><g><g><path d="m330.609 263.014c.043-3.495-1.371-7.004-4.242-9.539-4.675-4.128-11.84-4.128-16.515 0-2.871 2.535-4.284 6.044-4.242 9.539.055 4.538 5.629 6.716 8.838 3.507 2.022-2.022 5.3-2.022 7.322 0 3.21 3.209 8.784 1.031 8.839-3.507z" fill="#463c39"/></g></g><g><g><path d="m181.391 263.014c-.043-3.495 1.371-7.004 4.242-9.539 4.675-4.128 11.84-4.128 16.515 0 2.871 2.535 4.284 6.044 4.242 9.539-.055 4.538-5.629 6.716-8.838 3.507-2.022-2.022-5.3-2.022-7.322 0-3.21 3.209-8.784 1.031-8.839-3.507z" fill="#463c39"/></g></g></g></g></svg>