<svg id="Capa_1" enable-background="new 0 0 512 512" height="512" viewBox="0 0 512 512" width="512" xmlns="http://www.w3.org/2000/svg"><g><g><g><path d="m43.099 145.695 212.901 227.263 212.901-227.263c-42.19-73.887-121.726-123.695-212.901-123.695s-170.711 49.808-212.901 123.695z" fill="#3b6945"/></g></g><g><g><path d="m236.984 108.97h-64.458c-15.163 0-27.5-12.337-27.5-27.5s12.337-27.5 27.5-27.5c4.143 0 7.5 3.357 7.5 7.5s-3.357 7.5-7.5 7.5c-6.893 0-12.5 5.607-12.5 12.5s5.607 12.5 12.5 12.5h64.458c4.143 0 7.5 3.357 7.5 7.5s-3.357 7.5-7.5 7.5z" fill="#8bc852"/></g></g><g><path d="m361.74 38.398h-78.104c-4.143 0-7.5 3.357-7.5 7.5s3.357 7.5 7.5 7.5h48.124c-4.719 6.272-7.52 14.064-7.52 22.5 0 20.678 16.822 37.5 37.5 37.5s37.5-16.822 37.5-37.5c-.001-20.677-16.823-37.498-37.5-37.5zm-.002 60c-12.406 0-22.499-10.094-22.499-22.5s10.093-22.5 22.499-22.5h.001c12.406 0 22.5 10.094 22.5 22.5s-10.093 22.5-22.501 22.5z" fill="#8bc852"/></g><g><g><path d="m273.677 0h-35.353c-8.379 0-15.38 6.378-16.16 14.72l-14.855 158.946h97.383l-14.855-158.946c-.78-8.342-7.782-14.72-16.16-14.72z" fill="#c8ea73"/></g></g><g><g><path d="m294.424 63.798c-1.205 20.178-17.944 36.172-38.424 36.172s-37.219-15.994-38.424-36.172l-10.268 109.869h97.383z" fill="#aad963"/></g></g><g><g><path d="m55.451 407.746h167.44c2.377-34.968-3.064-74.189-17.327-113.378-32.686-89.804-100.957-149.98-162.465-148.672-20.422 35.765-32.099 77.169-32.099 121.304 0 52.385 16.444 100.927 44.448 140.75z" fill="#fe9d09"/></g></g><g><g><path d="m256 459.511 21.124 13.311c22.682-41.225 31.522-99.74 20.603-161.665-19.181-108.779-92.048-186.855-162.755-174.387-70.706 12.467-112.476 110.756-93.295 219.535 3.19 18.09 7.872 35.324 13.774 51.441 31.703 45.091 78.227 78.993 132.49 94.652z" fill="#ffb629"/></g></g><g><g><path d="m456.555 407.746c28.003-39.823 44.445-88.363 44.445-140.746 0-44.135-11.677-85.539-32.099-121.305-61.508-1.308-129.779 58.869-162.465 148.672-14.264 39.189-19.704 78.41-17.327 113.378h167.446z" fill="#ffb629"/></g></g><g><g><path d="m377.028 136.769c-70.706-12.467-143.574 65.608-162.755 174.387-10.919 61.925-2.078 120.44 20.603 161.665l21.124-13.31 68.058 42.887c54.263-15.659 100.787-49.562 132.49-94.652 5.903-16.116 10.584-33.351 13.774-51.441 19.181-108.779-22.588-207.068-93.294-219.536z" fill="#ffcd53"/></g></g><g><g><path d="m256 132c-71.797 0-130 89.543-130 200 0 72.056 24.773 135.204 61.926 170.408 21.614 6.239 44.451 9.592 68.074 9.592s46.46-3.353 68.074-9.592c37.153-35.204 61.926-98.352 61.926-170.408 0-110.457-58.203-200-130-200z" fill="#ffe47d"/></g></g><g><g><path d="m286 137.362c-9.631-3.5-19.674-5.362-30-5.362-71.797 0-130 89.543-130 200 0 72.056 24.773 135.204 61.926 170.408 21.614 6.239 44.451 9.592 68.074 9.592 1.084 0 2.161-.027 3.241-.041-43.354-32.422-73.241-100.814-73.241-179.959 0-94.57 42.667-173.801 100-194.638z" fill="#ffcd53"/></g></g></g></svg>