<svg id="Capa_1" enable-background="new 0 0 512 512" height="512" viewBox="0 0 512 512" width="512" xmlns="http://www.w3.org/2000/svg"><g><g><g><path d="m39.317 381.406 375.218 72.371c52.894-44.94 86.465-111.933 86.465-186.777 0-135.31-109.69-245-245-245s-245 109.69-245 245c0 41.327 10.248 80.255 28.317 114.406z" fill="#ffcd53"/></g></g><g><g><circle cx="256" cy="247" fill="#ffe47d" r="200"/></g></g><g><g><path d="m97.515 453.821h158.485v-357.183h-80s-32.694 66.917-74.59 91.439c-11.003 6.44-12.909 21.502-3.83 30.453 1.261 1.243 2.625 2.459 4.099 3.626 7.696 6.089 9.592 17.004 4.374 25.315-8.647 13.774-24.016 32.611-48.602 45.368-13.391 6.948-14.136 25.93-1.17 33.641.204.121.409.241.616.36 9.983 5.709 13.034 18.708 6.313 28.04-5.993 8.321-13.95 17.824-23.894 26.528 14.666 27.715 34.494 52.278 58.199 72.413z" fill="#463c39"/></g></g><g><g><path d="m97.516 453.82c42.724 36.281 98.043 58.18 158.484 58.18 60.466 0 115.804-21.917 158.536-58.223l-78.473-299.039h-160.063z" fill="#aa3c31"/></g></g><g><g><path d="m221.792 154.738h-45.792l-78.484 299.082c42.724 36.281 98.043 58.18 158.484 58.18-84.434-74.1-90.14-159.615-34.208-357.262z" fill="#962e29"/></g></g><g><g><path d="m336 96.638c27.614 0 50-22.386 50-50 0-19.912-11.639-37.105-28.486-45.148-9.976-4.762-21.514 2.464-21.514 13.519z" fill="#bd5a40"/></g></g><g><g><path d="m176 96.638c-27.614 0-50-22.386-50-50 0-19.912 11.639-37.105 28.486-45.148 9.976-4.762 21.514 2.464 21.514 13.519z" fill="#bd5a40"/></g></g><g><g><path d="m256 345.776c-51.56 0-95.194-38.087-102.16-89.175l-17.84-130.825h240l-17.84 130.825c-6.966 51.088-50.6 89.175-102.16 89.175z" fill="#bd5a40"/></g></g><g><g><g><path d="m350.609 158.539c.043-3.495-1.371-7.004-4.242-9.539-4.675-4.128-11.84-4.128-16.515 0-2.871 2.535-4.284 6.044-4.242 9.539.055 4.538 5.629 6.716 8.838 3.507 2.022-2.022 5.3-2.022 7.322 0 3.21 3.21 8.784 1.032 8.839-3.507z" fill="#463c39"/></g></g><g><g><path d="m161.391 158.539c-.043-3.495 1.371-7.004 4.242-9.539 4.675-4.128 11.84-4.128 16.515 0 2.871 2.535 4.284 6.044 4.242 9.539-.055 4.538-5.629 6.716-8.838 3.507-2.022-2.022-5.3-2.022-7.322 0-3.21 3.21-8.784 1.032-8.839-3.507z" fill="#463c39"/></g></g></g><g><g><path d="m375.353 75.883c-78.024-22.169-160.681-22.169-238.705 0-12.679 3.603-21.428 15.183-21.428 28.364 0 16.285 13.202 29.487 29.487 29.487h32.515c15.287 0 28.039 11.683 29.374 26.912l17.641 201.236h63.526l17.641-201.236c1.335-15.229 14.087-26.912 29.374-26.912h32.515c16.285 0 29.487-13.202 29.487-29.487 0-13.182-8.748-24.762-21.427-28.364z" fill="#d0794e"/></g></g><g><g><path d="m316.843 282.384c.007-.217.033-.429.033-.648 0-11.046-8.954-20-20-20-4.338 0-8.341 1.396-11.618 3.742-9.065-2.674-18.927-4.159-29.258-4.159-10.33 0-20.192 1.484-29.256 4.158-3.277-2.346-7.28-3.742-11.618-3.742-11.046 0-20 8.954-20 20 0 .219.026.43.033.647-11.937 10.481-19.159 24.072-19.159 38.936 0 33.137 35.817 60 80 60s80-26.863 80-60c0-14.863-7.222-28.454-19.157-38.934z" fill="#fcaa70"/></g></g><g><g><path d="m256 261.318c-10.33 0-20.192 1.484-29.256 4.158-3.277-2.346-7.28-3.742-11.618-3.742-11.046 0-20 8.954-20 20 0 .219.026.43.033.647-11.937 10.482-19.159 24.073-19.159 38.937 0 33.137 35.817 60 80 60-40.319-39.383-34.1-96.381 0-120z" fill="#fa9a5e"/></g></g><g><path d="m280.278 336.714c-9.252 0-16.778-7.526-16.778-16.778 0-4.143-3.357-7.5-7.5-7.5s-7.5 3.357-7.5 7.5c0 9.252-7.526 16.778-16.778 16.778-4.143 0-7.5 3.357-7.5 7.5s3.357 7.5 7.5 7.5c9.728 0 18.444-4.398 24.278-11.306 5.834 6.907 14.55 11.306 24.278 11.306 4.143 0 7.5-3.357 7.5-7.5s-3.357-7.5-7.5-7.5z" fill="#ed844a"/></g><g><g><circle cx="215.126" cy="281.735" fill="#ed844a" r="7.5"/></g></g><g><g><circle cx="296.876" cy="281.735" fill="#ed844a" r="7.5"/></g></g><g><g><path d="m256.031 0c-90.097 0-110.959 86.198-95.601 107.176 9.681 13.222 25.664 6.492 36.158-.291 5.232-3.381 12.222-.93 14.18 4.984 6.402 19.334 21.125 53.484 45.263 53.484s38.861-34.15 45.263-53.484c1.958-5.914 8.948-8.365 14.18-4.984 10.494 6.783 26.477 13.513 36.158.291 15.359-20.978-5.504-107.176-95.601-107.176z" fill="#564c49"/></g></g><g><g><path d="m256.031 0c-90.097 0-110.959 86.198-95.601 107.176 9.681 13.222 25.664 6.492 36.158-.291 5.232-3.381 12.222-.93 14.18 4.984 6.402 19.334 21.125 53.484 45.263 53.484-18.841-31.944-49.329-118.949 0-165.353z" fill="#463c39"/></g></g></g></svg>